<svg width="20" height="20" viewBox="0 0 20 20" fill="none" xmlns="http://www.w3.org/2000/svg">
<path d="M17.4995 7.07935H16.3162L13.2229 1.66602L11.7762 2.49268L14.397 7.07935H5.60203L8.2237 2.49268L6.7762 1.66602L3.68287 7.07935H2.49953C2.23953 7.07935 1.99537 7.20102 1.83703 7.40685C1.67953 7.61352 1.62703 7.88185 1.69537 8.13185L4.02787 16.6852C4.22537 17.4085 4.88703 17.9127 5.6362 17.9127H14.3637C15.112 17.9127 15.7737 17.4085 15.972 16.6835L18.3045 8.13102C18.3729 7.88102 18.3212 7.61268 18.1629 7.40602C18.0037 7.20102 17.7595 7.07935 17.4995 7.07935ZM14.3629 16.246V17.0793V16.246H5.6362L3.5912 8.74602H16.4079L14.3629 16.246Z" fill="#1E2843"/>
<path d="M7.5 10.4141H9.16667V14.5807H7.5V10.4141ZM10.8333 10.4141H12.5V14.5807H10.8333V10.4141Z" fill="#1E2843"/>
</svg>
