<svg width="20" height="20" viewBox="0 0 20 20" fill="none" xmlns="http://www.w3.org/2000/svg">
<path d="M6.4375 5.25H5.3125C5.00182 5.25 4.75 5.50182 4.75 5.8125V6.9375C4.75 7.24818 5.00182 7.5 5.3125 7.5H6.4375C6.74818 7.5 7 7.24818 7 6.9375V5.8125C7 5.50182 6.74818 5.25 6.4375 5.25Z" fill="#1E2843"/>
<path d="M6.4375 8.75H5.3125C5.00182 8.75 4.75 9.00182 4.75 9.3125V10.4375C4.75 10.7482 5.00182 11 5.3125 11H6.4375C6.74818 11 7 10.7482 7 10.4375V9.3125C7 9.00182 6.74818 8.75 6.4375 8.75Z" fill="#1E2843"/>
<path d="M6.4375 12.25H5.3125C5.00182 12.25 4.75 12.5018 4.75 12.8125V13.9375C4.75 14.2482 5.00182 14.5 5.3125 14.5H6.4375C6.74818 14.5 7 14.2482 7 13.9375V12.8125C7 12.5018 6.74818 12.25 6.4375 12.25Z" fill="#1E2843"/>
<path d="M15.0625 5.5H8.3125V6.99989H15.0625V5.5Z" fill="#1E2843"/>
<path d="M15.0625 9H8.3125V10.5626H15.0625V9Z" fill="#1E2843"/>
<path d="M15.0625 12.5H8.3125V14.0001H15.0625V12.5Z" fill="#1E2843"/>
<rect x="2.5" y="2.5" width="15" height="15" rx="3" stroke="#1E2843" stroke-width="1.7"/>
</svg>
