<svg width="20" height="20" viewBox="0 0 20 20" fill="none" xmlns="http://www.w3.org/2000/svg">
<path d="M9.97695 3.79833C9.05695 2.96 7.88362 2.5 6.64695 2.5C5.33195 2.5 4.08695 3.01917 3.13612 3.965C1.17529 5.93417 1.17612 9.01417 3.13779 10.975L9.24779 17.085C9.38945 17.3342 9.66279 17.495 9.97695 17.495C10.2453 17.495 10.4845 17.3592 10.637 17.1542L16.8161 10.975C18.7778 9.01333 18.7778 5.93417 16.8145 3.96167C15.867 3.01917 14.622 2.5 13.307 2.5C12.0711 2.5 10.897 2.96 9.97695 3.79833ZM15.6361 5.14C16.9386 6.44917 16.9395 8.49417 15.6378 9.79667L9.97695 15.4575L4.31612 9.79667C3.01445 8.49417 3.01529 6.44917 4.31445 5.14333C4.94779 4.51333 5.77612 4.16667 6.64695 4.16667C7.51779 4.16667 8.34279 4.51333 8.97112 5.14167L9.38779 5.55833C9.71362 5.88417 10.2403 5.88417 10.5661 5.55833L10.9828 5.14167C12.2428 3.88417 14.3778 3.8875 15.6361 5.14Z" fill="#1E2843"/>
</svg>
