<svg width="20" height="20" viewBox="0 0 20 20" fill="none" xmlns="http://www.w3.org/2000/svg">
<path d="M9.99904 5C8.19154 5 6.7207 6.47083 6.7207 8.27833H8.38737C8.38737 7.38917 9.1107 6.66667 9.99904 6.66667C10.8874 6.66667 11.6107 7.38917 11.6107 8.27833C11.6107 8.77667 11.2099 9.13833 10.5974 9.63333C10.3849 9.80583 10.184 9.97 10.0215 10.1325C9.18987 10.9633 9.1657 11.8458 9.1657 11.9442V12.5H10.8324L10.8315 11.9725C10.8324 11.9592 10.859 11.6508 11.199 11.3117C11.324 11.1867 11.4815 11.0617 11.6449 10.93C12.294 10.4042 13.2765 9.61 13.2765 8.27833C13.2774 6.47083 11.8065 5 9.99904 5ZM9.1657 13.3333H10.8324V15H9.1657V13.3333Z" fill="#1E2843"/>
<path d="M9.99935 1.66602C5.40435 1.66602 1.66602 5.40435 1.66602 9.99935C1.66602 14.5943 5.40435 18.3327 9.99935 18.3327C14.5943 18.3327 18.3327 14.5943 18.3327 9.99935C18.3327 5.40435 14.5943 1.66602 9.99935 1.66602ZM9.99935 16.666C6.32352 16.666 3.33268 13.6752 3.33268 9.99935C3.33268 6.32352 6.32352 3.33268 9.99935 3.33268C13.6752 3.33268 16.666 6.32352 16.666 9.99935C16.666 13.6752 13.6752 16.666 9.99935 16.666Z" fill="#1E2843"/>
</svg>
