<svg width="24" height="24" viewBox="0 0 24 24" fill="none" xmlns="http://www.w3.org/2000/svg">
<path d="M5.23748 19.1771C5.03804 18.9657 4.75254 18.8577 4.46315 18.8842L2.694 19.046C2.32139 19.0801 2 18.7868 2 18.4126V18.4126C2 18.2156 2.09133 18.0296 2.24728 17.9092L4.312 16.3146C4.5277 16.1481 4.53712 15.8258 4.33151 15.6469V15.6469C4.23722 15.5649 4.18309 15.446 4.18309 15.321V14.2009C4.18309 13.4289 4.49188 12.6889 5.04066 12.1458L5.61939 11.5731C5.87953 11.3157 6.18458 11.108 6.51947 10.9604L8.45255 10.1082C8.66432 10.0149 8.89323 9.96668 9.12467 9.96668V9.96668C9.4608 9.96668 9.78907 9.86502 10.0664 9.67506L11.8511 8.45246C12.0864 8.29128 12.3962 8.28995 12.6329 8.44909V8.44909C12.8288 8.58083 13.0781 8.60429 13.2951 8.51139L13.8798 8.26116C14.3864 8.04436 14.9637 8.06736 15.4514 8.32378L15.646 8.42611C16.0656 8.64673 16.5677 8.64318 16.9841 8.41667V8.41667C17.2597 8.26678 17.4778 8.02978 17.6044 7.74275L18.8236 4.97755C19.0052 4.56561 19.3626 4.25727 19.7967 4.13794V4.13794C20.1217 4.0486 20.4674 4.07156 20.7777 4.2031L20.9685 4.28397C21.0354 4.3123 21.1001 4.3454 21.1622 4.38302V4.38302C21.6721 4.69186 21.9534 5.27102 21.881 5.86271L21.8771 5.89458C21.832 6.2621 21.6581 6.60174 21.3863 6.8531L20.6958 7.49149C20.2526 7.90127 20.1383 8.55692 20.4168 9.09248V9.09248C20.6235 9.4901 20.6176 9.96477 20.4011 10.3572L20.1419 10.827C20.0117 11.0629 19.9233 11.3195 19.8804 11.5854L19.8758 11.614C19.7758 12.2344 19.4466 12.7946 18.9532 13.1837L17.7472 14.1349C17.6113 14.242 17.4433 14.3003 17.2703 14.3003V14.3003C17.0903 14.3003 16.9159 14.3634 16.7776 14.4785L16.4727 14.7323C16.1834 14.9731 15.8281 15.1208 15.4533 15.1561L14.9202 15.2062C14.4087 15.2544 13.9233 15.4549 13.5269 15.7818V15.7818C13.1486 16.0938 12.6894 16.2908 12.2027 16.3513C10.8865 16.5149 8.28467 16.8463 8.26134 16.9127C8.24149 16.9691 7.34007 18.1996 6.68507 19.0898C6.33565 19.5647 5.64213 19.6059 5.23748 19.1771V19.1771Z" stroke="#B7BCCA" stroke-width="1.5"/>
</svg>
