<svg width="102" height="30" viewBox="0 0 102 30" fill="none" xmlns="http://www.w3.org/2000/svg">
<path fill-rule="evenodd" clip-rule="evenodd" d="M86.122 1.94539C88.1582 1.93097 90.1681 2.40593 91.9819 3.3302C93.7958 4.25447 95.3606 5.60094 96.5441 7.25601C98.546 10.1011 101.001 8.47017 101.001 11.9541V15.9113C100.977 16.8399 100.586 17.7213 99.9137 18.3632C99.2413 19.0051 98.3421 19.3554 97.4122 19.3376H96.9084C96.5985 19.3434 96.2988 19.2266 96.0747 19.0127C95.8506 18.7988 95.7202 18.505 95.7121 18.1955V11.5806C95.631 10.4747 95.2323 9.41555 94.5638 8.53022C93.6061 7.18985 92.3396 6.09935 90.8711 5.35083C89.4026 4.6023 87.7754 4.21773 86.1268 4.2296C83.8032 4.24474 81.547 5.01163 79.6965 6.41534C78.22 7.52021 77.7391 5.09429 78.3042 4.56106C80.5519 2.85537 83.2992 1.93617 86.122 1.94539Z" fill="#FF5134"/>
<path d="M25.072 3.9223C24.6344 4.33874 24.0532 4.57104 23.4488 4.57104C22.8444 4.57104 22.2632 4.33874 21.8256 3.9223C21.606 3.71303 21.4313 3.46145 21.3118 3.18278C21.1924 2.90411 21.1309 2.60413 21.1309 2.30101C21.1309 1.99788 21.1924 1.69791 21.3118 1.41924C21.4313 1.14056 21.606 0.888983 21.8256 0.67972C22.1436 0.356265 22.5513 0.135292 22.9962 0.0452463C23.441 -0.0447995 23.9027 0.000204225 24.3217 0.174464C24.7407 0.348724 25.0979 0.644263 25.3474 1.02304C25.5968 1.40181 25.727 1.84648 25.7213 2.29981C25.7297 2.6002 25.6765 2.89914 25.5648 3.17819C25.4531 3.45724 25.2854 3.71048 25.072 3.9223Z" fill="#FF5134"/>
<path d="M21.9102 7.60554C21.9156 7.2059 22.0795 6.82473 22.3661 6.54574C22.6526 6.26675 23.0383 6.11275 23.4384 6.11756C23.6362 6.11313 23.8329 6.14849 24.0167 6.22152C24.2005 6.29456 24.3678 6.40378 24.5085 6.5427C24.6482 6.68168 24.7581 6.84755 24.8317 7.03025C24.9053 7.21294 24.9409 7.40866 24.9365 7.60554V20.1375C24.9417 20.3345 24.9064 20.5304 24.8328 20.7132C24.7592 20.896 24.6488 21.0618 24.5085 21.2003C24.3699 21.344 24.2036 21.4583 24.0198 21.5364C23.8359 21.6145 23.6382 21.6547 23.4384 21.6547C23.2386 21.6547 23.0409 21.6145 22.857 21.5364C22.6731 21.4583 22.5069 21.344 22.3683 21.2003C22.2225 21.0644 22.1066 20.8998 22.0277 20.7169C21.9489 20.5339 21.9089 20.3367 21.9102 20.1375V7.60554Z" fill="#1E2843"/>
<path d="M39.3572 1.64752C39.3528 1.45006 39.3884 1.25375 39.462 1.07042C39.5356 0.8871 39.6456 0.720558 39.7854 0.580842C39.9251 0.441125 40.0918 0.331128 40.2753 0.257482C40.4587 0.183837 40.6553 0.148068 40.853 0.152334C41.0559 0.146061 41.258 0.180686 41.4472 0.254142C41.6364 0.327598 41.8089 0.438379 41.9543 0.579874C42.0941 0.720243 42.2041 0.887382 42.2777 1.07126C42.3512 1.25514 42.3868 1.45196 42.3824 1.64992V13.8997C42.3828 15.4188 41.9314 16.9038 41.0854 18.1662C40.2394 19.4287 39.037 20.4117 37.6308 20.9904C36.2246 21.5692 34.678 21.7176 33.1871 21.4169C31.6963 21.1162 30.3285 20.38 29.2573 19.3015C28.5351 18.5997 27.9644 17.7577 27.5804 16.8272C27.1964 15.8967 27.0072 14.8975 27.0245 13.8912C27.0236 12.4615 27.4227 11.0599 28.1767 9.84447C28.9307 8.62909 30.0096 7.64827 31.2918 7.0126C32.574 6.37693 34.0085 6.11168 35.4336 6.24678C36.8587 6.38187 38.2176 6.91193 39.3572 7.77719V1.65233V1.64752ZM39.3572 13.8612C39.3604 13.2517 39.2422 12.6477 39.0093 12.0844C38.7764 11.521 38.4336 11.0096 38.0009 10.5799C37.5681 10.1502 37.0541 9.81086 36.4886 9.58164C35.9232 9.35241 35.3178 9.23789 34.7077 9.24476C34.099 9.23337 33.4945 9.34687 32.9316 9.57824C32.3686 9.8096 31.8592 10.1539 31.4348 10.5898C30.999 11.0193 30.6529 11.531 30.4167 12.0951C30.1805 12.6593 30.0588 13.2647 30.0588 13.8762C30.0588 14.4878 30.1805 15.0932 30.4167 15.6573C30.6529 16.2215 30.999 16.7332 31.4348 17.1626C31.8547 17.6065 32.3626 17.9581 32.9261 18.1951C33.4896 18.432 34.0963 18.5491 34.7077 18.5389C35.3186 18.5391 35.9236 18.419 36.488 18.1854C37.0524 17.9519 37.5652 17.6095 37.997 17.1778C38.4288 16.7461 38.7712 16.2337 39.0046 15.6698C39.238 15.1058 39.3578 14.5015 39.3572 13.8912V13.8612Z" fill="#1E2843"/>
<path d="M57.2491 19.363C56.1735 20.431 54.8059 21.1577 53.3181 21.4519C51.8304 21.746 50.2887 21.5945 48.8869 21.0163C47.485 20.4381 46.2855 19.459 45.439 18.2021C44.5925 16.9451 44.1367 15.4664 44.1289 13.9515C44.1296 12.6915 44.441 11.4511 45.0358 10.34C45.6306 9.22882 46.4903 8.2812 47.539 7.58088C48.5877 6.88057 49.793 6.44916 51.0483 6.3248C52.3036 6.20044 53.5702 6.38696 54.7362 6.86787C55.9022 7.34878 56.9315 8.10925 57.7333 9.08205C58.535 10.0548 59.0843 11.21 59.3328 12.4453C59.5812 13.6806 59.5211 14.958 59.1576 16.1646C58.7942 17.3711 58.1387 18.4697 57.2491 19.363ZM55.1077 10.6501C54.2268 9.78438 53.0394 9.30099 51.8036 9.30502C51.195 9.29363 50.5905 9.40713 50.0275 9.63849C49.4646 9.86986 48.9551 10.2142 48.5308 10.6501C48.0949 11.0795 47.7489 11.5912 47.5126 12.1554C47.2764 12.7196 47.1548 13.325 47.1548 13.9365C47.1548 14.548 47.2764 15.1534 47.5126 15.7176C47.7489 16.2818 48.0949 16.7934 48.5308 17.2229C48.9509 17.6665 49.4588 18.018 50.0223 18.2549C50.5857 18.4919 51.1923 18.6091 51.8036 18.5992C52.4193 18.6076 53.0301 18.4897 53.5984 18.253C54.1667 18.0163 54.6804 17.6657 55.1077 17.2229C55.9716 16.3467 56.4558 15.1663 56.4558 13.9365C56.4558 12.7067 55.9716 11.5263 55.1077 10.6501Z" fill="#1E2843"/>
<path fill-rule="evenodd" clip-rule="evenodd" d="M80.2106 8.63355C78.7748 10.025 77.9301 11.915 77.8516 13.9117C77.8205 14.209 77.8048 14.5076 77.8047 14.8064C77.8068 15.0802 77.8314 15.3533 77.878 15.6231C78.2015 18.8717 82.1512 25.5646 84.7712 29.051C85.6129 30.1775 86.4209 30.4537 87.4946 29.0354C90.1265 25.5526 94.0523 18.8681 94.3757 15.6243C94.4231 15.3542 94.4481 15.0807 94.4503 14.8064C94.4501 14.506 94.4344 14.2058 94.4034 13.9069C94.322 11.9093 93.4718 10.0202 92.0299 8.63355C90.4208 7.14908 88.3107 6.32471 86.1203 6.32471C83.9298 6.32471 81.8198 7.14908 80.2106 8.63355ZM86.1287 9.30488C87.0466 9.30591 87.9437 9.578 88.7072 10.0869C89.4707 10.5959 90.0664 11.319 90.4196 12.1652C90.7727 13.0115 90.8675 13.9431 90.6919 14.843C90.5163 15.7429 90.0782 16.5709 89.4328 17.2228C89.0054 17.6655 88.4918 18.0161 87.9235 18.2528C87.3552 18.4895 86.7443 18.6073 86.1287 18.5991C85.5176 18.6088 84.9112 18.4915 84.348 18.2545C83.7847 18.0176 83.277 17.6662 82.857 17.2228C82.4212 16.7933 82.0751 16.2816 81.8389 15.7175C81.6027 15.1533 81.4811 14.5479 81.4811 13.9364C81.4811 13.3248 81.6027 12.7194 81.8389 12.1553C82.0751 11.5911 82.4212 11.0794 82.857 10.6499C83.2813 10.2142 83.7905 9.86996 84.3532 9.6386C84.916 9.40724 85.5202 9.29366 86.1287 9.30488Z" fill="#FF5134"/>
<path d="M73.6468 1.64751C73.6422 1.45 73.6777 1.25361 73.7513 1.07021C73.8248 0.886809 73.9348 0.720198 74.0746 0.580447C74.2144 0.440695 74.3811 0.330704 74.5647 0.257119C74.7482 0.183534 74.9448 0.147882 75.1426 0.152319C75.3455 0.146115 75.5476 0.180771 75.7368 0.254223C75.926 0.327676 76.0985 0.43842 76.2439 0.579859C76.3838 0.720228 76.4937 0.887366 76.5673 1.07124C76.6409 1.25512 76.6764 1.45195 76.672 1.64991V13.8996C76.6847 14.9146 76.4955 15.922 76.1154 16.8634C75.7354 17.8048 75.1719 18.6615 74.4579 19.3837C73.7438 20.106 72.8932 20.6794 71.9555 21.0708C71.0179 21.4622 70.0117 21.6637 68.9955 21.6637C67.9792 21.6637 66.9731 21.4622 66.0354 21.0708C65.0977 20.6794 64.2472 20.106 63.5331 19.3837C62.819 18.6615 62.2556 17.8048 61.8755 16.8634C61.4954 15.922 61.3062 14.9146 61.319 13.8996C61.3172 12.47 61.7153 11.0682 62.4684 9.85242C63.2215 8.63663 64.2997 7.65515 65.5814 7.01863C66.8631 6.3821 68.2973 6.11584 69.7223 6.24987C71.1474 6.38389 72.5066 6.91287 73.6468 7.77717V1.65231V1.64751ZM73.6468 13.8612C73.65 13.2517 73.5318 12.6477 73.2989 12.0843C73.0661 11.521 72.7233 11.0096 72.2905 10.5799C71.8577 10.1502 71.3437 9.81085 70.7783 9.58162C70.2129 9.3524 69.6074 9.23788 68.9973 9.24474C68.3886 9.23336 67.7841 9.34686 67.2212 9.57822C66.6582 9.80958 66.1488 10.1539 65.7244 10.5898C65.2886 11.0193 64.9425 11.5309 64.7063 12.0951C64.4701 12.6593 64.3484 13.2647 64.3484 13.8762C64.3484 14.4877 64.4701 15.0932 64.7063 15.6573C64.9425 16.2215 65.2886 16.7332 65.7244 17.1626C66.1444 17.6065 66.6522 17.9581 67.2157 18.195C67.7792 18.432 68.386 18.5491 68.9973 18.5389C69.6082 18.5391 70.2132 18.4189 70.7776 18.1854C71.342 17.9518 71.8548 17.6094 72.2866 17.1778C72.7184 16.7461 73.0609 16.2337 73.2942 15.6697C73.5276 15.1058 73.6474 14.5014 73.6468 13.8912V13.8612Z" fill="#1E2843"/>
<path d="M17.4866 6.86685C17.6973 6.52049 18.0337 6.26872 18.4257 6.16401C18.8177 6.0593 19.235 6.10973 19.5907 6.3048C19.7634 6.39543 19.9153 6.52107 20.0366 6.67369C20.158 6.8263 20.2461 7.00253 20.2953 7.1911C20.3823 7.57847 20.3155 7.98442 20.1089 8.3236L13.3805 20.8688C13.2848 21.0468 13.1529 21.2028 12.9932 21.3269C12.8336 21.451 12.6497 21.5404 12.4535 21.5893C12.2612 21.6487 12.0588 21.6687 11.8586 21.648C11.6584 21.6274 11.4645 21.5666 11.2884 21.4692C11.115 21.3753 10.9638 21.2453 10.8449 21.0881C10.7261 20.9309 10.6424 20.75 10.5994 20.5577C10.4966 20.1694 10.5519 19.7561 10.7533 19.4084L17.4866 6.86685Z" fill="#1E2843"/>
<path d="M6.53529 7.93099C6.43128 7.75593 6.2934 7.60333 6.12969 7.48208C5.96598 7.36084 5.77973 7.27339 5.58181 7.22483C5.39042 7.16993 5.18986 7.1544 4.99228 7.17917C4.79471 7.20394 4.60422 7.2685 4.43235 7.36895C4.25962 7.45958 4.10774 7.58522 3.98642 7.73784C3.86509 7.89045 3.77699 8.06668 3.72776 8.25525C3.68074 8.44675 3.67291 8.64576 3.70472 8.84036C3.73654 9.03496 3.80735 9.22114 3.91292 9.38775L10.6835 20.8701C10.7823 21.0456 10.9152 21.1998 11.0744 21.3235C11.2336 21.4472 11.4158 21.538 11.6105 21.5906C11.8027 21.6504 12.0051 21.6705 12.2053 21.6499C12.4056 21.6292 12.5996 21.5682 12.7756 21.4705C12.9489 21.3765 13.1001 21.2466 13.2189 21.0893C13.3377 20.9321 13.4215 20.7513 13.4645 20.559C13.5185 20.3672 13.5322 20.1664 13.5049 19.969C13.4776 19.7717 13.4098 19.5821 13.3058 19.4121L6.53529 7.92979V7.93099Z" fill="#1E2843"/>
<path d="M2.85365 1.68808C2.7498 1.51289 2.61196 1.36018 2.44823 1.23892C2.2845 1.11765 2.09817 1.03028 1.90017 0.981914C1.70878 0.927013 1.50822 0.911479 1.31064 0.93625C1.11307 0.961022 0.922575 1.02558 0.750706 1.12603C0.577983 1.21666 0.426102 1.3423 0.304776 1.49492C0.183451 1.64753 0.0953533 1.82376 0.0461196 2.01233C-0.000897663 2.20383 -0.00873265 2.40284 0.0230842 2.59744C0.054901 2.79204 0.125715 2.97822 0.231284 3.14483L7.00181 14.6272C7.10068 14.8027 7.23358 14.9569 7.39274 15.0806C7.55191 15.2043 7.73415 15.2951 7.92883 15.3477C8.12108 15.4074 8.32344 15.4275 8.52369 15.4068C8.72394 15.3862 8.91792 15.3252 9.09393 15.2276C9.2673 15.1337 9.4185 15.0037 9.53735 14.8465C9.65619 14.6892 9.73992 14.5084 9.78288 14.3161C9.83577 14.1243 9.84854 13.9238 9.82041 13.7268C9.79228 13.5299 9.72384 13.3409 9.61936 13.1716L2.85244 1.68928L2.85365 1.68808Z" fill="#1E2843"/>
</svg>
