<svg width="84" height="84" viewBox="0 0 84 84" fill="none" xmlns="http://www.w3.org/2000/svg">
<rect width="84" height="84" rx="16" fill="url(#paint0_linear)"/>
<path fill-rule="evenodd" clip-rule="evenodd" d="M40.4587 17.399C44.048 17.3737 47.5907 18.212 50.788 19.8432C53.9853 21.4744 56.7434 23.8506 58.8296 26.7714C62.3588 31.7933 66.6871 28.9146 66.6871 35.0629V42.046C66.6443 43.6848 65.9553 45.2402 64.7703 46.373C63.5853 47.5059 62.0005 48.1243 60.3615 48.0934H59.4742C58.9277 48.1038 58.3994 47.8975 58.0044 47.5197C57.6094 47.1419 57.38 46.6232 57.366 46.0768V34.4026C57.366 32.5942 56.4129 30.5625 55.3296 29.0202C53.6415 26.6548 51.409 24.7304 48.8206 23.4094C46.2322 22.0885 43.364 21.4097 40.4581 21.4304C36.3623 21.457 32.3854 22.8103 29.1234 25.2874C26.5217 27.2375 25.6718 22.9541 26.6699 22.0137C30.6343 19.0024 35.4803 17.3806 40.4587 17.399Z" fill="white"/>
<path fill-rule="evenodd" clip-rule="evenodd" d="M30.041 29.2002C27.5103 31.656 26.0215 34.9913 25.883 38.5149C25.8284 39.0395 25.8009 39.5666 25.8008 40.094C25.8045 40.5772 25.8476 41.0593 25.9297 41.5354C26.4996 47.2696 33.4629 59.0815 38.0811 65.2339C39.5727 67.2225 40.9896 67.7096 42.8825 65.2059C47.5218 59.0687 54.4419 47.2614 55.0118 41.5378C55.0955 41.061 55.1397 40.5781 55.1436 40.094C55.1435 39.5639 55.116 39.0341 55.0614 38.5068C54.918 34.9817 53.4195 31.648 50.8783 29.2008C45.2549 23.7793 35.6574 23.7537 30.041 29.2002ZM40.4734 30.3844C42.0915 30.3861 43.6731 30.8662 45.0191 31.7645C46.3651 32.6627 47.4154 33.9389 48.0379 35.4325C48.6605 36.9261 48.8275 38.5705 48.5179 40.1588C48.2083 41.747 47.4359 43.2083 46.298 44.3588C45.5445 45.14 44.639 45.7586 43.6372 46.1763C42.6354 46.594 41.5586 46.8019 40.4734 46.7872C39.3962 46.8045 38.3272 46.5975 37.3343 46.1794C36.3414 45.7614 35.4463 45.1414 34.7059 44.3588C33.9377 43.6009 33.3276 42.6979 32.9112 41.7022C32.4948 40.7066 32.2804 39.6382 32.2804 38.559C32.2804 37.4798 32.4948 36.4113 32.9112 35.4157C33.3276 34.42 33.9377 33.5171 34.7059 32.7592C35.4538 31.9901 36.3515 31.3826 37.3435 30.9742C38.3356 30.5659 39.4008 30.3653 40.4734 30.385V30.3844Z" fill="white"/>
<defs>
<linearGradient id="paint0_linear" x1="42" y1="0" x2="42" y2="141" gradientUnits="userSpaceOnUse">
<stop stop-color="#FF7C66"/>
<stop offset="1" stop-color="#FF5134"/>
</linearGradient>
</defs>
</svg>
