<svg width="135" height="40" viewBox="0 0 135 40" fill="none" xmlns="http://www.w3.org/2000/svg">
<path d="M130 40H5C2.2 40 0 37.8 0 35V5C0 2.2 2.2 0 5 0H130C132.8 0 135 2.2 135 5V35C135 37.7 132.8 40 130 40Z" fill="black"/>
<path d="M130 0.8C132.3 0.8 134.2 2.7 134.2 5V35C134.2 37.3 132.3 39.2 130 39.2H5C2.7 39.2 0.8 37.3 0.8 35V5C0.8 2.7 2.7 0.8 5 0.8H130ZM130 0H5C2.2 0 0 2.2 0 5V35C0 37.8 2.2 40 5 40H130C132.8 40 135 37.8 135 35V5C135 2.3 132.8 0 130 0Z" fill="#A6A6A6"/>
<path d="M47 10.3C47 11.1 46.8 11.8 46.3 12.3C45.7 12.9 45 13.2 44.1 13.2C43.2 13.2 42.5 12.9 41.9 12.3C41.3 11.7 41 11 41 10.1C41 9.2 41.3 8.5 41.9 7.9C42.5 7.3 43.2 7 44.1 7C44.5 7 44.9 7.1 45.3 7.3C45.7 7.5 46 7.7 46.2 8L45.7 8.5C45.3 8 44.8 7.8 44.1 7.8C43.5 7.8 42.9 8 42.5 8.5C42 8.9 41.8 9.5 41.8 10.2C41.8 10.9 42 11.5 42.5 11.9C43 12.3 43.5 12.6 44.1 12.6C44.8 12.6 45.3 12.4 45.8 11.9C46.1 11.6 46.3 11.2 46.3 10.7H44.1V10H47C47 10 47 10.2 47 10.3Z" fill="white" stroke="white" stroke-width="0.2" stroke-miterlimit="10"/>
<path d="M51.5 7.7H48.8V9.6H51.3V10.3H48.8V12.2H51.5V13H48V7H51.5V7.7Z" fill="white" stroke="white" stroke-width="0.2" stroke-miterlimit="10"/>
<path d="M54.5 13H53.7V7.7H52V7H56.2V7.7H54.5V13Z" fill="white" stroke="white" stroke-width="0.2" stroke-miterlimit="10"/>
<path d="M60 13V7H60.8V13H60Z" fill="white" stroke="white" stroke-width="0.2" stroke-miterlimit="10"/>
<path d="M63.5 13H62.7V7.7H61V7H65.1V7.7H63.4V13H63.5Z" fill="white" stroke="white" stroke-width="0.2" stroke-miterlimit="10"/>
<path d="M73.3 12.3C72.7 12.9 72 13.2 71.1 13.2C70.2 13.2 69.5 12.9 68.9 12.3C68.3 11.7 68 11 68 10.1C68 9.2 68.3 8.5 68.9 7.9C69.5 7.3 70.2 7 71.1 7C72 7 72.7 7.3 73.3 7.9C73.9 8.5 74.2 9.2 74.2 10.1C74.2 11 73.9 11.7 73.3 12.3ZM69.5 11.8C69.9 12.2 70.5 12.5 71.1 12.5C71.7 12.5 72.3 12.3 72.7 11.8C73.1 11.4 73.4 10.8 73.4 10.1C73.4 9.4 73.2 8.8 72.7 8.4C72.3 8 71.7 7.7 71.1 7.7C70.5 7.7 69.9 7.9 69.5 8.4C69.1 8.8 68.8 9.4 68.8 10.1C68.8 10.8 69 11.4 69.5 11.8Z" fill="white" stroke="white" stroke-width="0.2" stroke-miterlimit="10"/>
<path d="M75 13V7H75.9L78.8 11.7V10.5V7H79.6V13H78.8L75.7 8.1V9.3V13H75Z" fill="white" stroke="white" stroke-width="0.2" stroke-miterlimit="10"/>
<path d="M68 21.7C65.6 21.7 63.7 23.5 63.7 26C63.7 28.4 65.6 30.3 68 30.3C70.4 30.3 72.3 28.5 72.3 26C72.3 23.4 70.4 21.7 68 21.7ZM68 28.5C66.7 28.5 65.6 27.4 65.6 25.9C65.6 24.4 66.7 23.3 68 23.3C69.3 23.3 70.4 24.3 70.4 25.9C70.4 27.4 69.3 28.5 68 28.5ZM58.7 21.7C56.3 21.7 54.4 23.5 54.4 26C54.4 28.4 56.3 30.3 58.7 30.3C61.1 30.3 63 28.5 63 26C63 23.4 61.1 21.7 58.7 21.7ZM58.7 28.5C57.4 28.5 56.3 27.4 56.3 25.9C56.3 24.4 57.4 23.3 58.7 23.3C60 23.3 61.1 24.3 61.1 25.9C61.1 27.4 60 28.5 58.7 28.5ZM47.6 23V24.8H51.9C51.8 25.8 51.4 26.6 50.9 27.1C50.3 27.7 49.3 28.4 47.6 28.4C44.9 28.4 42.9 26.3 42.9 23.6C42.9 20.9 45 18.8 47.6 18.8C49 18.8 50.1 19.4 50.9 20.1L52.2 18.8C51.1 17.8 49.7 17 47.7 17C44.1 17 41 20 41 23.6C41 27.2 44.1 30.2 47.7 30.2C49.7 30.2 51.1 29.6 52.3 28.3C53.5 27.1 53.9 25.4 53.9 24.1C53.9 23.7 53.9 23.3 53.8 23H47.6ZM93 24.4C92.6 23.4 91.6 21.7 89.4 21.7C87.2 21.7 85.4 23.4 85.4 26C85.4 28.4 87.2 30.3 89.6 30.3C91.5 30.3 92.7 29.1 93.1 28.4L91.7 27.4C91.2 28.1 90.6 28.6 89.6 28.6C88.6 28.6 88 28.2 87.5 27.3L93.2 24.9L93 24.4ZM87.2 25.8C87.2 24.2 88.5 23.3 89.4 23.3C90.1 23.3 90.8 23.7 91 24.2L87.2 25.8ZM82.5 29.9H84.4V17.4H82.5V29.9ZM79.5 22.6C79 22.1 78.2 21.6 77.2 21.6C75.1 21.6 73.1 23.5 73.1 25.9C73.1 28.3 75 30.1 77.2 30.1C78.2 30.1 79 29.6 79.4 29.1H79.5V29.7C79.5 31.3 78.6 32.2 77.2 32.2C76.1 32.2 75.3 31.4 75.1 30.7L73.5 31.4C74 32.5 75.2 33.9 77.3 33.9C79.5 33.9 81.3 32.6 81.3 29.5V21.9H79.5V22.6ZM77.3 28.5C76 28.5 74.9 27.4 74.9 25.9C74.9 24.4 76 23.3 77.3 23.3C78.6 23.3 79.6 24.4 79.6 25.9C79.6 27.4 78.6 28.5 77.3 28.5ZM101.7 17.4H97.2V29.9H99.1V25.2H101.7C103.8 25.2 105.8 23.7 105.8 21.3C105.8 18.9 103.8 17.4 101.7 17.4ZM101.8 23.4H99.1V19.1H101.8C103.2 19.1 104 20.3 104 21.2C103.9 22.3 103.1 23.4 101.8 23.4ZM113.3 21.6C111.9 21.6 110.5 22.2 110 23.5L111.7 24.2C112.1 23.5 112.7 23.3 113.4 23.3C114.4 23.3 115.3 23.9 115.4 24.9V25C115.1 24.8 114.3 24.5 113.5 24.5C111.7 24.5 109.9 25.5 109.9 27.3C109.9 29 111.4 30.1 113 30.1C114.3 30.1 114.9 29.5 115.4 28.9H115.5V29.9H117.3V25.1C117.1 22.9 115.4 21.6 113.3 21.6ZM113.1 28.5C112.5 28.5 111.6 28.2 111.6 27.4C111.6 26.4 112.7 26.1 113.6 26.1C114.4 26.1 114.8 26.3 115.3 26.5C115.1 27.7 114.1 28.5 113.1 28.5ZM123.6 21.9L121.5 27.3H121.4L119.2 21.9H117.2L120.5 29.5L118.6 33.7H120.5L125.6 21.9H123.6ZM106.8 29.9H108.7V17.4H106.8V29.9Z" fill="white"/>
<path d="M10.5 7C10.2 7.3 10 7.8 10 8.4V30.5C10 31.1 10.2 31.6 10.5 31.9L10.6 32L23 19.6V19.5V19.4L10.5 7Z" fill="url(#paint0_linear)"/>
<path d="M27.1 24.4492L23 20.3492V20.1492V20.0492L27.0566 16L27.1738 16.0703L32.1 18.8492C33.5 19.6492 33.5 20.9492 32.1 21.7492L27.1 24.4492Z" fill="url(#paint1_linear)"/>
<path d="M27.7 24.2L23.5 20L11 32.5C11.5 33 12.2 33 13.1 32.6L27.7 24.2Z" fill="url(#paint2_linear)"/>
<path d="M27.7 15.6287L13.1 7.32873C12.2 6.82873 11.5 6.92873 11 7.42873L23.5 19.8287L27.7 15.6287Z" fill="url(#paint3_linear)"/>
<path opacity="0.2" d="M26.6 24L12.1 32.2C11.3 32.7 10.6 32.6 10.1 32.2L10 32.3L10.1 32.4C10.6 32.8 11.3 32.9 12.1 32.4L26.6 24Z" fill="black"/>
<path opacity="0.12" d="M10.4 32.4C10.1 32.1 10 31.6 10 31V31.1C10 31.7 10.2 32.2 10.5 32.5V32.4H10.4Z" fill="black"/>
<path opacity="0.12" d="M32 21.3L27 24.1L27.1 24.2L32 21.4C32.7 21 33 20.5 33 20C33 20.5 32.6 20.9 32 21.3Z" fill="black"/>
<path opacity="0.25" d="M12.5 7.4324L32 18.5324C32.6 18.9324 33 19.3324 33 19.8324C33 19.3324 32.7 18.8324 32 18.4324L12.5 7.3324C11.1 6.5324 10 7.2324 10 8.8324V8.9324C10 7.3324 11.1 6.6324 12.5 7.4324Z" fill="white"/>
<defs>
<linearGradient id="paint0_linear" x1="21.8997" y1="8.2097" x2="5.1173" y2="24.9921" gradientUnits="userSpaceOnUse">
<stop stop-color="#00A0FF"/>
<stop offset="0.00657445" stop-color="#00A1FF"/>
<stop offset="0.2601" stop-color="#00BEFF"/>
<stop offset="0.5122" stop-color="#00D2FF"/>
<stop offset="0.7604" stop-color="#00DFFF"/>
<stop offset="1" stop-color="#00E3FF"/>
</linearGradient>
<linearGradient id="paint1_linear" x1="33.9344" y1="20.1506" x2="9.7375" y2="20.1506" gradientUnits="userSpaceOnUse">
<stop stop-color="#FFE000"/>
<stop offset="0.4087" stop-color="#FFBD00"/>
<stop offset="0.7754" stop-color="#FFA500"/>
<stop offset="1" stop-color="#FF9C00"/>
</linearGradient>
<linearGradient id="paint2_linear" x1="25.427" y1="22.2961" x2="2.6687" y2="45.0544" gradientUnits="userSpaceOnUse">
<stop stop-color="#FF3A44"/>
<stop offset="1" stop-color="#C31162"/>
</linearGradient>
<linearGradient id="paint3_linear" x1="7.8973" y1="0.00492517" x2="18.0599" y2="10.1674" gradientUnits="userSpaceOnUse">
<stop stop-color="#32A071"/>
<stop offset="0.0685" stop-color="#2DA771"/>
<stop offset="0.4762" stop-color="#15CF74"/>
<stop offset="0.8009" stop-color="#06E775"/>
<stop offset="1" stop-color="#00F076"/>
</linearGradient>
</defs>
</svg>
