<svg width="120" height="40" viewBox="0 0 120 40" fill="none" xmlns="http://www.w3.org/2000/svg">
<path d="M110.468 0H9.53177C9.23077 0 8.82943 0 8.42809 0C8.12709 0 7.82609 0 7.52508 0C6.82274 0 6.22074 0.1 5.51839 0.2C4.91639 0.3 4.21405 0.5 3.61204 0.8C3.01003 1.1 2.50836 1.5 2.00669 2C1.50502 2.5 1.10368 3 0.802676 3.6C0.501672 4.2 0.301003 4.9 0.200669 5.5C0.100334 6.2 0 6.9 0 7.5C0 7.8 0 8.1 0 8.4V31.5C0 31.8 0 32.1 0 32.4C0 33.1 0.100334 33.7 0.200669 34.4C0.301003 35.1 0.501672 35.7 0.802676 36.3C1.10368 37 1.50502 37.5 2.00669 38C2.50836 38.5 3.01003 38.9 3.61204 39.2C4.21405 39.5 4.81605 39.7 5.51839 39.8C6.22074 39.9 6.82274 40 7.52508 40C7.82609 40 8.12709 40 8.42809 40C8.82943 40 9.13043 40 9.53177 40H110.468C110.87 40 111.171 40 111.572 40C111.873 40 112.174 40 112.475 40C113.177 40 113.779 39.9 114.482 39.8C115.184 39.7 115.786 39.5 116.388 39.2C116.99 38.9 117.492 38.5 117.993 38C118.495 37.5 118.896 37 119.197 36.4C119.498 35.8 119.699 35.2 119.799 34.5C119.9 33.8 120 33.2 120 32.5C120 32.2 120 31.9 120 31.6C120 31.2 120 30.9 120 30.5V9.5C120 9.1 120 8.8 120 8.4C120 8.1 120 7.8 120 7.5C120 6.8 119.9 6.2 119.799 5.5C119.699 4.8 119.498 4.2 119.197 3.6C118.595 2.4 117.592 1.4 116.388 0.8C115.786 0.5 115.184 0.3 114.482 0.2C113.779 0.1 113.177 0 112.475 0C112.174 0 111.873 0 111.572 0C111.271 0 110.87 0 110.468 0Z" fill="#A6A6A6"/>
<path d="M8.62542 39.2C8.32441 39.2 8.02341 39.2 7.72241 39.2C7.1204 39.2 6.41806 39.1 5.81605 39C5.21405 38.9 4.71237 38.7 4.11037 38.5C3.6087 38.2 3.10702 37.9 2.70569 37.5C2.30435 37.1 1.90301 36.6 1.70234 36.1C1.40134 35.6 1.301 35 1.20067 34.4C1.10033 33.8 1 33.2 1 32.5C1 32.3 1 31.6 1 31.6V8.5C1 8.5 1 7.8 1 7.6C1 7 1.10033 6.3 1.20067 5.7C1.301 5.2 1.50167 4.6 1.80268 4.1C2.10368 3.6 2.40468 3.1 2.80602 2.7C3.20736 2.3 3.70903 2 4.2107 1.7C4.71237 1.4 5.31438 1.3 5.91639 1.2C6.51839 1.1 7.1204 1 7.82274 1H8.72575H111.87H112.773C113.375 1 113.977 1.1 114.679 1.2C115.281 1.3 115.783 1.5 116.385 1.7C117.388 2.2 118.291 3.1 118.793 4.1C119.094 4.6 119.194 5.2 119.294 5.7C119.395 6.3 119.495 7 119.495 7.6C119.495 7.9 119.495 8.2 119.495 8.5C119.495 8.9 119.495 9.2 119.495 9.6V30.5C119.495 30.9 119.495 31.2 119.495 31.6C119.495 31.9 119.495 32.2 119.495 32.5C119.495 33.1 119.395 33.7 119.294 34.4C119.194 35 118.993 35.5 118.793 36.1C118.492 36.6 118.191 37.1 117.789 37.5C117.388 37.9 116.886 38.3 116.385 38.5C115.883 38.8 115.281 39 114.679 39C114.077 39.1 113.475 39.2 112.773 39.2C112.472 39.2 112.171 39.2 111.87 39.2H110.766H8.62542Z" fill="black"/>
<path d="M24.8533 20.4225C24.8533 18.7225 25.7563 17.1225 27.2613 16.2225C26.3583 14.9225 24.8533 14.1225 23.2479 14.0225C21.5422 13.8225 19.9369 15.0225 19.0339 15.0225C18.1308 15.0225 16.8265 14.0225 15.4218 14.0225C13.5155 14.1225 11.8098 15.1225 10.9068 16.7225C9.00041 20.0225 10.4051 25.0225 12.3114 27.7225C13.2145 29.0225 14.3181 30.5225 15.7228 30.5225C17.1275 30.4225 17.6292 29.6225 19.3349 29.6225C21.0405 29.6225 21.4419 30.5225 22.9469 30.5225C24.4519 30.5225 25.3549 29.2225 26.2579 27.8225C26.9603 26.9225 27.462 25.8225 27.763 24.7225C25.9569 24.1225 24.8533 22.3225 24.8533 20.4225Z" fill="white"/>
<path d="M22.2259 12.5C23.0285 11.5 23.4299 10.3 23.3295 9C22.1255 9.1 20.9215 9.7 20.1188 10.7C19.3162 11.6 18.9148 12.8 19.0152 14.1C20.3195 14.1 21.4232 13.5 22.2259 12.5Z" fill="white"/>
<path d="M42.8261 27H38.1104L37.0067 30.4H35L39.5151 18H41.5217L46.0368 30.4H44.0301L42.8261 27ZM38.612 25.5H42.4248L40.5184 20H40.4181L38.612 25.5Z" fill="white"/>
<path d="M55.5284 25.6038C55.5284 28.4038 54.0234 30.2038 51.7157 30.2038C50.5117 30.3038 49.408 29.6038 48.9064 28.6038V33.1038H47V21.1038H48.806V22.6038C49.408 21.6038 50.5117 21.0038 51.7157 21.0038C53.9231 20.9038 55.5284 22.8038 55.5284 25.6038ZM53.5217 25.6038C53.5217 23.8038 52.6187 22.6038 51.1137 22.6038C49.709 22.6038 48.7057 23.8038 48.7057 25.6038C48.7057 27.4038 49.709 28.6038 51.1137 28.6038C52.6187 28.6038 53.5217 27.4038 53.5217 25.6038Z" fill="white"/>
<path d="M65.5284 25.6038C65.5284 28.4038 64.0234 30.2038 61.7157 30.2038C60.5117 30.3038 59.408 29.6038 58.9064 28.6038V33.1038H57V21.1038H58.806V22.6038C59.408 21.6038 60.5117 21.0038 61.7157 21.0038C64.0234 20.9038 65.5284 22.8038 65.5284 25.6038ZM63.6221 25.6038C63.6221 23.8038 62.7191 22.6038 61.214 22.6038C59.8094 22.6038 58.806 23.8038 58.806 25.6038C58.806 27.4038 59.8094 28.6038 61.214 28.6038C62.7191 28.6038 63.6221 27.4038 63.6221 25.6038Z" fill="white"/>
<path d="M72.7057 27.1C72.806 28.3 74.01 29.1 75.7157 29.1C77.3211 29.1 78.4248 28.3 78.4248 27.2C78.4248 26.2 77.7224 25.7 76.1171 25.3L74.5117 24.9C72.204 24.3 71.2007 23.3 71.2007 21.6C71.2007 19.5 73.107 18 75.7157 18C78.3244 18 80.1304 19.5 80.2308 21.6H78.3244C78.2241 20.4 77.2207 19.6 75.7157 19.6C74.2107 19.6 73.2074 20.4 73.2074 21.5C73.2074 22.4 73.9097 22.9 75.5151 23.3L76.9197 23.6C79.4281 24.2 80.5318 25.2 80.5318 27C80.5318 29.3 78.6254 30.8 75.7157 30.8C72.9064 30.8 71.1003 29.4 71 27.1H72.7057Z" fill="white"/>
<path d="M84.1104 19V21.1H85.8161V22.6H84.1104V27.6C84.1104 28.4 84.4114 28.7 85.2141 28.7C85.4147 28.7 85.6154 28.7 85.8161 28.7V30.2C85.5151 30.3 85.1137 30.3 84.8127 30.3C83.0067 30.3 82.3044 29.6 82.3044 27.9V22.7H81V21.2H82.3044V19.1H84.1104V19Z" fill="white"/>
<path d="M87 26.6C87 23.8 88.7057 22 91.3144 22C93.9231 22 95.6288 23.8 95.6288 26.6C95.6288 29.5 93.9231 31.2 91.3144 31.2C88.6054 31.2 87 29.4 87 26.6ZM93.7224 26.6C93.7224 24.6 92.8194 23.5 91.3144 23.5C89.8094 23.5 88.9064 24.6 88.9064 26.6C88.9064 28.6 89.8094 29.7 91.3144 29.7C92.8194 29.7 93.7224 28.5 93.7224 26.6Z" fill="white"/>
<path d="M97 21.0095H98.806V22.6095C99.0067 21.6095 100.01 20.9095 101.013 21.0095C101.214 21.0095 101.415 21.0095 101.615 21.1095V22.8095C101.314 22.7095 101.013 22.7095 100.813 22.7095C99.8094 22.7095 98.9064 23.5095 98.9064 24.5095C98.9064 24.6095 98.9064 24.7095 98.9064 24.8095V30.2095H97V21.0095Z" fill="white"/>
<path d="M110.227 27.5C110.027 29.1 108.321 30.3 106.314 30.3C103.706 30.3 102 28.5 102 25.7C102 22.9 103.605 21 106.214 21C108.722 21 110.328 22.7 110.328 25.5V26.1H103.906V26.2C103.806 27.5 104.709 28.6 106.013 28.8C106.114 28.8 106.214 28.8 106.314 28.8C107.217 28.9 108.12 28.4 108.421 27.5H110.227ZM103.906 24.8H108.421C108.522 23.6 107.518 22.6 106.314 22.5C106.214 22.5 106.214 22.5 106.114 22.5C104.91 22.5 103.906 23.5 103.906 24.8Z" fill="white"/>
<path d="M38.2074 8.1C39.7124 8 40.9164 9.1 41.0167 10.5C41.0167 10.7 41.0167 10.8 41.0167 11C41.0167 12.9 40.0134 14 38.2074 14H36V8H38.2074V8.1ZM37.0033 13.3H38.107C39.1104 13.4 40.0134 12.6 40.1137 11.5C40.1137 11.4 40.1137 11.2 40.1137 11.1C40.214 10.1 39.5117 9.1 38.5084 9C38.408 9 38.3077 9 38.107 9H37.0033V13.3Z" fill="white"/>
<path d="M42.0084 12.3084C41.9081 11.1084 42.7108 10.1084 43.9148 10.0084C45.1188 9.90842 46.1222 10.7084 46.2225 11.9084C46.2225 12.0084 46.2225 12.2084 46.2225 12.3084C46.3228 13.5084 45.5202 14.5084 44.3161 14.6084C43.1121 14.7084 42.1088 13.9084 42.0084 12.7084C42.0084 12.6084 42.0084 12.5084 42.0084 12.3084ZM45.3195 12.3084C45.3195 11.3084 44.9181 10.8084 44.1155 10.8084C43.3128 10.8084 42.9115 11.4084 42.9115 12.3084C42.9115 13.3084 43.3128 13.9084 44.1155 13.9084C44.9181 13.9084 45.3195 13.3084 45.3195 12.3084Z" fill="white"/>
<path d="M51.9164 14.5H51.0134L50.1104 11.2H50.01L49.107 14.5H48.204L47 10H47.903L48.7057 13.4H48.806L49.709 10H50.612L51.5151 13.4H51.6154L52.4181 10H53.3211L51.9164 14.5Z" fill="white"/>
<path d="M54 10.1109H54.903V10.8109H55.0033C55.204 10.3109 55.806 10.0109 56.3077 10.0109C57.1104 9.91086 57.8127 10.5109 57.913 11.4109C57.913 11.5109 57.913 11.6109 57.913 11.7109V14.6109H57.01V11.9109C57.01 11.2109 56.709 10.8109 56.0067 10.8109C55.4047 10.8109 54.903 11.2109 54.903 11.8109C54.903 11.9109 54.903 11.9109 54.903 12.0109V14.6109H54V10.1109Z" fill="white"/>
<path d="M60 8H60.903V14.3H60V8Z" fill="white"/>
<path d="M62.0084 12.3084C61.9081 11.1084 62.7108 10.1084 63.9148 10.0084C65.1188 9.90842 66.1222 10.7084 66.2225 11.9084C66.2225 12.0084 66.2225 12.2084 66.2225 12.3084C66.3228 13.5084 65.5202 14.5084 64.3161 14.6084C63.1121 14.7084 62.1088 13.9084 62.0084 12.7084C62.0084 12.6084 62.0084 12.5084 62.0084 12.3084ZM65.4198 12.3084C65.4198 11.3084 65.0185 10.8084 64.2158 10.8084C63.4131 10.8084 63.0118 11.4084 63.0118 12.3084C63.0118 13.3084 63.4131 13.9084 64.2158 13.9084C64.9181 13.9084 65.4198 13.3084 65.4198 12.3084Z" fill="white"/>
<path d="M67.1003 13.3C67.1003 12.5 67.7023 12 68.806 12L70.01 11.9V11.5C70.01 11 69.709 10.8 69.107 10.8C68.6053 10.8 68.3043 11 68.204 11.3H67.301C67.4013 10.5 68.1037 10 69.107 10C70.2107 10 70.913 10.6 70.913 11.5V14.6H70.01V14H69.9097C69.6087 14.5 69.107 14.7 68.505 14.7C67.8027 14.8 67.1003 14.2 67 13.5C67.1003 13.4 67.1003 13.4 67.1003 13.3ZM70.01 12.9V12.5L68.9063 12.6C68.3043 12.6 68.0033 12.9 68.0033 13.2C68.0033 13.6 68.4047 13.8 68.806 13.8C69.408 14 69.9097 13.6 70.01 12.9C70.01 13 70.01 13 70.01 12.9Z" fill="white"/>
<path d="M72 12C72 10.6 72.7023 9.7 73.9063 9.7C74.5084 9.7 75.01 10 75.311 10.5H75.4114V8H76.3144V14.3H75.4114V13.6H75.311C75.01 14.1 74.5084 14.4 73.9063 14.4C72.8027 14.4 72 13.5 72 12ZM73.0033 12C73.0033 13 73.505 13.5 74.2074 13.5C74.9097 13.5 75.4114 12.9 75.4114 12C75.4114 11.1 74.9097 10.5 74.2074 10.5C73.4047 10.5 73.0033 11.1 73.0033 12Z" fill="white"/>
<path d="M80.0084 12.3084C79.9081 11.1084 80.7108 10.1084 81.9148 10.0084C83.1188 9.90842 84.1222 10.7084 84.2225 11.9084C84.2225 12.0084 84.2225 12.2084 84.2225 12.3084C84.3228 13.5084 83.5202 14.5084 82.3161 14.6084C81.1121 14.7084 80.1088 13.9084 80.0084 12.7084C80.0084 12.6084 80.0084 12.5084 80.0084 12.3084ZM83.4198 12.3084C83.4198 11.3084 83.0185 10.8084 82.2158 10.8084C81.4131 10.8084 81.0118 11.4084 81.0118 12.3084C81.0118 13.3084 81.4131 13.9084 82.2158 13.9084C82.9182 13.9084 83.4198 13.3084 83.4198 12.3084Z" fill="white"/>
<path d="M85 10.1109H85.903V10.8109H86.0033C86.204 10.3109 86.806 10.0109 87.3077 10.0109C88.1104 9.91086 88.8127 10.5109 88.913 11.4109C88.913 11.5109 88.913 11.6109 88.913 11.7109V14.6109H88.01V11.9109C88.01 11.2109 87.709 10.8109 87.0067 10.8109C86.4047 10.8109 85.903 11.2109 85.903 11.8109C85.903 11.9109 85.903 11.9109 85.903 12.0109V14.6109H85V10.1109Z" fill="white"/>
<path d="M93.7057 9V10.1H94.709V10.9H93.7057V13.2C93.7057 13.7 93.9064 13.9 94.3077 13.9C94.408 13.9 94.5084 13.9 94.6087 13.9V14.6C94.408 14.6 94.3077 14.6 94.107 14.6C93.1037 14.6 92.7023 14.3 92.7023 13.4V10.9H92V10.2H92.7023V9H93.7057Z" fill="white"/>
<path d="M96 8H96.903V10.5H97.0033C97.204 10 97.806 9.6 98.408 9.7C99.2107 9.7 99.913 10.3 100.013 11.1C100.013 11.2 100.013 11.3 100.013 11.4V14.3H99.1104V11.6C99.1104 10.9 98.8094 10.5 98.107 10.5C97.505 10.5 97.0033 10.9 97.0033 11.5C97.0033 11.6 97.0033 11.6 97.0033 11.7V14.3H96.1003L96 8Z" fill="white"/>
<path d="M105.144 13.3C104.944 14.1 104.041 14.7 103.138 14.6C102.034 14.6 101.031 13.7 101.031 12.6C101.031 12.5 101.031 12.4 101.031 12.3C100.83 11.2 101.633 10.1 102.837 10C102.937 10 103.037 10 103.138 10C104.442 10 105.144 10.9 105.144 12.3V12.6H101.934C101.833 13.3 102.335 13.8 103.037 13.9H103.138C103.539 14 104.041 13.7 104.241 13.4L105.144 13.3ZM101.934 11.8H104.241C104.241 11.2 103.84 10.7 103.238 10.6H103.138C102.536 10.7 101.934 11.2 101.934 11.8Z" fill="white"/>
</svg>
