<svg width="40" height="40" viewBox="0 0 40 40" fill="none" xmlns="http://www.w3.org/2000/svg">
<path d="M38.88 6.88845C38.3666 5.56261 37.582 4.35858 36.5765 3.35342C35.5709 2.34827 34.3666 1.56414 33.0406 1.05123C31.4889 0.468745 29.8496 0.153784 28.1925 0.11976C26.0568 0.0266132 25.3803 0 19.9645 0C14.5487 0 13.8545 -2.222e-07 11.7365 0.11976C10.0807 0.152044 8.44257 0.467069 6.89288 1.05123C5.5665 1.56354 4.36186 2.34746 3.35625 3.35269C2.35064 4.35792 1.56626 5.56226 1.05345 6.88845C0.470847 8.44004 0.156608 10.0795 0.124196 11.7365C0.0288312 13.87 0 14.5465 0 19.9645C0 25.3804 -2.02e-08 26.0701 0.124196 28.1925C0.157463 29.8514 0.47017 31.4881 1.05345 33.0428C1.5677 34.3685 2.35284 35.5724 3.3587 36.5775C4.36455 37.5826 5.569 38.3668 6.8951 38.88C8.44186 39.4859 10.0807 39.8234 11.741 39.878C13.8767 39.9712 14.5531 40 19.969 40C25.3848 40 26.079 40 28.1969 39.878C29.8539 39.8443 31.4931 39.5301 33.045 38.9488C34.3707 38.4347 35.5747 37.6499 36.5801 36.6444C37.5855 35.639 38.3703 34.435 38.8844 33.1093C39.4677 31.5569 39.7804 29.9202 39.8137 28.2613C39.9091 26.1277 39.9379 25.4513 39.9379 20.0333C39.9379 14.6152 39.9379 13.9277 39.8137 11.8053C39.7879 10.1248 39.472 8.46141 38.88 6.88845Z" fill="#1E2843"/>
<path d="M19.7433 9.48828C17.0235 9.48828 14.4151 10.5687 12.4919 12.4919C10.5687 14.4151 9.48828 17.0235 9.48828 19.7433C9.48828 22.4631 10.5687 25.0715 12.4919 26.9947C14.4151 28.9179 17.0235 29.9984 19.7433 29.9984C22.4631 29.9984 25.0715 28.9179 26.9947 26.9947C28.9179 25.0715 29.9984 22.4631 29.9984 19.7433C29.9984 17.0235 28.9179 14.4151 26.9947 12.4919C25.0715 10.5687 22.4631 9.48828 19.7433 9.48828ZM19.7433 26.4033C17.9764 26.4033 16.2818 25.7014 15.0324 24.452C13.783 23.2026 13.0811 21.508 13.0811 19.7411C13.0811 17.9742 13.783 16.2796 15.0324 15.0302C16.2818 13.7808 17.9764 13.0789 19.7433 13.0789C21.5103 13.0789 23.2048 13.7808 24.4542 15.0302C25.7036 16.2796 26.4056 17.9742 26.4056 19.7411C26.4056 21.508 25.7036 23.2026 24.4542 24.452C23.2048 25.7014 21.5103 26.4033 19.7433 26.4033Z" fill="#D1F1FD"/>
<path d="M30.8576 11.5589C32.178 11.5589 33.2483 10.4885 33.2483 9.16812C33.2483 7.84773 32.178 6.77734 30.8576 6.77734C29.5372 6.77734 28.4668 7.84773 28.4668 9.16812C28.4668 10.4885 29.5372 11.5589 30.8576 11.5589Z" fill="#D1F1FD"/>
</svg>
