<svg width="917" height="516" viewBox="0 0 917 516" fill="none" xmlns="http://www.w3.org/2000/svg">
<path opacity="0.1" d="M290.042 381.536V447.072H251.642V508H180.474V447.072H11.002V381.536L130.298 149.6H206.074L87.29 381.536H180.474V296.544H251.642V381.536H290.042ZM458.53 515.168C413.815 515.168 378.658 498.272 353.058 464.48C327.799 430.347 315.17 385.12 315.17 328.8C315.17 272.48 327.799 227.424 353.058 193.632C378.658 159.499 413.815 142.432 458.53 142.432C503.586 142.432 538.743 159.499 564.002 193.632C589.261 227.424 601.89 272.48 601.89 328.8C601.89 385.12 589.261 430.347 564.002 464.48C538.743 498.272 503.586 515.168 458.53 515.168ZM404.258 416.352C416.546 436.149 434.637 446.048 458.53 446.048C482.423 446.048 500.514 435.979 512.802 415.84C525.431 395.701 531.746 366.688 531.746 328.8C531.746 290.571 525.431 261.387 512.802 241.248C500.514 221.109 482.423 211.04 458.53 211.04C434.637 211.04 416.546 221.109 404.258 241.248C391.97 261.387 385.826 290.571 385.826 328.8C385.826 367.029 391.97 396.213 404.258 416.352ZM909.542 381.536V447.072H871.142V508H799.974V447.072H630.502V381.536L749.798 149.6H825.574L706.79 381.536H799.974V296.544H871.142V381.536H909.542Z" fill="#78BBD4"/>
</svg>
