<svg width="24" height="24" viewBox="0 0 24 24" fill="none" xmlns="http://www.w3.org/2000/svg">
<path d="M19.665 16.812C19.3881 17.4575 19.046 18.073 18.644 18.649C18.107 19.416 17.666 19.946 17.328 20.241C16.803 20.723 16.239 20.971 15.636 20.985C15.204 20.985 14.682 20.862 14.074 20.612C13.464 20.363 12.904 20.241 12.391 20.241C11.854 20.241 11.278 20.363 10.661 20.612C10.045 20.862 9.54702 20.993 9.16602 21.005C8.58902 21.03 8.01202 20.776 7.43702 20.241C7.07002 19.921 6.61102 19.371 6.06002 18.593C5.47002 17.764 4.98502 16.799 4.60502 15.702C4.19802 14.515 3.99402 13.367 3.99402 12.255C3.99402 10.982 4.26902 9.883 4.82002 8.963C5.23677 8.24047 5.83257 7.63743 6.55002 7.212C7.25749 6.78767 8.06511 6.55919 8.89002 6.55C9.35002 6.55 9.95302 6.692 10.7 6.972C11.447 7.252 11.927 7.394 12.136 7.394C12.294 7.394 12.825 7.227 13.729 6.896C14.582 6.589 15.302 6.462 15.892 6.512C17.492 6.641 18.693 7.271 19.492 8.407C18.062 9.274 17.355 10.487 17.369 12.044C17.381 13.257 17.822 14.266 18.686 15.067C19.068 15.4325 19.5137 15.725 20.001 15.93C19.895 16.237 19.783 16.53 19.665 16.812ZM15.998 2.381C15.998 3.331 15.65 4.219 14.959 5.04C14.123 6.016 13.113 6.581 12.018 6.492C12.0037 6.37254 11.9967 6.25232 11.997 6.132C11.997 5.219 12.393 4.243 13.1 3.444C13.452 3.04 13.9 2.703 14.443 2.435C14.985 2.171 15.497 2.025 15.979 2C15.992 2.128 15.998 2.255 15.998 2.381Z" fill="black"/>
</svg>
