<svg width="46" height="46" viewBox="0 0 46 46" fill="none" xmlns="http://www.w3.org/2000/svg">
<path d="M38.3327 23V42.1667H7.66602V23" stroke="#FF5134" stroke-width="2" stroke-linecap="round" stroke-linejoin="round"/>
<path d="M42.1654 13.418H3.83203V23.0013H42.1654V13.418Z" stroke="#FF5134" stroke-width="2" stroke-linecap="round" stroke-linejoin="round"/>
<path d="M23 42.168V13.418" stroke="#FF5134" stroke-width="2" stroke-linecap="round" stroke-linejoin="round"/>
<path d="M22.9987 13.4154H14.3737C13.1029 13.4154 11.8841 12.9105 10.9855 12.0119C10.0869 11.1133 9.58203 9.89453 9.58203 8.6237C9.58203 7.35287 10.0869 6.13409 10.9855 5.23548C11.8841 4.33687 13.1029 3.83203 14.3737 3.83203C21.082 3.83203 22.9987 13.4154 22.9987 13.4154Z" stroke="#FF5134" stroke-width="2" stroke-linecap="round" stroke-linejoin="round"/>
<path d="M23 13.4154H31.625C32.8958 13.4154 34.1146 12.9105 35.0132 12.0119C35.9118 11.1133 36.4167 9.89453 36.4167 8.6237C36.4167 7.35287 35.9118 6.13409 35.0132 5.23548C34.1146 4.33687 32.8958 3.83203 31.625 3.83203C24.9167 3.83203 23 13.4154 23 13.4154Z" stroke="#FF5134" stroke-width="2" stroke-linecap="round" stroke-linejoin="round"/>
</svg>
