<svg width="45" height="30" viewBox="0 0 45 30" fill="none" xmlns="http://www.w3.org/2000/svg">
<path d="M16.6391 18.4531H9.36614C8.82064 18.4531 8.45703 18.8168 8.45703 19.3622C8.45703 19.9076 8.82072 20.2713 9.36614 20.2713H16.6392C17.1847 20.2713 17.5483 19.9076 17.5483 19.3622C17.5483 18.8168 17.1846 18.4531 16.6391 18.4531Z" fill="white"/>
<path d="M13.9126 13.9102H6.63957C6.09408 13.9102 5.73047 14.2738 5.73047 14.8193C5.73047 15.3647 6.09416 15.7284 6.63957 15.7284H13.9126C14.4581 15.7284 14.8217 15.3647 14.8217 14.8193C14.8217 14.2738 14.4581 13.9102 13.9126 13.9102Z" fill="white"/>
<path d="M11.1822 9.36328H3.9091C3.36369 9.36328 3 9.72689 3 10.2724C3 10.8179 3.36369 11.1815 3.9091 11.1815H11.1822C11.7277 11.1815 12.0913 10.8178 12.0913 10.2724C12.0913 9.72697 11.7277 9.36328 11.1822 9.36328Z" fill="white"/>
<path d="M39.1855 7.00076C38.9127 6.63707 38.2764 6.54621 37.9127 6.81895L28.2759 14.183C27.2759 14.9103 25.9122 14.9103 24.9121 14.183L15.2753 6.81895C14.9117 6.54621 14.2753 6.54621 14.0025 7.00076C13.7298 7.36445 13.7298 8.0008 14.1844 8.27355L23.9121 15.6376C24.7303 16.2739 25.7303 16.5467 26.6395 16.5467C27.5486 16.5467 28.6395 16.2739 29.3668 15.6376L39.0037 8.27355C39.3674 8.0008 39.4582 7.36445 39.1855 7.00076Z" fill="white"/>
<path d="M40.2787 3H11.1864C10.641 3 10.2773 3.36369 10.2773 3.9091C10.2773 4.45452 10.641 4.81829 11.1864 4.81829H40.2787C40.8242 4.81829 41.1878 5.18197 41.1878 5.72739V23.91C41.1878 24.4555 40.8241 24.8191 40.2787 24.8191H11.1864C10.641 24.8191 10.2773 25.1828 10.2773 25.7282C10.2773 26.2737 10.641 26.6373 11.1864 26.6373H40.2787C41.8243 26.6373 43.0061 25.4555 43.0061 23.9099V5.72739C43.0061 4.18193 41.8243 3 40.2787 3Z" fill="white"/>
<path d="M39.0941 21.4541L33.6393 15.9993C33.2756 15.6356 32.7302 15.6356 32.3665 15.9993C32.0028 16.363 32.0028 16.9084 32.3665 17.2721L37.8213 22.7269C38.0031 22.9087 38.2758 22.9996 38.4577 22.9996C38.6395 22.9996 38.9122 22.9087 39.0941 22.7269C39.4577 22.3633 39.4577 21.8178 39.0941 21.4541Z" fill="white"/>
</svg>
