<svg width="24" height="24" viewBox="0 0 24 24" fill="none" xmlns="http://www.w3.org/2000/svg">
<path d="M18.8772 5.91599L18.8773 5.91591L19.2609 6.04479C19.4878 6.12104 19.751 6.07641 19.944 5.90622C19.9441 5.9061 19.9442 5.90598 19.9444 5.90586M18.8772 5.91599L18.5543 4.33515C19.1321 3.82408 20.0176 3.87834 20.5287 4.45612C21.0398 5.0339 20.9855 5.91947 20.4077 6.43054L19.9444 5.90586M18.8772 5.91599L18.7974 5.52193C18.7492 5.28347 18.8265 5.02937 19.0181 4.85947M18.8772 5.91599L19.0181 4.85947M19.9444 5.90586C20.2322 5.65087 20.2592 5.20797 20.0044 4.9199C19.7495 4.6317 19.3063 4.60454 19.0181 4.85945M19.9444 5.90586L19.0181 4.85945M19.0181 4.85945C19.0181 4.85945 19.0181 4.85946 19.0181 4.85947M19.0181 4.85945L19.0181 4.85947M21.2862 12.918L21.106 12.558L21.3288 12.2227C21.464 12.0192 21.6985 11.8944 21.9541 11.9101C22.3381 11.9336 22.6321 12.266 22.6086 12.6501C22.5851 13.0342 22.2527 13.3282 21.8686 13.3046C21.613 13.289 21.3955 13.1365 21.2862 12.918ZM18.6388 11.7725L18.6601 12.4082L18.5614 13.0364C18.3499 14.3825 17.7369 15.5865 16.8531 16.5307L16.4184 16.9952L15.9042 17.37C14.8592 18.1319 13.5894 18.5933 12.2276 18.6389L11.592 18.6602L10.9637 18.5615C9.61758 18.35 8.41366 17.737 7.46942 16.8532L7.00492 16.4185L6.63012 15.9044C5.86822 14.8593 5.4068 13.5895 5.36121 12.2277L5.33993 11.592L5.43864 10.9638C5.65015 9.61767 6.26313 8.41373 7.14691 7.4695L7.58167 7.005L8.09577 6.63019C9.14083 5.86829 10.4106 5.40687 11.7724 5.36128L12.4081 5.34L13.0363 5.43872C14.3824 5.65022 15.5864 6.2632 16.5306 7.14698L16.9951 7.58174L17.3699 8.09585C18.1318 9.14091 18.5932 10.4107 18.6388 11.7725ZM17.9558 19.2596L18.0833 18.8775L18.4782 18.7976C18.7166 18.7493 18.9707 18.8266 19.1406 19.0182C19.3956 19.3064 19.3684 19.7496 19.0802 20.0045C18.7917 20.2597 18.3488 20.2319 18.0942 19.9444C17.9245 19.7524 17.8787 19.4905 17.9558 19.2596ZM11.0821 21.2863L11.4421 21.1061L11.7774 21.3289C11.9809 21.4641 12.1057 21.6986 12.09 21.9542C12.0665 22.3383 11.7341 22.6323 11.35 22.6087C10.966 22.5852 10.672 22.2528 10.6955 21.8687C10.7111 21.6132 10.8636 21.3956 11.0821 21.2863ZM4.74049 17.9559L5.12266 18.0834L5.20258 18.4783C5.25086 18.7169 5.17348 18.9711 4.98162 19.141C4.69378 19.3953 4.25079 19.3688 3.99562 19.0803C3.74078 18.7922 3.76782 18.3492 4.05574 18.0943C4.24776 17.9246 4.5096 17.8788 4.74049 17.9559ZM2.71384 11.0822L2.89401 11.4422L2.67124 11.7775C2.53606 11.981 2.30154 12.1058 2.04596 12.0901C1.66188 12.0666 1.36788 11.7342 1.39141 11.3501C1.41494 10.966 1.74732 10.672 2.1314 10.6956C2.38698 10.7112 2.60451 10.8637 2.71384 11.0822ZM6.04425 4.74058L5.917 5.12195L5.9169 5.12183L5.52041 5.20295C5.28576 5.25095 5.02994 5.17436 4.85917 4.98176C4.60448 4.69354 4.6317 4.25055 4.91983 3.99569C5.20799 3.7408 5.65108 3.7679 5.90603 4.05599C6.07554 4.24799 6.12129 4.50971 6.04425 4.74058ZM12.9179 2.71391L12.5579 2.89408L12.2226 2.67131C12.0191 2.53613 11.8943 2.30161 11.91 2.04602C11.9335 1.66193 12.2659 1.36794 12.65 1.39147C13.0341 1.415 13.3281 1.74738 13.3045 2.13147C13.2889 2.38705 13.1364 2.60458 12.9179 2.71391Z" stroke="#FF5134" stroke-width="1.4"/>
<line x1="8.92922" y1="18.386" x2="15.9876" y2="4.26919" stroke="#FFF4E1" stroke-width="3" stroke-linecap="round"/>
<line x1="8.08697" y1="19.4593" x2="15.8609" y2="3.91142" stroke="#FF5134" stroke-width="1.4" stroke-linecap="round"/>
</svg>
