<svg width="24" height="24" viewBox="0 0 24 24" fill="none" xmlns="http://www.w3.org/2000/svg">
<path d="M6.16762 17.1587L5.91318 17.0738C5.75866 17.0223 5.58443 17.0532 5.45691 17.1658C5.26513 17.3355 5.24707 17.631 5.41678 17.8229C5.58661 18.0149 5.88198 18.0327 6.07371 17.8634C6.07381 17.8634 6.07392 17.8633 6.07402 17.8632M6.16762 17.1587L6.07402 17.8632M6.16762 17.1587L6.22083 17.4216C6.25314 17.5813 6.20122 17.7503 6.07402 17.8632M6.16762 17.1587L6.07402 17.8632M17.4616 5.61261L17.9254 6.13693C18.1173 5.96718 18.4128 5.98529 18.5826 6.1772C18.7523 6.36901 18.7343 6.6644 18.5426 6.83419C18.4142 6.94751 18.2388 6.97753 18.0876 6.92671L17.8316 6.84073L17.7785 6.57845C17.7462 6.41869 17.7982 6.2495 17.9257 6.13665L17.4616 5.61261ZM17.4616 5.61261C17.1394 5.89789 17.0127 6.32315 17.0925 6.7173L19.2165 13.026C19.3966 13.3859 19.7581 13.6431 20.1878 13.6694C20.8295 13.7087 21.3831 13.219 21.4224 12.5774C21.4617 11.9357 20.972 11.3821 20.3304 11.3428C19.9007 11.3165 19.5104 11.5275 19.2878 11.8627L18.115 11.7909C18.073 10.5353 17.6474 9.36498 16.9459 8.40287L17.8646 7.59026C18.2437 7.71763 18.6829 7.64419 19.0061 7.35876C19.4876 6.93287 19.5328 6.1949 19.1069 5.71342C18.681 5.23193 17.9431 5.18672 17.4616 5.61261ZM19.8425 12.7128L19.7226 12.4732L19.8708 12.2501C19.9614 12.1137 20.1179 12.0311 20.2876 12.0415C20.5433 12.0571 20.7394 12.2788 20.7237 12.5346C20.708 12.7903 20.4864 12.9864 20.2306 12.9707C20.061 12.9603 19.9158 12.8592 19.8425 12.7128ZM17.4154 11.8143L17.4328 12.3329L17.3522 12.8455C17.1797 13.9434 16.6798 14.9254 15.9587 15.6958L15.604 16.0748L15.1845 16.3807C14.3318 17.0023 13.2962 17.3786 12.1854 17.4158L11.6668 17.4331L11.1542 17.3526C10.0563 17.1801 9.07431 16.6802 8.30394 15.9591L7.92491 15.6044L7.61907 15.1848C6.99746 14.3322 6.62116 13.2965 6.58398 12.1858L6.56662 11.6672L6.64716 11.1546C6.81966 10.0567 7.31958 9.07466 8.04063 8.30429L8.39539 7.92525L8.8149 7.61941C9.66753 6.9978 10.7032 6.6215 11.814 6.58432L12.3326 6.56696L12.8452 6.6475C13.9431 6.82 14.9251 7.31993 15.6954 8.04097L16.0745 8.39574L16.3803 8.81524C17.0019 9.66788 17.3782 10.7036 17.4154 11.8143ZM17.0735 18.0866L17.1584 17.8321L17.4213 17.7789C17.5809 17.7466 17.7499 17.7985 17.8628 17.9257C18.0325 18.1176 18.0144 18.4132 17.8225 18.583C17.6304 18.7529 17.3349 18.7344 17.1653 18.5427C17.0528 18.4152 17.0219 18.241 17.0735 18.0866ZM11.287 19.8428L11.5265 19.723L11.7496 19.8712C11.8861 19.9618 11.9686 20.1183 11.9583 20.2879C11.9426 20.5437 11.7209 20.7398 11.4652 20.7241C11.2094 20.7084 11.0134 20.4868 11.029 20.231C11.0394 20.0614 11.1405 19.9161 11.287 19.8428ZM4.15691 11.2873L4.2768 11.5269L4.12857 11.75C4.03793 11.8864 3.88145 11.969 3.71182 11.9586C3.45606 11.9429 3.26 11.7213 3.27567 11.4655C3.29134 11.2098 3.51299 11.0137 3.76875 11.0294C3.93838 11.0398 4.08361 11.1409 4.15691 11.2873ZM6.92591 5.91354L6.84122 6.16734L6.57666 6.22147C6.42041 6.25344 6.24998 6.2022 6.13637 6.07412C5.96685 5.8822 5.98503 5.5868 6.17686 5.41712C6.36869 5.24743 6.66412 5.26546 6.8339 5.45716C6.94651 5.58469 6.97749 5.75893 6.92591 5.91354ZM12.7124 4.15725L12.4729 4.27713L12.2497 4.1289C12.1133 4.03827 12.0307 3.88179 12.0411 3.71215C12.0568 3.45639 12.2784 3.26033 12.5342 3.276C12.7899 3.29167 12.986 3.51332 12.9703 3.76908C12.9599 3.93872 12.8589 4.08395 12.7124 4.15725Z" stroke="#B7BCCA" stroke-width="1.4"/>
<line x1="9.68695" y1="19.0609" x2="16.0609" y2="6.31305" stroke="white" stroke-width="1.4" stroke-linecap="round"/>
<line x1="8.68695" y1="18.0609" x2="15.0609" y2="5.31305" stroke="#B7BCCA" stroke-width="1.4" stroke-linecap="round"/>
</svg>
