<svg width="20" height="20" viewBox="0 0 20 20" fill="none" xmlns="http://www.w3.org/2000/svg">
<path d="M14.1588 11.1288L14.1586 11.1286C13.3497 12.0081 11.8359 12.5231 10.2365 12.5236L10.2364 12.5236C10.1343 12.5236 10.0296 12.4996 9.94207 12.4479C9.86012 12.3995 9.75 12.2967 9.75 12.1339C9.75 11.9711 9.86012 11.8684 9.94207 11.8199C10.0296 11.7682 10.1342 11.7443 10.2363 11.7443L14.1588 11.1288ZM14.1588 11.1288L14.1648 11.1217M14.1588 11.1288L14.1648 11.1217M14.1648 11.1217C14.2529 11.0185 14.2786 10.8751 14.2141 10.7456M14.1648 11.1217L14.2141 10.7456M13.3824 10.6493L13.3826 10.6494C13.466 10.5655 13.5761 10.5281 13.6663 10.5142C13.7605 10.4998 13.8664 10.5056 13.9653 10.5399L13.3824 10.6493ZM13.3824 10.6493L13.3758 10.6565M13.3824 10.6493L13.3758 10.6565M13.3758 10.6565C12.7781 11.3062 11.5827 11.7437 10.2364 11.7443L13.3758 10.6565ZM14.2141 10.7456C14.1587 10.6344 14.0562 10.5715 13.9654 10.54L14.2141 10.7456Z" fill="#1E2843" stroke="#1E2843" stroke-width="0.5"/>
<path d="M18.25 10.9325L18.25 9.06602C18.25 7.2958 17.3033 5.71124 15.8083 4.5775C14.3135 3.44389 12.2596 2.75 10.0013 2.75C7.74301 2.75 5.6891 3.44389 4.19431 4.5775C2.69935 5.71124 1.75261 7.29579 1.75261 9.06602L1.75261 10.9325C1.7526 13.541 2.78588 15.3832 4.35072 16.566C5.90576 17.7414 7.9637 18.25 10.0013 18.25C12.5272 18.25 14.5951 17.7458 16.0342 16.5595C17.4828 15.3652 18.25 13.517 18.25 10.9325ZM2.86789 9.0664C2.87011 7.61588 3.64565 6.28482 4.93403 5.30775C6.22254 4.33057 8.01301 3.71839 10.0014 3.71662C11.9907 3.71663 13.7823 4.32844 15.0711 5.30584C16.3598 6.28312 17.1347 7.61492 17.1347 9.06602C17.1347 10.5171 16.3598 11.8489 15.0711 12.8262C13.7823 13.8036 11.9907 14.4154 10.0013 14.4154C8.01194 14.4154 6.22032 13.8036 4.9315 12.8262C3.64296 11.849 2.86803 10.5173 2.86789 9.0664ZM5.09026 16.0181C3.96811 15.2449 3.15934 14.0688 2.95304 12.3507C3.91095 13.5613 5.34008 14.4468 6.95907 14.9379C8.90602 15.5285 11.1484 15.5559 13.2288 14.8798C14.8205 14.3624 16.1596 13.4749 17.0552 12.3423C16.8937 14.0619 16.2392 15.2235 15.2108 15.9871C14.0012 16.8852 12.2304 17.2668 9.99945 17.2834C8.19117 17.2968 6.41092 16.9282 5.09026 16.0181Z" fill="#1E2843" stroke="#1E2843" stroke-width="0.5"/>
</svg>
