<svg width="20" height="20" viewBox="0 0 20 20" fill="none" xmlns="http://www.w3.org/2000/svg">
<path d="M5.46329 14.9997C5.46329 15.7146 6.04468 16.296 6.75958 16.296H13.2411C13.956 16.296 14.5374 15.7146 14.5374 14.9997V7.2219H15.8337V5.9256H13.8892H13.2411V4.6293C13.2411 3.9144 12.6597 3.33301 11.9448 3.33301H8.05588C7.34097 3.33301 6.75958 3.9144 6.75958 4.6293V5.9256H6.11144H4.16699V7.2219H5.46329V14.9997ZM8.05588 4.6293H11.9448V5.9256H8.05588V4.6293ZM7.40773 7.2219H12.5929H13.2411L13.2417 14.9997H6.75958V7.2219H7.40773Z" fill="#D6DAE4"/>
<path d="M8.05469 8.51855H9.35098V13.7037H8.05469V8.51855ZM10.6473 8.51855H11.9436V13.7037H10.6473V8.51855Z" fill="#D6DAE4"/>
</svg>
