<svg width="20" height="20" viewBox="0 0 20 20" fill="none" xmlns="http://www.w3.org/2000/svg">
<path d="M5.46329 14.9987C5.46329 15.7136 6.04468 16.295 6.75958 16.295H13.2411C13.956 16.295 14.5374 15.7136 14.5374 14.9987V7.22092H15.8337V5.92462H13.8892H13.2411V4.62833C13.2411 3.91342 12.6597 3.33203 11.9448 3.33203H8.05588C7.34097 3.33203 6.75958 3.91342 6.75958 4.62833V5.92462H6.11144H4.16699V7.22092H5.46329V14.9987ZM8.05588 4.62833H11.9448V5.92462H8.05588V4.62833ZM7.40773 7.22092H12.5929H13.2411L13.2417 14.9987H6.75958V7.22092H7.40773Z" fill="#B7BCCA"/>
<path d="M8.05469 8.51562H9.35098V13.7008H8.05469V8.51562ZM10.6473 8.51562H11.9436V13.7008H10.6473V8.51562Z" fill="#B7BCCA"/>
</svg>
