<svg width="11" height="14" viewBox="0 0 11 14" fill="none" xmlns="http://www.w3.org/2000/svg">
<path d="M5.5 0C3.60456 0 2.0625 1.5701 2.0625 3.5V4.9H1.375C0.616687 4.9 0 5.5279 0 6.3V12.6C0 13.3721 0.616687 14 1.375 14H9.625C10.3833 14 11 13.3721 11 12.6V6.3C11 5.5279 10.3833 4.9 9.625 4.9H8.9375V3.5C8.9375 1.5701 7.39544 0 5.5 0ZM3.4375 3.5C3.4375 2.3422 4.36287 1.4 5.5 1.4C6.63713 1.4 7.5625 2.3422 7.5625 3.5V4.9H3.4375V3.5ZM9.62638 12.6H6.1875V11.0054C6.59656 10.7625 6.875 10.3159 6.875 9.8C6.875 9.0279 6.25831 8.4 5.5 8.4C4.74169 8.4 4.125 9.0279 4.125 9.8C4.125 10.3152 4.40344 10.7625 4.8125 11.0054V12.6H1.375V6.3H9.625L9.62638 12.6Z" fill="#00875F"/>
</svg>
