<svg width="24" height="24" viewBox="0 0 24 24" fill="none" xmlns="http://www.w3.org/2000/svg">
<path d="M20.2501 21.0001C20.1516 21.0003 20.054 20.9809 19.963 20.9432C19.872 20.9054 19.7894 20.8501 19.7199 20.7803L3.21994 4.28025C3.08522 4.13845 3.01123 3.94964 3.01373 3.75407C3.01624 3.5585 3.09504 3.37164 3.23334 3.23334C3.37164 3.09504 3.5585 3.01624 3.75407 3.01373C3.94964 3.01123 4.13845 3.08522 4.28025 3.21994L20.7803 19.7199C20.8851 19.8248 20.9564 19.9584 20.9854 20.1039C21.0143 20.2493 20.9994 20.4001 20.9427 20.5371C20.8859 20.6741 20.7899 20.7912 20.6666 20.8736C20.5433 20.956 20.3984 21 20.2501 21.0001Z" fill="#B1B6C1"/>
<path d="M11.6245 14.8064L9.19687 12.3787C9.18296 12.365 9.16508 12.3559 9.14574 12.3528C9.1264 12.3496 9.10656 12.3527 9.08903 12.3614C9.0715 12.3702 9.05714 12.3842 9.04799 12.4015C9.03883 12.4188 9.03532 12.4386 9.03797 12.458C9.13598 13.0878 9.43171 13.6701 9.88242 14.1209C10.3331 14.5716 10.9155 14.8673 11.5453 14.9653C11.5647 14.968 11.5845 14.9645 11.6018 14.9553C11.6191 14.9461 11.6331 14.9318 11.6419 14.9142C11.6506 14.8967 11.6536 14.8769 11.6505 14.8575C11.6474 14.8382 11.6383 14.8203 11.6245 14.8064Z" fill="#B1B6C1"/>
<path d="M12.3751 9.19516L14.8065 11.6256C14.8204 11.6396 14.8383 11.6489 14.8577 11.6521C14.8772 11.6553 14.8971 11.6523 14.9148 11.6436C14.9324 11.6348 14.9469 11.6207 14.956 11.6032C14.9652 11.5858 14.9686 11.5659 14.9659 11.5464C14.8681 10.9157 14.5722 10.3325 14.1209 9.88124C13.6696 9.42996 13.0864 9.13401 12.4557 9.03625C12.4362 9.03324 12.4162 9.03647 12.3986 9.0455C12.381 9.05452 12.3667 9.06887 12.3578 9.08649C12.3489 9.10411 12.3457 9.12411 12.3488 9.14362C12.3519 9.16314 12.3611 9.18118 12.3751 9.19516Z" fill="#B1B6C1"/>
<path d="M23.0157 12.8137C23.1709 12.5702 23.253 12.2872 23.2521 11.9984C23.2513 11.7096 23.1676 11.427 23.0111 11.1844C21.7707 9.26624 20.1615 7.63687 18.3578 6.47203C16.3595 5.18203 14.1564 4.5 11.9851 4.5C10.8405 4.50157 9.70363 4.6882 8.61856 5.05266C8.58819 5.06276 8.56091 5.08046 8.53932 5.10409C8.51773 5.12771 8.50255 5.15647 8.49522 5.18763C8.48789 5.21878 8.48865 5.25129 8.49744 5.28207C8.50623 5.31284 8.52276 5.34085 8.54543 5.36344L10.7598 7.57781C10.7828 7.60086 10.8114 7.61751 10.8428 7.62614C10.8742 7.63477 10.9073 7.63508 10.9389 7.62703C11.6895 7.44411 12.4745 7.45752 13.2184 7.66595C13.9623 7.87438 14.64 8.27082 15.1863 8.81709C15.7326 9.36337 16.129 10.0411 16.3375 10.785C16.5459 11.5289 16.5593 12.3139 16.3764 13.0645C16.3684 13.096 16.3688 13.129 16.3774 13.1603C16.386 13.1916 16.4026 13.2202 16.4256 13.2431L19.6107 16.4306C19.6439 16.4638 19.6883 16.4834 19.7351 16.4855C19.782 16.4875 19.8279 16.472 19.8639 16.4419C21.0899 15.3968 22.1524 14.1739 23.0157 12.8137Z" fill="#B1B6C1"/>
<path d="M12 16.4992C11.3188 16.4993 10.6465 16.3446 10.0337 16.047C9.42094 15.7494 8.88375 15.3165 8.46263 14.7811C8.04151 14.2456 7.74745 13.6216 7.60262 12.9559C7.45779 12.2903 7.46598 11.6004 7.62656 10.9384C7.63452 10.9069 7.63417 10.8739 7.62555 10.8426C7.61692 10.8113 7.60031 10.7828 7.57734 10.7598L4.44422 7.62531C4.41099 7.59205 4.36649 7.57248 4.31952 7.57048C4.27255 7.56849 4.22655 7.5842 4.19062 7.61453C3.04734 8.58999 1.9875 9.77687 1.01859 11.1639C0.84899 11.4073 0.755584 11.6957 0.750243 11.9923C0.744901 12.2889 0.827865 12.5805 0.988591 12.8298C2.22656 14.7672 3.81937 16.3989 5.59547 17.5478C7.59656 18.843 9.74625 19.4992 11.985 19.4992C13.1412 19.4961 14.2899 19.3135 15.39 18.9578C15.4206 18.948 15.4482 18.9305 15.4702 18.907C15.4921 18.8834 15.5076 18.8546 15.5152 18.8234C15.5227 18.7921 15.5222 18.7594 15.5134 18.7285C15.5047 18.6975 15.4882 18.6693 15.4655 18.6466L13.2403 16.4219C13.2174 16.3989 13.1888 16.3823 13.1575 16.3737C13.1262 16.365 13.0932 16.3647 13.0617 16.3727C12.7141 16.4569 12.3577 16.4994 12 16.4992Z" fill="#B1B6C1"/>
</svg>
