<svg width="20" height="20" viewBox="0 0 20 20" fill="none" xmlns="http://www.w3.org/2000/svg">
<path d="M16.6666 10V18.3333H3.33325V10" stroke="white" stroke-width="2" stroke-linecap="round" stroke-linejoin="round"/>
<path d="M18.3334 5.83203H1.66675V9.9987H18.3334V5.83203Z" stroke="white" stroke-width="2" stroke-linecap="round" stroke-linejoin="round"/>
<path d="M10 18.332V5.83203" stroke="white" stroke-width="2" stroke-linecap="round" stroke-linejoin="round"/>
<path d="M10.0001 5.83463H6.25008C5.69755 5.83463 5.16764 5.61514 4.77694 5.22444C4.38624 4.83374 4.16675 4.30384 4.16675 3.7513C4.16675 3.19877 4.38624 2.66886 4.77694 2.27816C5.16764 1.88746 5.69755 1.66797 6.25008 1.66797C9.16675 1.66797 10.0001 5.83463 10.0001 5.83463Z" stroke="white" stroke-width="2" stroke-linecap="round" stroke-linejoin="round"/>
<path d="M10 5.83463H13.75C14.3025 5.83463 14.8324 5.61514 15.2231 5.22444C15.6138 4.83374 15.8333 4.30384 15.8333 3.7513C15.8333 3.19877 15.6138 2.66886 15.2231 2.27816C14.8324 1.88746 14.3025 1.66797 13.75 1.66797C10.8333 1.66797 10 5.83463 10 5.83463Z" stroke="white" stroke-width="2" stroke-linecap="round" stroke-linejoin="round"/>
</svg>
