<svg width="32" height="32" viewBox="0 0 32 32" fill="none" xmlns="http://www.w3.org/2000/svg">
<rect width="32" height="32" rx="4" fill="url(#paint0_linear)"/>
<path fill-rule="evenodd" clip-rule="evenodd" d="M15.4135 6.62912C16.7808 6.61948 18.1304 6.93883 19.3484 7.56023C20.5664 8.18164 21.6171 9.08687 22.4118 10.1996C23.7563 12.1127 25.4052 11.016 25.4052 13.3582V16.0184C25.3888 16.6427 25.1264 17.2353 24.6749 17.6668C24.2235 18.0984 23.6198 18.334 22.9954 18.3222H22.6574C22.4492 18.3262 22.2479 18.2476 22.0975 18.1037C21.947 17.9597 21.8596 17.7621 21.8543 17.554V13.1067C21.8543 12.4178 21.4912 11.6438 21.0785 11.0562C20.4354 10.1551 19.5849 9.42204 18.5989 8.91881C17.6129 8.41558 16.5202 8.157 15.4132 8.16489C13.8529 8.17503 12.3379 8.69056 11.0953 9.63422C10.1042 10.3771 9.78038 8.74534 10.1606 8.38712C11.6709 7.23994 13.5169 6.62211 15.4135 6.62912Z" fill="white"/>
<path fill-rule="evenodd" clip-rule="evenodd" d="M11.4435 11.1267C10.4794 12.0622 9.9122 13.3328 9.85946 14.6751C9.83864 14.875 9.82818 15.0758 9.82812 15.2767C9.82952 15.4608 9.84595 15.6444 9.87724 15.8258C10.0943 18.0102 12.747 22.51 14.5063 24.8538C15.0746 25.6114 15.6143 25.7969 16.3355 24.8431C18.1028 22.5051 20.739 18.0071 20.9561 15.8267C20.988 15.6451 21.0048 15.4611 21.0063 15.2767C21.0063 15.0747 20.9958 14.8729 20.975 14.672C20.9204 13.3292 20.3495 12.0592 19.3815 11.1269C17.2392 9.06158 13.583 9.0518 11.4435 11.1267ZM15.4177 11.5778C16.0341 11.5784 16.6366 11.7614 17.1494 12.1035C17.6621 12.4457 18.0623 12.9319 18.2994 13.5009C18.5366 14.0699 18.6002 14.6963 18.4823 15.3014C18.3643 15.9064 18.0701 16.4631 17.6366 16.9014C17.3496 17.199 17.0046 17.4346 16.623 17.5938C16.2413 17.7529 15.8311 17.8321 15.4177 17.8265C15.0073 17.8331 14.6001 17.7542 14.2218 17.595C13.8436 17.4357 13.5026 17.1995 13.2206 16.9014C12.9279 16.6126 12.6955 16.2686 12.5369 15.8894C12.3782 15.5101 12.2966 15.103 12.2966 14.6919C12.2966 14.2808 12.3782 13.8738 12.5369 13.4945C12.6955 13.1152 12.9279 12.7712 13.2206 12.4825C13.5055 12.1895 13.8475 11.9581 14.2254 11.8025C14.6033 11.6469 15.0091 11.5705 15.4177 11.578V11.5778Z" fill="white"/>
<defs>
<linearGradient id="paint0_linear" x1="16" y1="0" x2="16" y2="53.7143" gradientUnits="userSpaceOnUse">
<stop stop-color="#FF7C66"/>
<stop offset="1" stop-color="#FF5134"/>
</linearGradient>
</defs>
</svg>
