<svg width="20" height="20" viewBox="0 0 20 20" fill="none" xmlns="http://www.w3.org/2000/svg">
<path d="M9.7375 19.475C15.1154 19.475 19.475 15.1154 19.475 9.7375C19.475 4.35963 15.1154 0 9.7375 0C4.35963 0 0 4.35963 0 9.7375C0 15.1154 4.35963 19.475 9.7375 19.475Z" fill="#F0F0F0"/>
<path d="M1.86693 3.84155C1.10204 4.83672 0.525283 5.98373 0.189453 7.22978H5.25516L1.86693 3.84155Z" fill="#0052B4"/>
<path d="M19.2531 7.22975C18.9173 5.98373 18.3405 4.83672 17.5757 3.84155L14.1875 7.22975H19.2531Z" fill="#0052B4"/>
<path d="M0.189453 12.3621C0.525321 13.6081 1.10208 14.7551 1.86693 15.7502L5.25504 12.3621H0.189453Z" fill="#0052B4"/>
<path d="M15.7495 1.86745C14.7544 1.10257 13.6074 0.525809 12.3613 0.189941V5.25561L15.7495 1.86745Z" fill="#0052B4"/>
<path d="M3.8418 17.5756C4.83696 18.3405 5.98397 18.9173 7.22999 19.2531V14.1875L3.8418 17.5756Z" fill="#0052B4"/>
<path d="M7.22995 0.189941C5.98393 0.525809 4.83692 1.10257 3.8418 1.86742L7.22995 5.25557V0.189941Z" fill="#0052B4"/>
<path d="M12.3613 19.2531C13.6073 18.9173 14.7544 18.3405 15.7495 17.5757L12.3613 14.1875V19.2531Z" fill="#0052B4"/>
<path d="M14.1875 12.3621L17.5757 15.7503C18.3405 14.7551 18.9173 13.6081 19.2531 12.3621H14.1875Z" fill="#0052B4"/>
<path d="M19.582 8.65734H11.1971H11.1971V0.272368C10.7813 0.218241 10.3574 0.189941 9.92695 0.189941C9.49641 0.189941 9.0726 0.218241 8.65686 0.272368V8.65727V8.65731H0.27188C0.217753 9.07309 0.189453 9.49697 0.189453 9.92744C0.189453 10.358 0.217753 10.7818 0.27188 11.1975H8.65678H8.65682V19.5825C9.0726 19.6366 9.49641 19.6649 9.92695 19.6649C10.3574 19.6649 10.7813 19.6367 11.1971 19.5825V11.1976V11.1976H19.582C19.6362 10.7818 19.6645 10.358 19.6645 9.92744C19.6645 9.49697 19.6362 9.07309 19.582 8.65734Z" fill="#D80027"/>
<path d="M12.3613 12.3614L16.7065 16.7066C16.9064 16.5068 17.097 16.2979 17.2789 16.0814L13.5588 12.3613H12.3613V12.3614Z" fill="#D80027"/>
<path d="M7.57766 12.3613H7.57759L3.23242 16.7065C3.43219 16.9063 3.64105 17.097 3.85756 17.2789L7.57766 13.5587V12.3613Z" fill="#D80027"/>
<path d="M7.53868 7.5775V7.57743L3.19348 3.23218C2.99363 3.43195 2.80299 3.64081 2.62109 3.85732L6.34124 7.57746H7.53868V7.5775Z" fill="#D80027"/>
<path d="M12.3613 7.54116L16.7066 3.19588C16.5068 2.99603 16.2979 2.80539 16.0814 2.62354L12.3613 6.34368V7.54116Z" fill="#D80027"/>
</svg>
