<svg width="20" height="19" viewBox="0 0 20 19" fill="none" xmlns="http://www.w3.org/2000/svg">
<g filter="url(#filter0_bd)">
<path d="M15.9205 4.06089C15.5784 3.72455 15.1722 3.45775 14.7252 3.27572C14.2782 3.09369 13.799 3 13.3151 3C12.8312 3 12.3521 3.09369 11.905 3.27572C11.458 3.45775 11.0518 3.72455 10.7098 4.06089L9.99982 4.75857L9.28988 4.06089C8.5989 3.38184 7.66172 3.00035 6.68453 3.00035C5.70733 3.00035 4.77016 3.38184 4.07917 4.06089C3.38819 4.73994 3 5.66092 3 6.62124C3 7.58157 3.38819 8.50255 4.07917 9.1816L4.78911 9.87928L9.99982 15L15.2105 9.87928L15.9205 9.1816C16.2627 8.84543 16.5342 8.44628 16.7194 8.00697C16.9047 7.56765 17 7.09678 17 6.62124C17 6.14571 16.9047 5.67484 16.7194 5.23552C16.5342 4.79621 16.2627 4.39706 15.9205 4.06089Z" fill="black" fill-opacity="0.15"/>
<path d="M9.2989 15.7132L9.99982 16.4021L10.7007 15.7132L15.9114 10.5925L16.6212 9.89501C17.0572 9.46678 17.404 8.95739 17.6409 8.39548C17.8778 7.83353 18 7.23058 18 6.62124C18 6.01191 17.8778 5.40896 17.6409 4.84701L16.7194 5.23552L17.6409 4.84701C17.404 4.28524 17.0574 3.77597 16.6216 3.34781C16.1858 2.91942 15.6694 2.58049 15.1023 2.34956C14.5352 2.11864 13.928 2 13.3151 2C12.7023 2 12.095 2.11864 11.5279 2.34956C10.9609 2.58046 10.4445 2.91933 10.0088 3.34765C10.0088 3.3477 10.0087 3.34776 10.0087 3.34781L9.99982 3.35651L9.9908 3.34765C9.111 2.48304 7.92137 2.00035 6.68453 2.00035C5.44768 2.00035 4.25806 2.48304 3.37825 3.34765C2.49786 4.21284 2 5.39003 2 6.62124C2 7.85246 2.49786 9.02965 3.37825 9.89484L4.08819 10.5925L9.2989 15.7132Z" stroke="white" stroke-width="2"/>
</g>
<defs>
<filter id="filter0_bd" x="-11" y="-11" width="42" height="40.8041" filterUnits="userSpaceOnUse" color-interpolation-filters="sRGB">
<feFlood flood-opacity="0" result="BackgroundImageFix"/>
<feGaussianBlur in="BackgroundImage" stdDeviation="6"/>
<feComposite in2="SourceAlpha" operator="in" result="effect1_backgroundBlur"/>
<feColorMatrix in="SourceAlpha" type="matrix" values="0 0 0 0 0 0 0 0 0 0 0 0 0 0 0 0 0 0 127 0"/>
<feOffset dy="1"/>
<feGaussianBlur stdDeviation="1"/>
<feColorMatrix type="matrix" values="0 0 0 0 0 0 0 0 0 0 0 0 0 0 0 0 0 0 0.1 0"/>
<feBlend mode="normal" in2="effect1_backgroundBlur" result="effect2_dropShadow"/>
<feBlend mode="normal" in="SourceGraphic" in2="effect2_dropShadow" result="shape"/>
</filter>
</defs>
</svg>
