<svg width="20" height="20" viewBox="0 0 20 20" fill="none" xmlns="http://www.w3.org/2000/svg">
<path d="M10.001 5C8.19349 5 6.72266 6.47083 6.72266 8.27833H8.38932C8.38932 7.38917 9.11266 6.66667 10.001 6.66667C10.8893 6.66667 11.6127 7.38917 11.6127 8.27833C11.6127 8.77667 11.2118 9.13833 10.5993 9.63333C10.3868 9.80583 10.186 9.97 10.0235 10.1325C9.19182 10.9633 9.16766 11.8458 9.16766 11.9442V12.5H10.8343L10.8335 11.9725C10.8343 11.9592 10.861 11.6508 11.201 11.3117C11.326 11.1867 11.4835 11.0617 11.6468 10.93C12.296 10.4042 13.2785 9.61 13.2785 8.27833C13.2793 6.47083 11.8085 5 10.001 5ZM9.16766 13.3333H10.8343V15H9.16766V13.3333Z" fill="#00A1FF"/>
<path d="M10.0003 1.66797C5.40533 1.66797 1.66699 5.4063 1.66699 10.0013C1.66699 14.5963 5.40533 18.3346 10.0003 18.3346C14.5953 18.3346 18.3337 14.5963 18.3337 10.0013C18.3337 5.4063 14.5953 1.66797 10.0003 1.66797ZM10.0003 16.668C6.32449 16.668 3.33366 13.6771 3.33366 10.0013C3.33366 6.32547 6.32449 3.33464 10.0003 3.33464C13.6762 3.33464 16.667 6.32547 16.667 10.0013C16.667 13.6771 13.6762 16.668 10.0003 16.668Z" fill="#00A1FF"/>
</svg>
