<svg width="17" height="16" viewBox="0 0 17 16" fill="none" xmlns="http://www.w3.org/2000/svg">
<path d="M13.4688 15.9977C13.3559 15.998 13.2457 15.9604 13.154 15.8903L8.83464 12.5617L4.51634 15.8903C4.42408 15.9614 4.31296 15.9994 4.19903 15.9989C4.08511 15.9985 3.97428 15.9595 3.88255 15.8876C3.79082 15.8158 3.72295 15.7147 3.68874 15.5992C3.65453 15.4836 3.65575 15.3595 3.69222 15.2447L5.37592 9.94161L1.01142 6.75587C0.91712 6.68692 0.845991 6.58775 0.808391 6.47281C0.770792 6.35787 0.768687 6.23316 0.802382 6.11686C0.836078 6.00056 0.903815 5.89874 0.995723 5.82623C1.08763 5.75372 1.19891 5.71432 1.31334 5.71377H6.69859L8.32319 0.39468C8.35826 0.279956 8.42658 0.179982 8.51836 0.109084C8.61014 0.038185 8.72066 0 8.8341 0C8.94754 0 9.05806 0.038185 9.14984 0.109084C9.24162 0.179982 9.30994 0.279956 9.34501 0.39468L10.9707 5.71377H16.3559C16.4705 5.71384 16.5821 5.75289 16.6744 5.82522C16.7667 5.89755 16.8347 5.99936 16.8687 6.11577C16.9027 6.23219 16.9008 6.35711 16.8632 6.47227C16.8257 6.58744 16.7545 6.68681 16.66 6.75587L12.2934 9.94161L13.9771 15.2458C14.0043 15.3317 14.012 15.4233 13.9994 15.5129C13.9869 15.6026 13.9544 15.6878 13.9047 15.7615C13.8551 15.8352 13.7897 15.8952 13.7139 15.9367C13.6381 15.9782 13.5541 15.9999 13.4688 16V15.9977Z" fill="#EAEAEA"/>
</svg>
