<svg width="17" height="16" viewBox="0 0 17 16" fill="none" xmlns="http://www.w3.org/2000/svg">
<path d="M12.8117 15.9977C12.6988 15.998 12.5886 15.9604 12.4969 15.8903L8.17753 12.5617L3.85923 15.8903C3.76697 15.9614 3.65585 15.9994 3.54193 15.9989C3.428 15.9985 3.31717 15.9595 3.22545 15.8876C3.13372 15.8158 3.06585 15.7147 3.03164 15.5992C2.99742 15.4836 2.99864 15.3595 3.03512 15.2447L4.71881 9.94161L0.354311 6.75587C0.260016 6.68692 0.188886 6.58775 0.151287 6.47281C0.113687 6.35787 0.111582 6.23316 0.145278 6.11686C0.178974 6.00056 0.24671 5.89874 0.338618 5.82623C0.430526 5.75372 0.541804 5.71432 0.656238 5.71377H6.04148L7.66608 0.39468C7.70116 0.279956 7.76948 0.179982 7.86126 0.109084C7.95303 0.038185 8.06356 0 8.17699 0C8.29043 0 8.40096 0.038185 8.49273 0.109084C8.58451 0.179982 8.65283 0.279956 8.68791 0.39468L10.3136 5.71377H15.6988C15.8134 5.71384 15.925 5.75289 16.0173 5.82522C16.1096 5.89755 16.1776 5.99936 16.2116 6.11577C16.2456 6.23219 16.2436 6.35711 16.2061 6.47227C16.1685 6.58744 16.0973 6.68681 16.0029 6.75587L11.6363 9.94161L13.3199 15.2458C13.3472 15.3317 13.3549 15.4233 13.3423 15.5129C13.3297 15.6026 13.2973 15.6878 13.2476 15.7615C13.198 15.8352 13.1326 15.8952 13.0568 15.9367C12.981 15.9782 12.897 15.9999 12.8117 16V15.9977Z" fill="#FFDD00"/>
</svg>
