<svg width="102" height="30" viewBox="0 0 102 30" fill="none" xmlns="http://www.w3.org/2000/svg">
<path fill-rule="evenodd" clip-rule="evenodd" d="M86.122 1.94563C88.1582 1.93121 90.1681 2.40617 91.9819 3.33044C93.7958 4.25471 95.3606 5.60118 96.5441 7.25625C98.546 10.1013 101.001 8.47041 101.001 11.9544V15.9115C100.977 16.8402 100.586 17.7216 99.9137 18.3635C99.2413 19.0053 98.3421 19.3556 97.4122 19.3378H96.9084C96.5985 19.3437 96.2988 19.2269 96.0747 19.0129C95.8506 18.799 95.7202 18.5053 95.7121 18.1957V11.5809C95.631 10.4749 95.2323 9.41579 94.5638 8.53046C93.6061 7.19009 92.3396 6.09959 90.8711 5.35107C89.4026 4.60255 87.7754 4.21798 86.1268 4.22984C83.8032 4.24499 81.547 5.01188 79.6965 6.41558C78.22 7.52046 77.7391 5.09453 78.3042 4.56131C80.5519 2.85562 83.2992 1.93642 86.122 1.94563Z" fill="#FF5134"/>
<path d="M25.072 3.9223C24.6344 4.33874 24.0532 4.57104 23.4488 4.57104C22.8444 4.57104 22.2632 4.33874 21.8256 3.9223C21.606 3.71303 21.4313 3.46145 21.3118 3.18278C21.1924 2.90411 21.1309 2.60413 21.1309 2.30101C21.1309 1.99788 21.1924 1.69791 21.3118 1.41924C21.4313 1.14056 21.606 0.888983 21.8256 0.67972C22.1436 0.356265 22.5513 0.135292 22.9962 0.0452463C23.441 -0.0447995 23.9027 0.000204225 24.3217 0.174464C24.7407 0.348724 25.0979 0.644263 25.3474 1.02304C25.5968 1.40181 25.727 1.84648 25.7213 2.29981C25.7297 2.6002 25.6765 2.89914 25.5648 3.17819C25.4531 3.45724 25.2854 3.71048 25.072 3.9223Z" fill="#FF5134"/>
<path d="M21.9102 7.60554C21.9156 7.2059 22.0795 6.82473 22.3661 6.54574C22.6526 6.26675 23.0383 6.11275 23.4384 6.11756C23.6362 6.11313 23.8329 6.14849 24.0167 6.22152C24.2005 6.29456 24.3678 6.40378 24.5085 6.5427C24.6482 6.68168 24.7581 6.84755 24.8317 7.03025C24.9053 7.21294 24.9409 7.40866 24.9365 7.60554V20.1375C24.9417 20.3345 24.9064 20.5304 24.8328 20.7132C24.7592 20.896 24.6488 21.0618 24.5085 21.2003C24.3699 21.344 24.2036 21.4583 24.0198 21.5364C23.8359 21.6145 23.6382 21.6547 23.4384 21.6547C23.2386 21.6547 23.0409 21.6145 22.857 21.5364C22.6731 21.4583 22.5069 21.344 22.3683 21.2003C22.2225 21.0644 22.1066 20.8998 22.0277 20.7169C21.9489 20.5339 21.9089 20.3367 21.9102 20.1375V7.60554Z" fill="#1E2843"/>
<path d="M39.3572 1.64825C39.3528 1.45079 39.3884 1.25448 39.462 1.07116C39.5356 0.887832 39.6456 0.721291 39.7854 0.581574C39.9251 0.441858 40.0918 0.33186 40.2753 0.258215C40.4587 0.184569 40.6553 0.148801 40.853 0.153066C41.0559 0.146793 41.258 0.181418 41.4472 0.254874C41.6364 0.32833 41.8089 0.439112 41.9543 0.580606C42.0941 0.720976 42.2041 0.888114 42.2777 1.07199C42.3512 1.25587 42.3868 1.45269 42.3824 1.65066V13.9004C42.3828 15.4195 41.9314 16.9045 41.0854 18.167C40.2394 19.4294 39.037 20.4124 37.6308 20.9911C36.2246 21.5699 34.678 21.7184 33.1871 21.4177C31.6963 21.117 30.3285 20.3807 29.2573 19.3023C28.5351 18.6005 27.9644 17.7584 27.5804 16.8279C27.1964 15.8974 27.0072 14.8983 27.0245 13.892C27.0236 12.4622 27.4227 11.0606 28.1767 9.84521C28.9307 8.62983 30.0096 7.649 31.2918 7.01333C32.574 6.37766 34.0085 6.11242 35.4336 6.24751C36.8587 6.38261 38.2176 6.91266 39.3572 7.77792V1.65306V1.64825ZM39.3572 13.862C39.3604 13.2525 39.2422 12.6485 39.0093 12.0851C38.7764 11.5217 38.4336 11.0103 38.0009 10.5806C37.5681 10.1509 37.0541 9.81159 36.4886 9.58237C35.9232 9.35315 35.3178 9.23863 34.7077 9.24549C34.099 9.23411 33.4945 9.34761 32.9316 9.57897C32.3686 9.81033 31.8592 10.1546 31.4348 10.5906C30.999 11.02 30.6529 11.5317 30.4167 12.0959C30.1805 12.66 30.0588 13.2655 30.0588 13.877C30.0588 14.4885 30.1805 15.0939 30.4167 15.6581C30.6529 16.2222 30.999 16.7339 31.4348 17.1634C31.8547 17.6072 32.3626 17.9588 32.9261 18.1958C33.4896 18.4328 34.0963 18.5499 34.7077 18.5397C35.3186 18.5398 35.9236 18.4197 36.488 18.1861C37.0524 17.9526 37.5652 17.6102 37.997 17.1785C38.4288 16.7469 38.7712 16.2344 39.0046 15.6705C39.238 15.1066 39.3578 14.5022 39.3572 13.892V13.862Z" fill="#1E2843"/>
<path d="M57.2491 19.3628C56.1735 20.4308 54.8059 21.1575 53.3181 21.4516C51.8304 21.7458 50.2887 21.5942 48.8869 21.0161C47.485 20.4379 46.2855 19.4588 45.439 18.2018C44.5925 16.9449 44.1367 15.4661 44.1289 13.9513C44.1296 12.6913 44.441 11.4509 45.0358 10.3397C45.6306 9.22858 46.4903 8.28095 47.539 7.58064C48.5877 6.88033 49.793 6.44892 51.0483 6.32455C52.3036 6.20019 53.5702 6.38671 54.7362 6.86762C55.9022 7.34853 56.9315 8.10901 57.7333 9.0818C58.535 10.0546 59.0843 11.2097 59.3328 12.445C59.5812 13.6803 59.5211 14.9578 59.1576 16.1643C58.7942 17.3709 58.1387 18.4694 57.2491 19.3628ZM55.1077 10.6498C54.2268 9.78413 53.0394 9.30074 51.8036 9.30477C51.195 9.29339 50.5905 9.40689 50.0275 9.63825C49.4646 9.86961 48.9551 10.2139 48.5308 10.6498C48.0949 11.0793 47.7489 11.591 47.5126 12.1551C47.2764 12.7193 47.1548 13.3247 47.1548 13.9363C47.1548 14.5478 47.2764 15.1532 47.5126 15.7174C47.7489 16.2815 48.0949 16.7932 48.5308 17.2227C48.9509 17.6663 49.4588 18.0177 50.0223 18.2547C50.5857 18.4916 51.1923 18.6089 51.8036 18.599C52.4193 18.6073 53.0301 18.4895 53.5984 18.2528C54.1667 18.0161 54.6804 17.6655 55.1077 17.2227C55.9716 16.3464 56.4558 15.166 56.4558 13.9363C56.4558 12.7065 55.9716 11.5261 55.1077 10.6498Z" fill="#1E2843"/>
<path fill-rule="evenodd" clip-rule="evenodd" d="M80.2106 8.63306C78.7748 10.0246 77.9301 11.9145 77.8516 13.9113C77.8205 14.2085 77.8048 14.5071 77.8047 14.806C77.8068 15.0797 77.8314 15.3528 77.878 15.6226C78.2015 18.8712 82.1512 25.5641 84.7712 29.0505C85.6129 30.177 86.4209 30.4532 87.4946 29.0349C90.1265 25.5521 94.0523 18.8676 94.3757 15.6238C94.4231 15.3537 94.4481 15.0802 94.4503 14.806C94.4501 14.5055 94.4344 14.2053 94.4034 13.9064C94.322 11.9089 93.4718 10.0197 92.0299 8.63306C90.4208 7.14859 88.3107 6.32422 86.1203 6.32422C83.9298 6.32422 81.8198 7.14859 80.2106 8.63306ZM86.1287 9.30439C87.0466 9.30542 87.9437 9.57751 88.7072 10.0865C89.4707 10.5954 90.0664 11.3185 90.4196 12.1647C90.7727 13.011 90.8675 13.9427 90.6919 14.8426C90.5163 15.7425 90.0782 16.5704 89.4328 17.2223C89.0054 17.665 88.4918 18.0156 87.9235 18.2523C87.3552 18.489 86.7443 18.6069 86.1287 18.5986C85.5176 18.6083 84.9112 18.491 84.348 18.254C83.7847 18.0171 83.277 17.6657 82.857 17.2223C82.4212 16.7928 82.0751 16.2811 81.8389 15.717C81.6027 15.1528 81.4811 14.5474 81.4811 13.9359C81.4811 13.3244 81.6027 12.7189 81.8389 12.1548C82.0751 11.5906 82.4212 11.0789 82.857 10.6495C83.2813 10.2137 83.7905 9.86947 84.3532 9.63811C84.916 9.40675 85.5202 9.29317 86.1287 9.30439Z" fill="#FF5134"/>
<path d="M73.6468 1.64824C73.6422 1.45073 73.6777 1.25435 73.7513 1.07094C73.8248 0.887541 73.9348 0.720931 74.0746 0.581179C74.2144 0.441428 74.3811 0.331436 74.5647 0.257851C74.7482 0.184266 74.9448 0.148615 75.1426 0.153051C75.3455 0.146847 75.5476 0.181504 75.7368 0.254956C75.926 0.328408 76.0985 0.439153 76.2439 0.580591C76.3838 0.72096 76.4937 0.888099 76.5673 1.07198C76.6409 1.25585 76.6764 1.45268 76.672 1.65064V13.9004C76.6847 14.9154 76.4955 15.9228 76.1154 16.8642C75.7354 17.8056 75.1719 18.6622 74.4579 19.3845C73.7438 20.1067 72.8932 20.6801 71.9555 21.0715C71.0179 21.4629 70.0117 21.6644 68.9955 21.6644C67.9792 21.6644 66.9731 21.4629 66.0354 21.0715C65.0977 20.6801 64.2472 20.1067 63.5331 19.3845C62.819 18.6622 62.2556 17.8056 61.8755 16.8642C61.4954 15.9228 61.3062 14.9154 61.319 13.9004C61.3172 12.4707 61.7153 11.0689 62.4684 9.85315C63.2215 8.63737 64.2997 7.65588 65.5814 7.01936C66.8631 6.38283 68.2973 6.11658 69.7223 6.2506C71.1474 6.38463 72.5066 6.91361 73.6468 7.77791V1.65304V1.64824ZM73.6468 13.8619C73.65 13.2525 73.5318 12.6484 73.2989 12.0851C73.0661 11.5217 72.7233 11.0103 72.2905 10.5806C71.8577 10.1509 71.3437 9.81158 70.7783 9.58235C70.2129 9.35313 69.6074 9.23861 68.9973 9.24547C68.3886 9.23409 67.7841 9.34759 67.2212 9.57895C66.6582 9.81031 66.1488 10.1546 65.7244 10.5905C65.2886 11.02 64.9425 11.5317 64.7063 12.0958C64.4701 12.66 64.3484 13.2654 64.3484 13.877C64.3484 14.4885 64.4701 15.0939 64.7063 15.6581C64.9425 16.2222 65.2886 16.7339 65.7244 17.1634C66.1444 17.6072 66.6522 17.9588 67.2157 18.1958C67.7792 18.4327 68.386 18.5498 68.9973 18.5397C69.6082 18.5398 70.2132 18.4197 70.7776 18.1861C71.342 17.9526 71.8548 17.6102 72.2866 17.1785C72.7184 16.7469 73.0609 16.2344 73.2942 15.6705C73.5276 15.1065 73.6474 14.5022 73.6468 13.892V13.8619Z" fill="#1E2843"/>
<path d="M17.4866 6.86758C17.6973 6.52122 18.0337 6.26945 18.4257 6.16474C18.8177 6.06003 19.235 6.11047 19.5907 6.30553C19.7634 6.39616 19.9153 6.5218 20.0366 6.67442C20.158 6.82704 20.2461 7.00327 20.2953 7.19184C20.3823 7.5792 20.3155 7.98516 20.1089 8.32433L13.3805 20.8695C13.2848 21.0475 13.1529 21.2036 12.9932 21.3277C12.8336 21.4517 12.6497 21.5411 12.4535 21.5901C12.2612 21.6494 12.0588 21.6694 11.8586 21.6488C11.6584 21.6281 11.4645 21.5673 11.2884 21.47C11.115 21.376 10.9638 21.2461 10.8449 21.0888C10.7261 20.9316 10.6424 20.7507 10.5994 20.5585C10.4966 20.1701 10.5519 19.7569 10.7533 19.4091L17.4866 6.86758Z" fill="#1E2843"/>
<path d="M6.53529 7.93124C6.43128 7.75618 6.2934 7.60357 6.12969 7.48233C5.96598 7.36108 5.77973 7.27363 5.58181 7.22508C5.39042 7.17018 5.18986 7.15464 4.99228 7.17941C4.79471 7.20419 4.60422 7.26875 4.43235 7.36919C4.25962 7.45982 4.10774 7.58546 3.98642 7.73808C3.86509 7.8907 3.77699 8.06693 3.72776 8.2555C3.68074 8.447 3.67291 8.64601 3.70472 8.84061C3.73654 9.0352 3.80735 9.22138 3.91292 9.388L10.6835 20.8703C10.7823 21.0459 10.9152 21.2 11.0744 21.3238C11.2336 21.4475 11.4158 21.5383 11.6105 21.5909C11.8027 21.6506 12.0051 21.6708 12.2053 21.6501C12.4056 21.6295 12.5996 21.5685 12.7756 21.4708C12.9489 21.3768 13.1001 21.2468 13.2189 21.0896C13.3377 20.9323 13.4215 20.7515 13.4645 20.5593C13.5185 20.3675 13.5322 20.1666 13.5049 19.9693C13.4776 19.7719 13.4098 19.5823 13.3058 19.4124L6.53529 7.93004V7.93124Z" fill="#1E2843"/>
<path d="M2.85365 1.6871C2.7498 1.51191 2.61196 1.3592 2.44823 1.23794C2.2845 1.11668 2.09817 1.0293 1.90017 0.980937C1.70878 0.926037 1.50822 0.910502 1.31064 0.935274C1.11307 0.960045 0.922575 1.02461 0.750706 1.12505C0.577983 1.21568 0.426102 1.34132 0.304776 1.49394C0.183451 1.64656 0.0953533 1.82279 0.0461196 2.01136C-0.000897663 2.20286 -0.00873265 2.40187 0.0230842 2.59646C0.054901 2.79106 0.125715 2.97724 0.231284 3.14386L7.00181 14.6262C7.10068 14.8018 7.23358 14.9559 7.39274 15.0796C7.55191 15.2033 7.73415 15.2941 7.92883 15.3467C8.12108 15.4064 8.32344 15.4265 8.52369 15.4059C8.72394 15.3852 8.91792 15.3243 9.09393 15.2267C9.2673 15.1327 9.4185 15.0027 9.53735 14.8455C9.65619 14.6883 9.73992 14.5074 9.78288 14.3151C9.83577 14.1234 9.84854 13.9228 9.82041 13.7259C9.79228 13.529 9.72384 13.3399 9.61936 13.1706L2.85244 1.6883L2.85365 1.6871Z" fill="#1E2843"/>
</svg>
