<svg width="16" height="16" viewBox="0 0 16 16" fill="none" xmlns="http://www.w3.org/2000/svg">
<path d="M13.3346 2.66602H4.0013C3.26597 2.66602 2.66797 3.26402 2.66797 3.99935V7.33268H4.0013V5.33268L8.26797 8.53268C8.38664 8.62135 8.5273 8.66602 8.66797 8.66602C8.80864 8.66602 8.9493 8.62135 9.06797 8.53268L13.3346 5.33268V11.3327H8.0013V12.666H13.3346C14.07 12.666 14.668 12.068 14.668 11.3327V3.99935C14.668 3.26402 14.07 2.66602 13.3346 2.66602ZM8.66797 7.16602L4.4453 3.99935H12.8906L8.66797 7.16602Z" fill="#1E2843"/>
<path d="M1.33203 8H5.9987V9.33333H1.33203V8ZM2.66536 10H6.66536V11.3333H2.66536V10ZM4.66536 12H7.33203V13.3333H4.66536V12Z" fill="#1E2843"/>
</svg>
