<svg width="64" height="40" viewBox="0 0 64 40" fill="none" xmlns="http://www.w3.org/2000/svg">
<path d="M64 37.8571C64 39.0306 63.0303 40 61.8565 40H2.14354C0.969697 40 0 39.0306 0 37.8571V2.14286C0 0.969388 0.969697 0 2.14354 0H61.9075C63.0813 0 64.051 0.969388 64.051 2.14286V37.8571H64Z" fill="white"/>
<path fill-rule="evenodd" clip-rule="evenodd" d="M39.7059 31.4787H40.2673L40.8798 31.4277L41.4412 31.3257L42.0026 31.2236L42.564 31.1216L43.1254 30.9685L43.6357 30.7644L44.1461 30.5603L44.6565 30.3563L45.1668 30.1012L45.6772 29.795L46.1365 29.5399L46.5959 29.1828L47.0042 28.8767L47.4124 28.4685L47.8207 28.1114L48.229 27.7032L48.5863 27.295L48.8925 26.8359L49.2498 26.4277L49.505 25.9175L49.8112 25.4583L50.0664 24.9481L50.2705 24.4379L50.4746 23.9277L50.6788 23.4175L50.8319 22.8563L50.985 22.295L51.0871 21.7338L51.1381 21.1726L51.1892 20.5603V19.9991V19.3869L51.1381 18.8257L51.0871 18.2134L50.985 17.6522L50.8319 17.142L50.6788 16.5808L50.4746 16.0195L50.2705 15.5093L50.0664 14.9991L49.8112 14.5399L49.505 14.0297L49.2498 13.5706L48.8925 13.1114L48.5863 12.7032L48.229 12.295L47.8207 11.8869L47.4124 11.4787L47.0042 11.1216L46.5959 10.8154L46.1365 10.4583L45.6772 10.2032L45.1668 9.89708L44.6565 9.64198L44.1461 9.4379L43.6357 9.23382L43.1254 9.02974L42.564 8.87667L42.0026 8.77463L41.4412 8.67259L40.8798 8.57055L40.2673 8.51953H39.7059H39.0935L38.5321 8.57055L37.9196 8.67259L37.3582 8.77463L36.7968 8.87667L36.2865 9.02974L35.725 9.23382L35.2147 9.4379L34.7043 9.64198L34.245 9.89708L33.7346 10.2032L33.2753 10.4583L32.816 10.8154L32.4077 11.1216L31.9994 11.4787L31.5911 11.8869L31.1828 12.295L30.8255 12.7032L30.5193 13.1114L30.162 13.5706L29.9069 14.0297L29.6006 14.5399L29.3455 14.9991L29.1413 15.5093L28.9372 16.0195L28.733 16.5808L28.5799 17.142L28.4778 17.6522L28.3758 18.2134L28.2737 18.8257L28.2227 19.3869V19.9991V20.5603L28.2737 21.1726L28.3758 21.7338L28.4778 22.295L28.5799 22.8563L28.733 23.4175L28.9372 23.9277L29.1413 24.4379L29.3455 24.9481L29.6006 25.4583L29.9069 25.9175L30.162 26.4277L30.5193 26.8359L30.8255 27.295L31.1828 27.7032L31.5911 28.1114L31.9994 28.4685L32.4077 28.8767L32.816 29.1828L33.2753 29.5399L33.7346 29.795L34.245 30.1012L34.7043 30.3563L35.2147 30.5603L35.725 30.7644L36.2865 30.9685L36.7968 31.1216L37.3582 31.2236L37.9196 31.3257L38.5321 31.4277L39.0935 31.4787H39.7059Z" fill="#FBB231"/>
<path fill-rule="evenodd" clip-rule="evenodd" d="M24.3429 31.4787H24.9043L25.5167 31.4277L26.0781 31.3257L26.6395 31.2236L27.2009 31.1216L27.7113 30.9685L28.2727 30.7644L28.7831 30.5603L29.2934 30.3563L29.8038 30.1012L30.2631 29.795L30.7225 29.5399L31.1818 29.1828L31.6411 28.8767L32.0494 28.4685L32.4067 28.1114L32.815 27.7032L33.1722 27.295L33.5295 26.8359L33.8357 26.4277L34.1419 25.9175L34.3971 25.4583L34.6523 24.9481L34.9075 24.4379L35.1116 23.9277L35.2647 23.4175L35.4179 22.8563L35.571 22.295L35.673 21.7338L35.7241 21.1726L35.7751 20.5603V19.9991V19.3869L35.7241 18.8257L35.673 18.2134L35.571 17.6522L35.4179 17.142L35.2647 16.5808L35.1116 16.0195L34.9075 15.5093L34.6523 14.9991L34.3971 14.5399L34.1419 14.0297L33.8357 13.5706L33.5295 13.1114L33.1722 12.7032L32.815 12.295L32.4067 11.8869L32.0494 11.4787L31.6411 11.1216L31.1818 10.8154L30.7225 10.4583L30.2631 10.2032L29.8038 9.89708L29.2934 9.64198L28.7831 9.4379L28.2727 9.23382L27.7113 9.02974L27.2009 8.87667L26.6395 8.77463L26.0781 8.67259L25.5167 8.57055L24.9043 8.51953H24.3429H23.7304L23.169 8.57055L22.5566 8.67259L21.9952 8.77463L21.4338 8.87667L20.9234 9.02974L20.362 9.23382L19.8517 9.4379L19.3413 9.64198L18.8309 9.89708L18.3716 10.2032L17.9123 10.4583L17.4529 10.8154L16.9936 11.1216L16.5853 11.4787L16.177 11.8869L15.8198 12.295L15.4625 12.7032L15.1052 13.1114L14.799 13.5706L14.4928 14.0297L14.1866 14.5399L13.9314 14.9991L13.7273 15.5093L13.5231 16.0195L13.319 16.5808L13.1659 17.142L13.0638 17.6522L12.9617 18.2134L12.8596 18.8257L12.8086 19.3869V19.9991V20.5603L12.8596 21.1726L12.9617 21.7338L13.0638 22.295L13.1659 22.8563L13.319 23.4175L13.5231 23.9277L13.7273 24.4379L13.9314 24.9481L14.1866 25.4583L14.4928 25.9175L14.799 26.4277L15.1052 26.8359L15.4625 27.295L15.8198 27.7032L16.177 28.1114L16.5853 28.4685L16.9936 28.8767L17.4529 29.1828L17.9123 29.5399L18.3716 29.795L18.8309 30.1012L19.3413 30.3563L19.8517 30.5603L20.362 30.7644L20.9234 30.9685L21.4338 31.1216L21.9952 31.2236L22.5566 31.3257L23.169 31.4277L23.7304 31.4787H24.3429Z" fill="#EC1C2E"/>
<path fill-rule="evenodd" clip-rule="evenodd" d="M30.6719 12.9074H36.7452V12.2949H31.1822L30.6719 12.9074Z" fill="#FBB231"/>
<path fill-rule="evenodd" clip-rule="evenodd" d="M29.7539 14.2843H36.7459V13.6719H30.1112L29.7539 14.2843Z" fill="#FBB231"/>
<path fill-rule="evenodd" clip-rule="evenodd" d="M29.0898 15.7143H36.7453V15.0508H29.345L29.0898 15.7143Z" fill="#FBB231"/>
<path fill-rule="evenodd" clip-rule="evenodd" d="M28.5781 17.0912H36.744V16.4277H28.7823L28.5781 17.0912Z" fill="#FBB231"/>
<path fill-rule="evenodd" clip-rule="evenodd" d="M28.8838 23.7745H36.7945V23.1621H28.6797L28.8838 23.7745Z" fill="#FBB231"/>
<path fill-rule="evenodd" clip-rule="evenodd" d="M29.4468 25.1515H36.7961V24.5391H29.1406L29.4468 25.1515Z" fill="#FBB231"/>
<path fill-rule="evenodd" clip-rule="evenodd" d="M30.2635 26.5304H36.7962V25.918H29.9062L30.2635 26.5304Z" fill="#FBB231"/>
<path fill-rule="evenodd" clip-rule="evenodd" d="M31.3854 27.9074H36.7953V27.2949H30.875L31.3854 27.9074Z" fill="#FBB231"/>
<path fill-rule="evenodd" clip-rule="evenodd" d="M28.3242 18.4679H36.7453V17.8555H28.4263L28.3242 18.4679Z" fill="#FBB231"/>
<path fill-rule="evenodd" clip-rule="evenodd" d="M33.4766 22.3976H36.6919V21.7852H33.5786L33.4766 22.3976Z" fill="#FBB231"/>
<path fill-rule="evenodd" clip-rule="evenodd" d="M33.7344 21.0206H36.6945V20.4082H33.8365L33.7344 21.0206Z" fill="#FBB231"/>
<path fill-rule="evenodd" clip-rule="evenodd" d="M28.1211 20.4082H28.9377V21.0206H28.1721L28.1211 20.4082Z" fill="#FBB231"/>
<path fill-rule="evenodd" clip-rule="evenodd" d="M26.5359 19.6413H26.4848L26.4338 19.5902H26.3828H26.3317H26.2807H26.2297H26.1786H26.1276L26.0765 19.5392H26.0255H25.9745H25.8724H25.7703H25.7193H25.6172L25.5151 19.5902H25.4131H25.362H25.26L25.2089 19.6413H25.1579L25.1069 19.6923L25.0558 19.7433V19.7943H25.0048V19.8453V19.8964V19.9474V19.9984V20.0494L25.0558 20.1004L25.1069 20.1515L25.1579 20.2025L25.26 20.3045L25.362 20.3556H25.4641L25.6172 20.4066L25.7193 20.4576L25.8724 20.5086L25.9745 20.5596L26.0765 20.6107L26.2297 20.7127L26.2807 20.8147L26.3828 20.9168L26.4338 21.0698L26.4848 21.2229V21.427V21.6821V21.8862L26.4338 22.0392L26.3317 22.1923L26.2807 22.2943L26.1786 22.3964L26.0765 22.4984L25.9745 22.6004L25.8724 22.6515L25.7193 22.7535L25.6172 22.8045H25.4641L25.362 22.8555H25.2089L25.0558 22.9066H24.9537H24.8517H24.6475H24.4944H24.3923H24.2392H24.1372L24.0351 22.8555H23.933H23.8309H23.7799H23.6778L23.6268 22.8045H23.5247H23.4737L23.4226 22.7535H23.3716L23.2695 22.7025L23.4737 21.8862H23.5247H23.5758L23.6778 21.9372H23.7289H23.8309L23.882 21.9882H23.984H24.0861H24.1882L24.2903 22.0392H24.3923H24.4944H24.6475H24.7496H24.8517H24.9537L25.0558 21.9882L25.1069 21.9372L25.1579 21.8862L25.2089 21.8351L25.26 21.7841V21.7331V21.6311L25.311 21.529L25.26 21.427L25.2089 21.376L25.1069 21.3249L24.9537 21.2229L24.8517 21.1719L24.6986 21.1209L24.5454 21.0698L24.3923 21.0188L24.2392 20.9168L24.0861 20.8147L23.984 20.7127L23.882 20.5596L23.8309 20.3556L23.7799 20.1515V19.8964V19.7433L23.8309 19.6413L23.882 19.4882V19.3862L23.984 19.2331L24.0351 19.1311L24.1372 19.029L24.2392 18.978L24.3413 18.876L24.4434 18.8249L24.5965 18.7739L24.7496 18.7229H24.9027L25.1069 18.6719H25.311H25.5662H25.6683H25.8214H25.9234H26.0765H26.1276H26.2297H26.3317H26.3828L26.4338 18.7229H26.4848H26.5359H26.5869H26.638H26.689V18.7739H26.74L26.5359 19.6413Z" fill="white"/>
<path d="M26.5359 19.6413H26.4848L26.4338 19.5902H26.3828H26.3317H26.2807H26.2297H26.1786H26.1276L26.0765 19.5392H26.0255H25.9745H25.8724H25.7703H25.7193H25.6172L25.5151 19.5902H25.4131H25.362H25.26L25.2089 19.6413H25.1579L25.1069 19.6923L25.0558 19.7433V19.7943H25.0048V19.8453V19.8964V19.9474V19.9984V20.0494L25.0558 20.1004L25.1069 20.1515L25.1579 20.2025L25.26 20.3045L25.362 20.3556H25.4641L25.6172 20.4066L25.7193 20.4576L25.8724 20.5086L25.9745 20.5596L26.0765 20.6107L26.2297 20.7127L26.2807 20.8147L26.3828 20.9168L26.4338 21.0698L26.4848 21.2229V21.427V21.6821V21.8862L26.4338 22.0392L26.3317 22.1923L26.2807 22.2943L26.1786 22.3964L26.0765 22.4984L25.9745 22.6004L25.8724 22.6515L25.7193 22.7535L25.6172 22.8045H25.4641L25.362 22.8555H25.2089L25.0558 22.9066H24.9537H24.8517H24.6475H24.4944H24.3923H24.2392H24.1372L24.0351 22.8555H23.933H23.8309H23.7799H23.6778L23.6268 22.8045H23.5247H23.4737L23.4226 22.7535H23.3716L23.2695 22.7025L23.4737 21.8862H23.5247H23.5758L23.6778 21.9372H23.7289H23.8309L23.882 21.9882H23.984H24.0861H24.1882L24.2903 22.0392H24.3923H24.4944H24.6475H24.7496H24.8517H24.9537L25.0558 21.9882L25.1069 21.9372L25.1579 21.8862L25.2089 21.8351L25.26 21.7841V21.7331V21.6311L25.311 21.529L25.26 21.427L25.2089 21.376L25.1069 21.3249L24.9537 21.2229L24.8517 21.1719L24.6986 21.1209L24.5454 21.0698L24.3923 21.0188L24.2392 20.9168L24.0861 20.8147L23.984 20.7127L23.882 20.5596L23.8309 20.3556L23.7799 20.1515V19.8964V19.7433L23.8309 19.6413L23.882 19.4882V19.3862L23.984 19.2331L24.0351 19.1311L24.1372 19.029L24.2392 18.978L24.3413 18.876L24.4434 18.8249L24.5965 18.7739L24.7496 18.7229H24.9027L25.1069 18.6719H25.311H25.5662H25.6683H25.8214H25.9234H26.0765H26.1276H26.2297H26.3317H26.3828L26.4338 18.7229H26.4848H26.5359H26.5869H26.638H26.689V18.7739H26.74L26.5359 19.6413Z" stroke="white" stroke-width="0.216" stroke-miterlimit="2.6131"/>
<path fill-rule="evenodd" clip-rule="evenodd" d="M27.457 17.8047H28.5287L28.3756 18.7231H29.0391L28.886 19.5904H28.2225L27.8142 21.7333V21.8353L27.8652 21.8863V21.9373L27.9163 21.9884H28.0184L28.0694 22.0394H28.1715H28.2735H28.3246H28.4267H28.4777H28.5798L28.6308 21.9884H28.6818L28.5287 22.7026L28.4777 22.7537H28.4267V22.8047H28.3756H28.3246H28.2735L28.2225 22.8557H28.1715H28.1204H28.0694H28.0184H27.9673H27.9163H27.6101H27.457H27.3038H27.2018L27.0997 22.8047L26.9976 22.7537H26.8956L26.8445 22.7026L26.7935 22.6516L26.7424 22.6006V22.4986V22.4475L26.6914 22.3965V22.2945V22.1924V22.1414L26.7424 22.0394L27.457 17.8047Z" fill="white"/>
<path d="M27.457 17.8047H28.5287L28.3756 18.7231H29.0391L28.886 19.5904H28.2225L27.8142 21.7333V21.8353L27.8652 21.8863V21.9373L27.9163 21.9884H28.0184L28.0694 22.0394H28.1715H28.2735H28.3246H28.4267H28.4777H28.5798L28.6308 21.9884H28.6818L28.5287 22.7026L28.4777 22.7537H28.4267V22.8047H28.3756H28.3246H28.2735L28.2225 22.8557H28.1715H28.1204H28.0694H28.0184H27.9673H27.9163H27.6101H27.457H27.3038H27.2018L27.0997 22.8047L26.9976 22.7537H26.8956L26.8445 22.7026L26.7935 22.6516L26.7424 22.6006V22.4986V22.4475L26.6914 22.3965V22.2945V22.1924V22.1414L26.7424 22.0394L27.457 17.8047Z" stroke="white" stroke-width="0.216" stroke-miterlimit="2.6131"/>
<path d="M29.9043 21.0698L29.8533 21.1209V21.2229V21.2739L29.9043 21.376V21.427L29.9554 21.478L30.0064 21.58L30.0574 21.6311L30.1085 21.6821L30.1595 21.7331L30.2105 21.8351L30.2616 21.8862H30.3636L30.4147 21.9372L30.5168 21.9882H30.5678H30.6699H30.7719L30.874 22.0392H30.9761H31.0782H31.1802H31.2823H31.3844L31.4865 21.9882H31.5885L31.6906 21.9372H31.7927L31.9458 21.8862L32.0479 21.8351L32.1499 21.7841L32.252 21.7331L32.0989 22.6515L32.0479 22.7025H31.9968L31.8947 22.7535H31.8437L31.7927 22.8045H31.7416H31.6906L31.5885 22.8555H31.5375H31.4865H31.3844H31.2823H31.1802H31.0782H30.9761H30.823H30.6699H30.4657H30.2616L30.0574 22.8045L29.8533 22.7025L29.7002 22.6515L29.496 22.5494L29.3429 22.4474L29.1898 22.2943L29.0877 22.1413L28.9857 21.9882L28.8836 21.7841L28.7815 21.529V21.2739L28.7305 21.0188L28.7815 20.6617V20.5596L28.8325 20.4066V20.2535L28.8836 20.1004L28.9346 19.9474L28.9857 19.7433L29.0877 19.5902L29.1898 19.4372L29.3429 19.2841L29.496 19.1311L29.6491 18.978L29.8533 18.876L30.0574 18.7739L30.3126 18.7229L30.6188 18.6719H30.925H31.0782H31.2313L31.3844 18.7229H31.5375L31.6906 18.7739L31.8437 18.876L31.9968 18.978L32.0989 19.08L32.252 19.1821L32.3541 19.3351L32.4051 19.5392L32.4561 19.7433L32.5072 19.9474V20.2535L32.4561 20.5086L32.4051 20.8658V21.0698H29.5471L29.7512 20.3045H31.4354V20.2025V20.1515V20.0494V19.9474L31.3844 19.8964V19.8453L31.3333 19.7943L31.2823 19.7433L31.2313 19.6923L31.1802 19.6413L31.1292 19.5902H31.0782L31.0271 19.5392H30.9761H30.874L30.823 19.4882L30.7209 19.5392H30.6699H30.6188L30.5678 19.5902H30.4657L30.4147 19.6413L30.3636 19.6923L30.3126 19.7433L30.2616 19.7943L30.2105 19.8453L30.1595 19.8964V19.9474L30.1085 20.0494L30.0574 20.1004V20.2025V20.2535L29.9043 21.0698Z" stroke="white" stroke-width="0.216" stroke-miterlimit="2.6131"/>
<path fill-rule="evenodd" clip-rule="evenodd" d="M39.1449 18.9791L39.0939 18.9281H39.0429L38.9918 18.8771H38.8897L38.8387 18.8261H38.7877L38.7366 18.775H38.6346H38.5835L38.4814 18.724H38.4304H38.3283H38.2773L38.1752 18.673H38.0732H37.9711H37.869L37.7669 18.724H37.6649H37.5628L37.4607 18.775L37.3586 18.8261L37.2566 18.8771L37.1035 18.9281L37.0014 19.0301L36.8993 19.1322L36.8483 19.2342L36.7462 19.3873L36.6441 19.5403L36.5421 19.7444L36.491 19.9485L36.44 20.2036L36.3889 20.3567V20.4587V20.6118V20.7648V20.8669L36.44 21.0199V21.122L36.491 21.224L36.5421 21.3261L36.6441 21.4281L36.6952 21.5301L36.7972 21.6322L36.8993 21.6832L37.0524 21.7342L37.1545 21.7852L37.3076 21.8363H37.3586H37.4097H37.5117L37.5628 21.8873H37.6649H37.7159H37.818H37.92L38.0221 21.8363H38.1242L38.2263 21.7852H38.3283L38.4304 21.7342L38.5325 21.6832L38.5835 21.6322L38.6856 21.5301L38.4814 22.6016L38.4304 22.6526L38.3794 22.7036H38.3283L38.2773 22.7546H38.2263L38.1752 22.8056H38.0732L37.9711 22.8567H37.869H37.7159H37.5628H37.4097H37.2055H37.0014H36.7972L36.6441 22.8056L36.44 22.7546L36.2869 22.6526L36.0827 22.5505L35.9296 22.4485L35.7765 22.3465L35.6234 22.1934L35.5213 21.9893L35.4192 21.7852L35.3172 21.5812L35.2151 21.3261L35.1641 21.0709V20.8158V20.5097L35.2151 20.2036L35.2661 20.0505V19.8975L35.3172 19.7444L35.3682 19.5914L35.4192 19.4383L35.4703 19.3363L35.5213 19.1832L35.5724 19.0812L35.6234 18.9281L35.6744 18.8261L35.7255 18.724L35.8275 18.622L35.8786 18.5199L35.9806 18.4179L36.0317 18.3669L36.1338 18.2648L36.2358 18.1628L36.2869 18.1118L36.3889 18.0607L36.491 18.0097L36.5931 17.9077L36.6952 17.8567H36.7972L36.8993 17.8056L37.0524 17.7546L37.1545 17.7036H37.3076L37.4097 17.6526H37.5628H37.6649L37.818 17.6016H37.9711H38.0732L38.2263 17.6526H38.3283H38.4304H38.5835L38.6856 17.7036H38.7877L38.8387 17.7546H38.9408L39.0429 17.8056H39.0939L39.1449 17.8567H39.196H39.247L39.298 17.9077L39.1449 18.9791Z" fill="white"/>
<path d="M39.1449 18.9791L39.0939 18.9281H39.0429L38.9918 18.8771H38.8897L38.8387 18.8261H38.7877L38.7366 18.775H38.6346H38.5835L38.4814 18.724H38.4304H38.3283H38.2773L38.1752 18.673H38.0732H37.9711H37.869L37.7669 18.724H37.6649H37.5628L37.4607 18.775L37.3586 18.8261L37.2566 18.8771L37.1035 18.9281L37.0014 19.0301L36.8993 19.1322L36.8483 19.2342L36.7462 19.3873L36.6441 19.5403L36.5421 19.7444L36.491 19.9485L36.44 20.2036L36.3889 20.3567V20.4587V20.6118V20.7648V20.8669L36.44 21.0199V21.122L36.491 21.224L36.5421 21.3261L36.6441 21.4281L36.6952 21.5301L36.7972 21.6322L36.8993 21.6832L37.0524 21.7342L37.1545 21.7852L37.3076 21.8363H37.3586H37.4097H37.5118L37.5628 21.8873H37.6649H37.7159H37.818H37.92L38.0221 21.8363H38.1242L38.2263 21.7852H38.3283L38.4304 21.7342L38.5325 21.6832L38.5835 21.6322L38.6856 21.5301L38.4814 22.6016L38.4304 22.6526L38.3794 22.7036H38.3283L38.2773 22.7546H38.2263L38.1752 22.8056H38.0732L37.9711 22.8567H37.869H37.7159H37.5628H37.4097H37.2055H37.0014H36.7972L36.6441 22.8056L36.44 22.7546L36.2869 22.6526L36.0827 22.5505L35.9296 22.4485L35.7765 22.3465L35.6234 22.1934L35.5213 21.9893L35.4192 21.7852L35.3172 21.5812L35.2151 21.3261L35.1641 21.0709V20.8158V20.5097L35.2151 20.2036L35.2661 20.0505V19.8975L35.3172 19.7444L35.3682 19.5914L35.4192 19.4383L35.4703 19.3363L35.5213 19.1832L35.5724 19.0812L35.6234 18.9281L35.6744 18.8261L35.7255 18.724L35.8275 18.622L35.8786 18.5199L35.9806 18.4179L36.0317 18.3669L36.1338 18.2648L36.2358 18.1628L36.2869 18.1118L36.3889 18.0607L36.491 18.0097L36.5931 17.9077L36.6952 17.8567H36.7972L36.8993 17.8056L37.0524 17.7546L37.1545 17.7036H37.3076L37.4097 17.6526H37.5628H37.6649L37.818 17.6016H37.9711H38.0732L38.2263 17.6526H38.3283H38.4304H38.5835L38.6856 17.7036H38.7877L38.8387 17.7546H38.9408L39.0429 17.8056H39.0939L39.1449 17.8567H39.196H39.247L39.298 17.9077L39.1449 18.9791Z" stroke="white" stroke-width="0.216" stroke-miterlimit="2.6131"/>
<path fill-rule="evenodd" clip-rule="evenodd" d="M48.6348 22.8557H47.563L47.6651 22.4475V22.3965L47.6141 22.4986L47.512 22.5496L47.461 22.6006L47.4099 22.6516L47.3079 22.7026L47.2568 22.7537L47.2058 22.8047L47.1037 22.8557H47.0527L46.9506 22.9067H46.8996H46.7975H46.7465L46.6444 22.9577H46.5933H46.4913L46.2871 22.9067L46.134 22.8557L45.9299 22.8047L45.7768 22.7026L45.6747 22.6006L45.5216 22.4986L45.4195 22.3455L45.3174 22.1924L45.2664 21.9884L45.2154 21.8353L45.1643 21.6312L45.1133 21.4271V21.2231V21.019V20.8149L45.1643 20.6618L45.2154 20.4067L45.3174 20.2026L45.3685 19.9986L45.4705 19.7945L45.5726 19.6414L45.6747 19.4884L45.8278 19.3353L45.9299 19.2333L46.083 19.0802L46.2361 19.0292L46.3892 18.9271L46.4913 18.8761L46.6444 18.7741H46.7975L47.0016 18.7231H47.1547H47.2568L47.3589 18.7741H47.461H47.563L47.6651 18.8251L47.7161 18.8761L47.8182 18.9271H47.8693L47.9203 18.9782L47.9713 19.0292L48.0224 19.0802L48.0734 19.1312L48.1244 19.1822L48.1755 19.2333V19.2843L48.2265 19.3353L48.4817 17.8047H49.5535L48.6348 22.8557Z" fill="white"/>
<path d="M48.6348 22.8557H47.563L47.6651 22.4475V22.3965L47.6141 22.4986L47.512 22.5496L47.461 22.6006L47.4099 22.6516L47.3079 22.7026L47.2568 22.7537L47.2058 22.8047L47.1037 22.8557H47.0527L46.9506 22.9067H46.8996H46.7975H46.7465L46.6444 22.9577H46.5933H46.4913L46.2871 22.9067L46.134 22.8557L45.9299 22.8047L45.7768 22.7026L45.6747 22.6006L45.5216 22.4986L45.4195 22.3455L45.3174 22.1924L45.2664 21.9884L45.2154 21.8353L45.1643 21.6312L45.1133 21.4271V21.2231V21.019V20.8149L45.1643 20.6618L45.2154 20.4067L45.3174 20.2026L45.3685 19.9986L45.4705 19.7945L45.5726 19.6414L45.6747 19.4884L45.8278 19.3353L45.9299 19.2333L46.083 19.0802L46.2361 19.0292L46.3892 18.9271L46.4913 18.8761L46.6444 18.7741H46.7975L47.0016 18.7231H47.1547H47.2568L47.3589 18.7741H47.461H47.563L47.6651 18.8251L47.7161 18.8761L47.8182 18.9271H47.8693L47.9203 18.9782L47.9713 19.0292L48.0224 19.0802L48.0734 19.1312L48.1244 19.1822L48.1755 19.2333V19.2843L48.2265 19.3353L48.4817 17.8047H49.5535L48.6348 22.8557Z" stroke="white" stroke-width="0.216" stroke-miterlimit="2.6131"/>
<path fill-rule="evenodd" clip-rule="evenodd" d="M46.9012 21.9392H47.0033H47.1054L47.2075 21.8882L47.3095 21.8372L47.3606 21.7861L47.4626 21.7351L47.5137 21.684L47.6158 21.582L47.6668 21.5309L47.7178 21.4289L47.7689 21.3778L47.8199 21.2758V21.1737L47.8709 21.0716L47.922 20.9695V20.8675V20.7654L47.973 20.6123V20.5102L47.922 20.4081V20.3061V20.204L47.8709 20.1529V20.0509L47.8199 19.9488L47.7689 19.8978L47.7178 19.8467L47.6668 19.7957L47.6158 19.7447L47.5137 19.6936H47.4626L47.3606 19.6426L47.2585 19.6936H47.1564L47.1054 19.7447H47.0033L46.9012 19.7957L46.8502 19.8978L46.7992 19.9488L46.6971 19.9998L46.6461 20.1019L46.595 20.204L46.544 20.255L46.493 20.3571L46.4419 20.4592V20.6123L46.3909 20.7143V20.8164L46.3398 20.9695L46.3909 21.1737V21.3778L46.4419 21.5309L46.544 21.684L46.6461 21.8372L46.7481 21.9392H46.9012Z" fill="#FBB231"/>
<path fill-rule="evenodd" clip-rule="evenodd" d="M23.1192 22.0392L22.9661 22.8555H21.9964V22.7025L22.0474 22.6004V22.4474V22.3964L21.9964 22.4984L21.9453 22.5494L21.8943 22.6004L21.7922 22.6515L21.6902 22.7025L21.5881 22.7535L21.486 22.8045L21.3839 22.8555H21.2819L21.1798 22.9066H21.0777L20.9246 22.9576H20.8225H20.7205H20.6184L20.5163 22.9066H20.3632L20.2611 22.8555L20.1591 22.8045L20.057 22.7535L19.9549 22.6515L19.8528 22.6004L19.8018 22.5494L19.7508 22.4474L19.6997 22.3964V22.2943L19.6487 22.1923L19.5977 22.1413V22.0392V21.9372V21.8351V21.7841V21.6311V21.478L19.6487 21.3249L19.6997 21.2229L19.7508 21.0698L19.8528 20.9678L19.9039 20.8658L20.0059 20.7637L20.108 20.6617L20.2101 20.6107L20.3122 20.5086L20.4653 20.4576L20.5674 20.4066L20.7205 20.3555L20.8225 20.3045H20.9756H21.0267H21.0777H21.1288H21.1798L21.2308 20.2535H21.2819H21.3329H21.435H21.486H21.537H21.6391H21.6902L21.7412 20.2025H21.7922H21.8433L21.9453 20.2535H22.0474H22.1495H22.2005H22.2516H22.3026V20.2025L22.3536 20.1515V20.0494V19.9984V19.8964L22.3026 19.8453L22.2516 19.7433L22.2005 19.6923L22.1495 19.6413H22.0474L21.9453 19.5902H21.8433H21.7412H21.6391H21.486H21.3839H21.2308H21.1288H21.0267L20.8736 19.6413H20.7715H20.6694L20.5674 19.6923H20.4653L20.3632 19.7433H20.3122L20.2611 19.7943H20.2101L20.4653 18.876L20.5674 18.8249H20.6694L20.7715 18.7739H20.8225L20.9246 18.7229H21.0267H21.1288H21.2308L21.3329 18.6719H21.486H21.5881H21.6902H21.8433H21.9453H22.0985H22.2005L22.3536 18.7229H22.4557H22.5578L22.7109 18.7739L22.813 18.8249L22.915 18.876L23.0171 18.927L23.1702 19.029L23.2723 19.08L23.3233 19.1821L23.4254 19.2841L23.4764 19.4372L23.5275 19.5392V19.6923V19.8453V19.9984L23.1192 22.0392Z" fill="white"/>
<path d="M23.1192 22.0392L22.9661 22.8555H21.9964V22.7025L22.0474 22.6004V22.4474V22.3964L21.9964 22.4984L21.9453 22.5494L21.8943 22.6004L21.7922 22.6515L21.6902 22.7025L21.5881 22.7535L21.486 22.8045L21.3839 22.8555H21.2819L21.1798 22.9066H21.0777L20.9246 22.9576H20.8225H20.7205H20.6184L20.5163 22.9066H20.3632L20.2611 22.8555L20.1591 22.8045L20.057 22.7535L19.9549 22.6515L19.8528 22.6004L19.8018 22.5494L19.7508 22.4474L19.6997 22.3964V22.2943L19.6487 22.1923L19.5977 22.1413V22.0392V21.9372V21.8351V21.7841V21.6311V21.478L19.6487 21.3249L19.6997 21.2229L19.7508 21.0698L19.8528 20.9678L19.9039 20.8658L20.0059 20.7637L20.108 20.6617L20.2101 20.6107L20.3122 20.5086L20.4653 20.4576L20.5674 20.4066L20.7205 20.3555L20.8225 20.3045H20.9756H21.0267H21.0777H21.1288H21.1798L21.2308 20.2535H21.2819H21.3329H21.435H21.486H21.537H21.6391H21.6902L21.7412 20.2025H21.7922H21.8433L21.9453 20.2535H22.0474H22.1495H22.2005H22.2516H22.3026V20.2025L22.3536 20.1515V20.0494V19.9984V19.8964L22.3026 19.8453L22.2516 19.7433L22.2005 19.6923L22.1495 19.6413H22.0474L21.9453 19.5902H21.8433H21.7412H21.6391H21.486H21.3839H21.2308H21.1288H21.0267L20.8736 19.6413H20.7715H20.6694L20.5674 19.6923H20.4653L20.3632 19.7433H20.3122L20.2611 19.7943H20.2101L20.4653 18.876L20.5674 18.8249H20.6694L20.7715 18.7739H20.8225L20.9246 18.7229H21.0267H21.1288H21.2308L21.3329 18.6719H21.486H21.5881H21.6902H21.8433H21.9453H22.0985H22.2005L22.3536 18.7229H22.4557H22.5578L22.7109 18.7739L22.813 18.8249L22.915 18.876L23.0171 18.927L23.1702 19.029L23.2723 19.08L23.3233 19.1821L23.4254 19.2841L23.4764 19.4372L23.5275 19.5392V19.6923V19.8453V19.9984L23.1192 22.0392Z" stroke="white" stroke-width="0.216" stroke-miterlimit="2.6131"/>
<path fill-rule="evenodd" clip-rule="evenodd" d="M22.1986 21.02V20.969H22.1475H22.0965H22.0454L21.9944 20.918H21.9434H21.8923L21.8413 20.969H21.7392H21.6882H21.6372H21.5861H21.5351L21.484 21.02H21.433H21.382L21.3309 21.0711H21.2799H21.2289L21.1778 21.1221H21.1268L21.0758 21.1732L21.0247 21.2242L20.9737 21.2752H20.9226L20.8716 21.3263V21.3773L20.8206 21.4283V21.5304L20.7695 21.5814V21.6835L20.8206 21.7856L20.8716 21.8877L20.9226 21.9387L20.9737 21.9897H21.0247L21.0758 22.0408H21.1268H21.2799L21.382 21.9897H21.484H21.5351L21.6372 21.9387L21.6882 21.8877H21.7903L21.8413 21.8366L21.8923 21.7856L21.9434 21.7346V21.6835L21.9944 21.6325H22.0454V21.5814V21.5304L22.0965 21.4794V21.3773L22.1475 21.2242V21.1221L22.1986 21.02Z" fill="#EC1C2E"/>
<path fill-rule="evenodd" clip-rule="evenodd" d="M14.9543 22.8557H13.9336L14.8012 17.8047H16.6385L16.7916 20.8149L18.0676 17.8047H19.9559L19.0883 22.8557H18.0165L18.68 19.0802H18.629L17.0979 22.8557H15.873V22.7026V22.2945L15.822 21.6822L15.7709 21.019L15.7199 20.3047V19.6924L15.6688 19.2843V19.0802H15.6178L14.9543 22.8557Z" fill="white"/>
<path d="M14.9543 22.8557H13.9336L14.8012 17.8047H16.6385L16.7916 20.8149L18.0676 17.8047H19.9559L19.0883 22.8557H18.0165L18.68 19.0802H18.629L17.0979 22.8557H15.873V22.7026V22.2945L15.822 21.6822L15.7709 21.019L15.7199 20.3047V19.6924L15.6688 19.2843V19.0802H15.6178L14.9543 22.8557Z" stroke="white" stroke-width="0.216" stroke-miterlimit="2.6131"/>
<path fill-rule="evenodd" clip-rule="evenodd" d="M42.3575 22.0392L42.2044 22.8555H41.2347V22.7025V22.6004V22.4984V22.4474L41.1836 22.4984L41.1326 22.5494L41.0305 22.6004L40.9795 22.6515L40.8774 22.7025L40.7753 22.7535L40.7243 22.8045L40.6222 22.8555H40.5202L40.367 22.9066H40.265L40.1629 22.9576H40.0608H39.9587H39.8567L39.7546 22.9066H39.6015L39.4994 22.8555L39.3973 22.8045L39.2953 22.7535L39.1932 22.6515L39.0911 22.6004L39.0401 22.5494L38.989 22.4474L38.938 22.3964V22.2943L38.887 22.1923V22.1413L38.8359 22.0392V21.9372V21.8351V21.7841V21.6311L38.887 21.478V21.3249L38.938 21.2229L38.989 21.0698L39.0911 20.9678L39.1422 20.8658L39.2442 20.7637L39.3463 20.6617L39.4484 20.6107L39.5505 20.5086L39.7036 20.4576L39.8056 20.4066L39.9587 20.3555L40.0608 20.3045H40.2139H40.265H40.316H40.367L40.4691 20.2535H40.5202H40.5712H40.6733H40.7243H40.7753H40.8264H40.8774L40.9284 20.2025H40.9795H41.0816L41.1836 20.2535H41.2857H41.3367H41.4388H41.4899H41.5409V20.2025V20.1515L41.5919 20.0494V19.9984L41.5409 19.8964V19.8453L41.4899 19.7433L41.4388 19.6923L41.3367 19.6413H41.2857L41.1836 19.5902H41.0816H40.9795H40.8774H40.7243H40.6222H40.5202H40.367H40.265L40.1119 19.6413H40.0098H39.9077L39.8056 19.6923H39.7036L39.6015 19.7433H39.5505L39.4994 19.7943H39.4484L39.7036 18.876L39.8056 18.8249H39.9077L40.0098 18.7739H40.0608L40.1629 18.7229H40.265H40.367H40.4691L40.5712 18.6719H40.7243H40.8264H40.9284H41.0305H41.1836H41.2857H41.4388L41.5409 18.7229H41.643H41.7961L41.8981 18.7739L42.0513 18.8249L42.1533 18.876L42.2554 18.927L42.3575 19.029L42.4595 19.08L42.5616 19.1821L42.6637 19.2841L42.7147 19.4372V19.5392L42.7658 19.6923V19.8453V19.9984L42.3575 22.0392Z" fill="white"/>
<path fill-rule="evenodd" clip-rule="evenodd" d="M42.2073 22.9067L42.3604 22.0391H42.3094L42.1562 22.8556H42.2073V22.9067Z" fill="white"/>
<path fill-rule="evenodd" clip-rule="evenodd" d="M41.1836 22.8555L41.2346 22.9065H42.2043V22.8555H41.2346H41.1836V22.9065H41.2346L41.1836 22.8555Z" fill="white"/>
<path fill-rule="evenodd" clip-rule="evenodd" d="M41.2346 22.4475V22.3965L41.1836 22.4986V22.6006V22.7027V22.8558H41.2346V22.7027V22.6006V22.4986V22.4475V22.3965V22.4475Z" fill="white"/>
<path fill-rule="evenodd" clip-rule="evenodd" d="M39.7539 22.9579H39.856H39.9581H40.0601H40.1622H40.2643L40.4174 22.9068H40.5195L40.6215 22.8558L40.7236 22.8048L40.8257 22.7537H40.9277L40.9788 22.6517L41.0809 22.6006L41.1319 22.5496L41.1829 22.4986L41.234 22.4475V22.3965L41.1829 22.4986L41.0809 22.5496L41.0298 22.6006L40.9788 22.6517L40.8767 22.7027L40.7746 22.7537H40.6726L40.6215 22.8048L40.5195 22.8558H40.3663L40.2643 22.9068H40.1622H40.0601H39.9581H39.856H39.7539V22.9579Z" fill="white"/>
<path fill-rule="evenodd" clip-rule="evenodd" d="M38.7852 21.7852V21.8362L38.8362 21.9383V22.0403V22.1424L38.8872 22.1934V22.2955L38.9383 22.3976L38.9893 22.4486L39.0403 22.5507L39.0914 22.6017L39.1935 22.7038L39.2445 22.7549L39.3466 22.8059L39.4997 22.8569L39.6017 22.908L39.7549 22.959V22.908L39.6017 22.8569L39.4997 22.8059L39.3976 22.7549L39.2955 22.7038L39.1935 22.6528L39.1424 22.6017L39.0914 22.4997L39.0403 22.4486L38.9893 22.3466L38.9383 22.2955L38.8872 22.1934V22.0914V22.0403V21.9383L38.8362 21.8362V21.7852H38.7852Z" fill="white"/>
<path fill-rule="evenodd" clip-rule="evenodd" d="M40.2142 20.3047H40.0611L39.908 20.3557L39.8059 20.4068L39.6528 20.4578L39.5507 20.5088L39.4486 20.5599L39.3466 20.6619L39.2445 20.764L39.1424 20.8661L39.0403 20.9682L38.9893 21.0702L38.9383 21.2233L38.8872 21.3254L38.8362 21.4785V21.6316L38.7852 21.7848H38.8362L38.8872 21.6316V21.4785L38.9383 21.3254L38.9893 21.2233L39.0403 21.0702L39.0914 20.9682L39.1935 20.8661L39.2445 20.764L39.3466 20.713L39.4486 20.6109L39.6017 20.5599L39.7038 20.4578L39.8059 20.4068H39.959L40.0611 20.3557L40.2142 20.3047Z" fill="white"/>
<path fill-rule="evenodd" clip-rule="evenodd" d="M40.9804 20.2031H40.9294H40.8783H40.8273H40.7762H40.7252H40.6742L40.5721 20.2542H40.5211H40.47H40.368H40.3169H40.2659H40.2148V20.3052H40.2659H40.3169H40.368H40.47H40.5211H40.5721L40.6742 20.2542H40.7252H40.7762H40.8273H40.8783H40.9294H40.9804V20.2031Z" fill="white"/>
<path fill-rule="evenodd" clip-rule="evenodd" d="M41.5419 20.2542V20.2031H41.4908H41.4398H41.3377H41.2867H41.1846H41.0825H40.9805V20.2542H41.0825H41.1846H41.2867H41.3377H41.4398H41.4908H41.5419Z" fill="white"/>
<path fill-rule="evenodd" clip-rule="evenodd" d="M41.543 20V20.051V20.1531V20.2041V20.2552L41.594 20.2041V20.1531V20.051V20H41.543Z" fill="white"/>
<path fill-rule="evenodd" clip-rule="evenodd" d="M41.082 19.5901L41.1841 19.6411H41.2862L41.3372 19.6922L41.3882 19.7432L41.4393 19.7942L41.4903 19.8453L41.5414 19.8963V19.9984H41.5924V19.8963L41.5414 19.8453L41.4903 19.7432L41.4393 19.6922L41.3882 19.6411L41.2862 19.5901H41.1841L41.082 19.5391V19.5901Z" fill="white"/>
<path fill-rule="evenodd" clip-rule="evenodd" d="M39.4492 19.7942V19.8453L39.5003 19.7942H39.5513L39.6023 19.7432H39.7044L39.8065 19.6922H39.9085H40.0106L40.1127 19.6411H40.2658H40.3679L40.521 19.5901H40.6231H40.7251H40.8782H40.9803H41.0824L40.9803 19.5391H40.8782H40.7251H40.6231L40.521 19.5901H40.3679H40.2658H40.1127L40.0106 19.6411H39.9085H39.8065L39.7044 19.6922H39.6023L39.5513 19.7432H39.5003L39.4492 19.7942H39.5003H39.4492Z" fill="white"/>
<path fill-rule="evenodd" clip-rule="evenodd" d="M39.7044 18.8262V18.8772L39.4492 19.7959H39.5003L39.7554 18.8772L39.7044 18.8262V18.8772V18.8262Z" fill="white"/>
<path fill-rule="evenodd" clip-rule="evenodd" d="M41.4423 18.6719H41.2892H41.1871H41.034H40.9319H40.8298H40.7278H40.5747H40.4726H40.3705L40.2684 18.7229H40.1664H40.0643L40.0133 18.7739H39.9112L39.8091 18.825H39.707L39.7581 18.876H39.8091L39.9112 18.825L40.0133 18.7739H40.0643H40.1664L40.2684 18.7229H40.3705H40.4726H40.5747H40.7278H40.8298H40.9319H41.034H41.1871H41.2892H41.4423V18.6719Z" fill="white"/>
<path fill-rule="evenodd" clip-rule="evenodd" d="M42.7684 19.9988V19.8457V19.6926V19.5395L42.7173 19.3864L42.6663 19.2843L42.5642 19.1822L42.5132 19.0802L42.4111 18.9781L42.258 18.9271L42.1559 18.876L42.0538 18.825L41.9007 18.7739L41.7987 18.7229L41.6966 18.6719H41.5435H41.4414V18.7229H41.5435H41.6456L41.7987 18.7739L41.9007 18.825H42.0028L42.1559 18.9271L42.258 18.9781L42.3601 19.0291L42.4621 19.1312L42.5642 19.2333L42.6153 19.3354L42.6663 19.4374L42.7173 19.5395L42.7684 19.6926V19.8457L42.7173 19.9478L42.7684 19.9988Z" fill="white"/>
<path fill-rule="evenodd" clip-rule="evenodd" d="M42.3596 22.0398L42.7679 19.9983L42.7169 19.9473L42.3086 22.0398H42.3596Z" fill="white"/>
<path fill-rule="evenodd" clip-rule="evenodd" d="M41.3895 21.02V20.969H41.3384L41.2874 20.918H41.2363H41.1853H41.0832L41.0322 20.969H40.9812H40.9301H40.8791H40.828H40.777L40.726 21.02H40.6749H40.6239H40.5729L40.5218 21.0711H40.4708L40.4198 21.1221H40.3687L40.3177 21.1732H40.2666L40.2156 21.2242L40.1646 21.2752L40.1135 21.3263V21.3773L40.0625 21.4283V21.5304V21.5814V21.6835V21.7856V21.8877L40.1135 21.9387L40.2156 21.9897H40.2666L40.3177 22.0408H40.3687H40.5218L40.6239 21.9897H40.726L40.828 21.9387H40.8791L40.9812 21.8877L41.0322 21.8366L41.0832 21.7856H41.1343L41.1853 21.7346L41.2363 21.6835L41.2874 21.6325V21.5814L41.3384 21.5304V21.4794V21.4283V21.3263L41.3895 21.2242V21.1221V21.02Z" fill="#FBB231"/>
<path fill-rule="evenodd" clip-rule="evenodd" d="M49.4023 22.3463V22.2442V22.1422L49.4534 22.0401L49.5555 21.989L49.6065 21.938L49.7086 21.887L49.8106 21.8359H49.9127H50.0148L50.1169 21.887L50.2189 21.938L50.321 21.989L50.372 22.0401L50.4231 22.1422L50.4741 22.2442V22.3463H50.372V22.2953L50.321 22.1932L50.27 22.1422L50.2189 22.0401L50.1679 21.989L50.1169 21.938H50.0148H49.9127H49.8617H49.7596L49.6575 21.989L49.6065 22.0401L49.5555 22.1422L49.5044 22.1932V22.2953V22.3463H49.4023Z" fill="white"/>
<path fill-rule="evenodd" clip-rule="evenodd" d="M49.7578 22.3467V22.1426H49.962H50.013H50.064H50.1151V22.1936V22.2446V22.2957V22.3467H49.962H50.013L50.064 22.2957V22.2446V22.1936H50.013H49.962H49.8088V22.3467H49.7578Z" fill="white"/>
<path fill-rule="evenodd" clip-rule="evenodd" d="M49.4023 22.3457V22.3967V22.4988V22.6009L49.4534 22.703L49.5555 22.754L49.6065 22.805L49.7086 22.8561L49.8106 22.9071H49.9127H50.0148L50.1169 22.8561L50.2189 22.805L50.321 22.754L50.372 22.703L50.4231 22.6009L50.4741 22.4988V22.3967V22.3457H50.372V22.3967V22.4478L50.321 22.5499L50.27 22.6009L50.2189 22.703L50.1679 22.754L50.1169 22.805H50.0148H49.9127H49.8617H49.7596L49.6575 22.754L49.6065 22.703L49.5555 22.6009L49.5044 22.5499V22.4478V22.3967V22.3457H49.4023Z" fill="white"/>
<path fill-rule="evenodd" clip-rule="evenodd" d="M49.7578 22.3457V22.6009H49.8088V22.3967H49.9109L50.064 22.6009H50.1151L50.013 22.3967H50.064L50.1151 22.3457H49.962H49.9109H49.8088H49.7578Z" fill="white"/>
<path d="M49.4026 22.3973V22.2953L49.4536 22.1932L49.5047 22.0911L49.5557 21.989L49.6578 21.938L49.7599 21.887L49.8619 21.8359H49.964H50.0661L50.1682 21.887L50.2702 21.938L50.3723 21.989L50.4233 22.0911L50.4744 22.1932L50.5254 22.2953V22.3973V22.4994L50.4744 22.6015L50.4233 22.7036L50.3723 22.8056L50.2702 22.8567L50.1682 22.9077H50.015H49.913H49.8109L49.7088 22.8567L49.6067 22.8056L49.5047 22.7546L49.4536 22.6525L49.4026 22.5505L49.3516 22.4484L49.4026 22.3973ZM49.8109 22.6015H49.7088V22.1422H49.913H49.964H50.015H50.0661H50.1171V22.1932V22.2442V22.2953V22.3463H50.0661H50.015L50.1171 22.5505H50.015L49.913 22.3463H49.8109V22.6015ZM49.913 22.3463H49.964V22.2953H49.8619V22.4484H49.913V22.3463ZM49.913 22.8056H50.015L50.1171 22.7546L50.1682 22.7036L50.2192 22.6525L50.2702 22.6015L50.3213 22.5505V22.4484V22.3463V22.2442V22.1422L50.2702 22.0401L50.2192 21.989L50.1682 21.938H50.1171H50.015H49.913H49.8109H49.7599L49.7088 21.989L49.6578 22.0401L49.6067 22.0911L49.5047 22.1932V22.2953V22.3973V22.4994V22.6015L49.5557 22.6525L49.6067 22.7036L49.6578 22.7546L49.7088 22.8056L49.8109 22.8567L49.913 22.8056Z" stroke="white" stroke-width="0.216" stroke-miterlimit="2.6131"/>
<path fill-rule="evenodd" clip-rule="evenodd" d="M42.6133 22.8555H43.7361L44.0933 20.6617L44.1444 20.6107V20.5086L44.1954 20.4066V20.3555L44.2465 20.2535L44.2975 20.1515L44.3485 20.1004L44.3996 19.9984L44.5016 19.9474L44.5527 19.8964L44.6547 19.8453L44.7568 19.7943L44.8589 19.7433L44.961 19.6923H45.1141H45.2672H45.3182H45.3693L45.5224 18.6719L45.4203 18.7229H45.3182H45.2162L45.1141 18.7739H45.063L44.961 18.8249L44.9099 18.876L44.8079 18.927L44.7568 18.978L44.7058 19.029L44.6037 19.08L44.5527 19.1311L44.5016 19.2331L44.4506 19.2841L44.3996 19.3351L44.3485 19.4372L44.4506 18.7229H43.3788L42.6133 22.8555Z" fill="white"/>
<path d="M42.6133 22.8555H43.7361L44.0933 20.6617L44.1444 20.6107V20.5086L44.1954 20.4066V20.3555L44.2465 20.2535L44.2975 20.1515L44.3485 20.1004L44.3996 19.9984L44.5016 19.9474L44.5527 19.8964L44.6547 19.8453L44.7568 19.7943L44.8589 19.7433L44.961 19.6923H45.1141H45.2672H45.3182H45.3693L45.5224 18.6719L45.4203 18.7229H45.3182H45.2162L45.1141 18.7739H45.063L44.961 18.8249L44.9099 18.876L44.8079 18.927L44.7568 18.978L44.7058 19.029L44.6037 19.08L44.5527 19.1311L44.5016 19.2331L44.4506 19.2841L44.3996 19.3351L44.3485 19.4372L44.4506 18.7229H43.3788L42.6133 22.8555Z" stroke="white" stroke-width="0.216" stroke-miterlimit="2.6131"/>
<path fill-rule="evenodd" clip-rule="evenodd" d="M32.3555 22.8555H33.4783L33.8355 20.6617L33.8866 20.6107V20.5086V20.4066L33.9376 20.3555L33.9886 20.2535V20.2025L34.0397 20.1515L34.0907 20.0494L34.1928 19.9984L34.2438 19.9474L34.3459 19.8964L34.3969 19.8453H34.55L34.6521 19.7943H34.8052L34.9073 19.7433H34.9583V19.7943H35.0094H35.0604V19.7433V19.6413L35.1114 19.5902V19.4882L35.1625 19.3351V19.2331L35.2135 19.1311L35.2646 19.08L35.3156 18.978V18.927L35.3666 18.876L35.4177 18.7739L35.4687 18.7229H35.4177H35.3666L35.3156 18.6719H35.2646L35.1625 18.7229H35.0604H34.9583L34.8563 18.7739H34.7542L34.7032 18.8249L34.6011 18.876L34.55 18.927L34.499 18.978L34.3969 19.029L34.3459 19.08L34.2949 19.1311L34.2438 19.1821L34.1928 19.2841L34.1418 19.3351L34.0907 19.4372L34.1928 18.7229H33.121L32.3555 22.8555Z" fill="white"/>
<path d="M32.3555 22.8555H33.4783L33.8355 20.6617L33.8866 20.6107V20.5086V20.4066L33.9376 20.3555L33.9886 20.2535V20.2025L34.0397 20.1515L34.0907 20.0494L34.1928 19.9984L34.2438 19.9474L34.3459 19.8964L34.3969 19.8453H34.55L34.6521 19.7943H34.8052L34.9073 19.7433H34.9583V19.7943H35.0094H35.0604V19.7433V19.6413L35.1114 19.5902V19.4882L35.1625 19.3351V19.2331L35.2135 19.1311L35.2646 19.08L35.3156 18.978V18.927L35.3666 18.876L35.4177 18.7739L35.4687 18.7229H35.4177H35.3666L35.3156 18.6719H35.2646L35.1625 18.7229H35.0604H34.9583L34.8563 18.7739H34.7542L34.7032 18.8249L34.6011 18.876L34.55 18.927L34.499 18.978L34.3969 19.029L34.3459 19.08L34.2949 19.1311L34.2438 19.1821L34.1928 19.2841L34.1418 19.3351L34.0907 19.4372L34.1928 18.7229H33.121L32.3555 22.8555Z" stroke="white" stroke-width="0.216" stroke-miterlimit="2.6131"/>
<path fill-rule="evenodd" clip-rule="evenodd" d="M49.4023 26.9376V26.8355L49.4534 26.7334L49.5555 26.6824L49.6065 26.6314L49.7086 26.5803L49.8106 26.5293H49.9127H50.0148L50.1169 26.5803L50.2189 26.6314L50.321 26.6824L50.372 26.7334L50.4231 26.8355L50.4741 26.9376H50.372L50.321 26.8866L50.27 26.7845L50.2189 26.7334L50.1679 26.6824L50.1169 26.6314H50.0148L49.9127 26.5803L49.8617 26.6314H49.7596L49.6575 26.6824L49.6065 26.7334L49.5555 26.7845L49.5044 26.8866V26.9376H49.4023Z" fill="#FBB231"/>
<path fill-rule="evenodd" clip-rule="evenodd" d="M49.7578 26.938V26.8359H49.962H50.013H50.064H50.1151V26.887V26.938H50.064V26.887H50.013H49.962H49.8088V26.938H49.7578Z" fill="#FBB231"/>
<path fill-rule="evenodd" clip-rule="evenodd" d="M49.4023 27.0396V26.9375H49.5044V27.0396H49.4023Z" fill="#FBB231"/>
<path fill-rule="evenodd" clip-rule="evenodd" d="M49.7578 27.0396V26.9375H49.8088V27.0396H49.9109H49.962H50.013V26.9885H50.064V26.9375H50.1151V26.9885V27.0396H49.7578Z" fill="#FBB231"/>
<path fill-rule="evenodd" clip-rule="evenodd" d="M50.3711 27.0396V26.9375H50.4732V27.0396H50.3711Z" fill="#FBB231"/>
<path fill-rule="evenodd" clip-rule="evenodd" d="M49.4023 27.0391V27.1411V27.2432L49.4534 27.3453L49.5555 27.4474L49.6065 27.4984L49.7086 27.5494L49.8106 27.6005H49.9127H50.0148L50.1169 27.5494L50.2189 27.4984L50.321 27.4474L50.372 27.3453L50.4231 27.2432L50.4741 27.1411V27.0391H50.372V27.1411L50.321 27.2432L50.27 27.2942L50.2189 27.3453L50.1679 27.4474H50.1169L50.0148 27.4984H49.9127H49.8617L49.7596 27.4474H49.6575L49.6065 27.3453L49.5555 27.2942L49.5044 27.2432V27.1411V27.0391H49.4023Z" fill="#FBB231"/>
<path fill-rule="evenodd" clip-rule="evenodd" d="M49.7578 27.0391V27.2432H49.8088V27.0901H49.9109L50.064 27.2432H50.1151L50.013 27.0901L50.064 27.0391H50.1151H49.7578Z" fill="#FBB231"/>
<path fill-rule="evenodd" clip-rule="evenodd" d="M32.5067 19.9474L32.4556 19.6923L32.4046 19.4882L32.3025 19.3351L32.2004 19.1821L32.0984 19.029L31.9963 18.927L31.8432 18.876L31.6901 18.8249L31.537 18.7739L31.3839 18.7229L31.2308 18.6719H31.0776H30.9245H30.6183L30.3631 18.7229L30.1079 18.7739L29.8528 18.876L29.6486 18.978L29.4955 19.1311L29.3424 19.2841L29.2403 19.4372L29.0872 19.5902L28.9851 19.7433L28.9341 19.8964L28.8831 20.0494L28.832 20.2025V20.4066V20.5596V20.6617V20.9678V21.2739L28.8831 21.529L28.9341 21.7331L29.0362 21.9372L29.1383 22.0902L29.2914 22.2433L29.4445 22.3964L29.5976 22.4984L29.7507 22.6004L29.9548 22.6515L30.159 22.7025L30.3631 22.7535L30.5673 22.8045H30.7714H30.9756H31.1287H31.2308H31.3328H31.4349H31.537H31.639H31.7411H31.7922H31.8432H31.8942H31.9453H31.9963H32.0473H32.0984L32.1494 22.7535L32.2004 22.7025L32.3536 21.7331L32.1494 21.7841L32.0473 21.8351L31.9453 21.8862L31.7922 21.9372H31.6901H31.588H31.4859H31.3839H31.2818H31.1797H31.0776H30.9756H30.8735H30.7714H30.6693H30.5673H30.4652H30.4142L30.3121 21.8862L30.2611 21.8351L30.21 21.7841L30.159 21.7331L30.1079 21.6821L30.0569 21.6311L30.0059 21.58L29.9548 21.529L29.9038 21.427L29.8528 21.376V21.3249V21.2739V21.2229V21.1719H32.3536V20.9168L32.4046 20.6107L32.4556 20.3045L32.5067 19.9474ZM31.4349 20.3045H30.0059V20.2535V20.1515V20.0494L30.0569 19.9474L30.1079 19.8964L30.159 19.8453L30.21 19.7943L30.2611 19.7433L30.3121 19.6923L30.3631 19.6413L30.4142 19.5902L30.4652 19.5392L30.5162 19.4882H30.5673H30.6183H30.6693H30.7204H30.7714H30.8225H30.8735H30.9245L30.9756 19.5392L31.0266 19.5902L31.0776 19.6413L31.1287 19.6923L31.1797 19.7433L31.2308 19.7943L31.2818 19.8453L31.3328 19.8964V19.9984V20.1004V20.2025L31.4349 20.3045Z" fill="white"/>
</svg>
