<svg width="32" height="32" viewBox="0 0 32 32" fill="none" xmlns="http://www.w3.org/2000/svg">
<path d="M28.9697 9.13977L28.9688 9.11642C28.9555 8.82826 28.9466 8.52339 28.9413 8.18419C28.9164 6.53006 27.5781 5.16181 25.8944 5.06934C22.3839 4.87685 19.6683 3.75213 17.3479 1.52992L17.3281 1.51138C16.5713 0.829541 15.4296 0.829541 14.6726 1.51138L14.6528 1.52992C12.3324 3.75213 9.61675 4.87685 6.10629 5.06957C4.42281 5.16181 3.08431 6.53006 3.05939 8.18442C3.05426 8.52133 3.04518 8.8262 3.0319 9.11642L3.0305 9.17067C2.96225 12.6879 2.87746 17.0652 4.36783 21.0384C5.18733 23.2233 6.42845 25.1226 8.0565 26.6838C9.91073 28.4617 12.3394 29.8732 15.275 30.8789C15.3705 30.9117 15.4697 30.9382 15.5708 30.9581C15.7134 30.986 15.8568 31 16.0003 31C16.1438 31 16.2876 30.986 16.4299 30.9581C16.531 30.9382 16.6309 30.9114 16.7269 30.8785C19.6589 29.8709 22.0851 28.4587 23.9377 26.681C25.565 25.1194 26.8061 23.2196 27.6263 21.0343C29.1223 17.0492 29.0377 12.6636 28.9697 9.13977ZM25.9454 20.4252C24.3735 24.6128 21.1647 27.4887 16.1357 29.2168C16.1177 29.2227 16.0986 29.228 16.0788 29.2319C16.0269 29.242 15.974 29.242 15.9214 29.2317C15.9018 29.2278 15.8827 29.2227 15.865 29.2168C10.8306 27.4919 7.61973 24.6176 6.04899 20.4298C4.67532 16.7675 4.75312 12.7492 4.82184 9.20431L4.82231 9.18463C4.83628 8.87999 4.8456 8.56093 4.85073 8.21028C4.86191 7.4758 5.45731 6.86812 6.20622 6.82715C8.19277 6.7182 9.93798 6.341 11.5416 5.67404C13.1431 5.008 14.5654 4.06913 15.8895 2.80387C15.9568 2.74802 16.0441 2.7478 16.1112 2.80387C17.4355 4.06913 18.8579 5.008 20.4591 5.67404C22.0627 6.341 23.8079 6.7182 25.7947 6.82715C26.5436 6.86812 27.139 7.4758 27.1499 8.21051C27.1553 8.56299 27.1646 8.88205 27.1786 9.18463C27.2471 12.7337 27.323 16.7551 25.9454 20.4252Z" fill="#FF5134"/>
<path d="M16 8C11.5887 8 8 11.5889 8 15.9999C8 20.4111 11.5887 24 16 24C20.4111 24 24 20.4111 24 15.9999C24 11.5889 20.4111 8 16 8ZM16 22.1162C12.6273 22.1162 9.88361 19.3725 9.88361 15.9999C9.88361 12.6273 12.6273 9.88358 16 9.88358C19.3724 9.88358 22.1161 12.6273 22.1161 15.9999C22.1161 19.3725 19.3724 22.1162 16 22.1162Z" fill="#FF5134"/>
<path d="M18.38 13.2644L14.6361 16.8226L13.62 15.8568C13.2493 15.5046 12.6484 15.5046 12.2778 15.8568C11.9074 16.2091 11.9074 16.7802 12.2778 17.1322L13.9652 18.7359C14.1505 18.9121 14.3933 19 14.6361 19C14.8789 19 15.1218 18.9121 15.3071 18.7359L19.7222 14.5397C20.0926 14.1875 20.0926 13.6164 19.7222 13.2644C19.3516 12.9119 18.7507 12.9119 18.38 13.2644Z" fill="#FF5134"/>
</svg>
