<svg width="96" height="96" viewBox="0 0 96 96" fill="none" xmlns="http://www.w3.org/2000/svg">
<g filter="url(#filter0_d)">
<circle cx="48" cy="45" r="36" fill="#FFDA44"/>
</g>
<path d="M63 44.1667C63.0057 46.3665 62.4918 48.5365 61.5 50.5C60.3241 52.853 58.5162 54.832 56.2791 56.2155C54.0419 57.599 51.4637 58.3324 48.8333 58.3334C46.6336 58.3391 44.4635 57.8252 42.5 56.8334L33 60L36.1667 50.5C35.1749 48.5365 34.6609 46.3665 34.6667 44.1667C34.6677 41.5363 35.401 38.9581 36.7845 36.721C38.168 34.4838 40.1471 32.676 42.5 31.5C44.4635 30.5083 46.6336 29.9943 48.8333 30H49.6667C53.1406 30.1917 56.4217 31.658 58.8819 34.1181C61.3421 36.5783 62.8083 39.8595 63 43.3334V44.1667Z" fill="white" fill-opacity="0.43" stroke="white" stroke-width="2" stroke-linecap="round" stroke-linejoin="round"/>
<defs>
<filter id="filter0_d" x="0" y="0" width="96" height="96" filterUnits="userSpaceOnUse" color-interpolation-filters="sRGB">
<feFlood flood-opacity="0" result="BackgroundImageFix"/>
<feColorMatrix in="SourceAlpha" type="matrix" values="0 0 0 0 0 0 0 0 0 0 0 0 0 0 0 0 0 0 127 0"/>
<feOffset dy="3"/>
<feGaussianBlur stdDeviation="6"/>
<feColorMatrix type="matrix" values="0 0 0 0 1 0 0 0 0 0.854902 0 0 0 0 0.266667 0 0 0 0.6 0"/>
<feBlend mode="normal" in2="BackgroundImageFix" result="effect1_dropShadow"/>
<feBlend mode="normal" in="SourceGraphic" in2="effect1_dropShadow" result="shape"/>
</filter>
</defs>
</svg>
