<svg width="20" height="20" viewBox="0 0 20 20" fill="none" xmlns="http://www.w3.org/2000/svg">
<path d="M12.6657 4V5.71429V4ZM12.6657 9.14286V10.8571V9.14286ZM12.6657 14.2857V16V14.2857ZM3.7768 4C3.30531 4 2.85312 4.18061 2.51972 4.5021C2.18632 4.82359 1.99902 5.25963 1.99902 5.71429V8.28571C2.47052 8.28571 2.9227 8.46633 3.2561 8.78782C3.5895 9.10931 3.7768 9.54534 3.7768 10C3.7768 10.4547 3.5895 10.8907 3.2561 11.2122C2.9227 11.5337 2.47052 11.7143 1.99902 11.7143V14.2857C1.99902 14.7404 2.18632 15.1764 2.51972 15.4979C2.85312 15.8194 3.30531 16 3.7768 16H16.2212C16.6927 16 17.1449 15.8194 17.4783 15.4979C17.8117 15.1764 17.999 14.7404 17.999 14.2857V11.7143C17.5275 11.7143 17.0753 11.5337 16.7419 11.2122C16.4085 10.8907 16.2212 10.4547 16.2212 10C16.2212 9.54534 16.4085 9.10931 16.7419 8.78782C17.0753 8.46633 17.5275 8.28571 17.999 8.28571V5.71429C17.999 5.25963 17.8117 4.82359 17.4783 4.5021C17.1449 4.18061 16.6927 4 16.2212 4H3.7768Z" stroke="#0DB886" stroke-width="1.5" stroke-linecap="round" stroke-linejoin="round"/>
</svg>
