<svg width="20" height="20" viewBox="0 0 20 20" fill="none" xmlns="http://www.w3.org/2000/svg">
<path d="M12.6667 4V5.71429V4ZM12.6667 9.14286V10.8571V9.14286ZM12.6667 14.2857V16V14.2857ZM3.77778 4C3.30628 4 2.8541 4.18061 2.5207 4.5021C2.1873 4.82359 2 5.25963 2 5.71429V8.28571C2.4715 8.28571 2.92368 8.46633 3.25708 8.78782C3.59048 9.10931 3.77778 9.54534 3.77778 10C3.77778 10.4547 3.59048 10.8907 3.25708 11.2122C2.92368 11.5337 2.4715 11.7143 2 11.7143V14.2857C2 14.7404 2.1873 15.1764 2.5207 15.4979C2.8541 15.8194 3.30628 16 3.77778 16H16.2222C16.6937 16 17.1459 15.8194 17.4793 15.4979C17.8127 15.1764 18 14.7404 18 14.2857V11.7143C17.5285 11.7143 17.0763 11.5337 16.7429 11.2122C16.4095 10.8907 16.2222 10.4547 16.2222 10C16.2222 9.54534 16.4095 9.10931 16.7429 8.78782C17.0763 8.46633 17.5285 8.28571 18 8.28571V5.71429C18 5.25963 17.8127 4.82359 17.4793 4.5021C17.1459 4.18061 16.6937 4 16.2222 4H3.77778Z" stroke="#1E2843" stroke-width="1.5" stroke-linecap="round" stroke-linejoin="round"/>
</svg>
