<svg width="64" height="40" viewBox="0 0 64 40" fill="none" xmlns="http://www.w3.org/2000/svg">
<path d="M64 37.8571C64 39.0306 63.0303 40 61.8565 40H2.14354C0.969697 40 0 39.0306 0 37.8571V2.14286C0 0.969388 0.969697 0 2.14354 0H61.9075C63.0813 0 64.051 0.969388 64.051 2.14286V37.8571H64Z" fill="white"/>
<path d="M44.3521 17.8571C43.9438 17.6531 43.3313 17.5 42.4637 17.5C42.0554 17.5 41.5961 17.551 41.1878 17.602C40.8816 17.6531 40.8305 17.6531 40.6264 17.7041C40.2181 17.8061 40.1671 18.2143 40.1671 18.2143L40.0139 18.7245C39.9629 19.0816 40.116 19.0306 40.2181 19.0306C40.3712 18.9796 40.4733 18.9286 40.8305 18.8265C41.1878 18.7245 41.545 18.6735 41.8513 18.6735C42.2596 18.6735 42.6168 18.7245 42.821 18.8265C43.0251 18.9286 43.1272 19.0816 43.1272 19.2857C43.1272 19.3367 43.1272 19.3878 43.1272 19.4388C43.1272 19.4898 43.0761 19.5408 42.9741 19.5408C42.3616 19.5918 41.9533 19.6429 41.3919 19.6939C40.8816 19.7449 40.4222 19.898 40.0139 20.051C39.6057 20.2551 39.2994 20.4592 39.0953 20.7653C38.8911 21.1225 38.7891 21.5306 38.7891 21.9388C38.7891 22.3469 38.9422 22.7041 39.2484 22.9592C39.5546 23.2143 39.9119 23.3673 40.3712 23.3673C40.6774 23.3673 40.8816 23.3673 41.0347 23.3163C41.1878 23.2653 41.3409 23.2143 41.545 23.1633C41.6982 23.1122 41.8513 23.0102 42.0044 22.9082C42.1575 22.8061 42.2596 22.7551 42.4127 22.6531L42.3616 22.7551C42.3106 22.9592 42.4637 23.1122 42.6679 23.1633C42.821 23.1633 43.2803 23.1633 43.4844 23.1633H43.6375C43.8417 23.1633 44.0458 22.9592 44.0969 22.7551L44.8624 19.3878C44.8624 19.2857 44.9135 19.2347 44.9135 19.1327C44.9135 19.0306 44.9135 18.9286 44.9135 18.8776C44.9645 18.4184 44.7604 18.0612 44.3521 17.8571ZM42.4637 21.8367C42.3106 21.9388 42.2085 21.9898 42.0554 22.0408C41.8513 22.1429 41.6471 22.1429 41.494 22.1429C41.2388 22.1429 41.0347 22.0918 40.8816 22.0408C40.7285 21.9898 40.6774 21.8367 40.6774 21.6327C40.6774 21.4286 40.7285 21.2245 40.8305 21.1225C40.9326 20.9694 41.0857 20.8673 41.2899 20.8163C41.494 20.7653 41.6982 20.7143 42.0044 20.6633C42.2596 20.6122 42.7189 20.5612 42.7699 20.5612C42.821 20.5612 42.872 20.5102 42.821 20.7143C42.821 20.7653 42.6679 21.3776 42.6168 21.6327C42.6168 21.6837 42.5147 21.7857 42.4637 21.8367Z" fill="#336699"/>
<path d="M30.9264 17.5508C30.7222 17.5508 30.416 17.7549 30.2629 17.9589C30.2629 17.9589 28.7318 20.561 28.5787 20.8161C28.4766 20.9691 28.4256 20.8671 28.3745 20.8161C28.3745 20.7651 27.9152 17.9589 27.9152 17.9589C27.8642 17.7549 27.609 17.5508 27.3538 17.5508H26.3841C26.1289 17.5508 26.0268 17.7549 26.0779 17.9589C26.0779 17.9589 26.7924 22.0916 26.9455 23.061C26.9965 23.6222 26.9455 23.6732 26.9455 23.6732L26.0268 25.3569C25.8737 25.561 25.9758 25.7651 26.18 25.7651H27.3028C27.5069 25.7651 27.8131 25.561 27.9662 25.3569L32.2023 18.163C32.2023 18.163 32.6106 17.5508 32.2533 17.5508C31.9471 17.5508 30.9264 17.5508 30.9264 17.5508Z" fill="#003366"/>
<path d="M17.5568 19.0307C17.2506 19.2858 16.7913 19.3878 16.2299 19.3878H15.9747C15.7195 19.3878 15.6174 19.1838 15.6685 18.9797L15.9747 17.6021C16.0257 17.398 16.2299 17.194 16.4851 17.194H16.8423C17.2506 17.194 17.5568 17.245 17.761 17.398C17.9651 17.5511 18.0672 17.7552 18.0672 18.0103C18.0162 18.4695 17.863 18.7756 17.5568 19.0307ZM19.8535 16.8878C19.7004 16.6327 19.5473 16.4287 19.2921 16.2756C19.0369 16.1225 18.7307 16.0205 18.3734 15.9184C18.0162 15.8674 17.6079 15.8164 17.0975 15.8164H14.8519C14.5967 15.8164 14.3926 16.0205 14.3415 16.2246L12.8615 22.7552C12.8104 22.9593 12.9635 23.1633 13.1677 23.1633H14.2394C14.4436 23.1633 14.6988 22.9593 14.7498 22.7552L15.1071 21.1736C15.1581 20.9695 15.3623 20.7654 15.6174 20.7654H15.9237C17.2506 20.7654 18.2203 20.5103 18.9859 19.9491C19.7004 19.4389 20.0576 18.7246 20.0576 17.8572C20.0576 17.5001 20.0066 17.1429 19.8535 16.8878Z" fill="#003366"/>
<path d="M36.9006 19.0815C36.5944 19.3366 36.135 19.4386 35.5736 19.4386H35.3184C35.0633 19.4386 34.9612 19.2345 35.0122 19.0305L35.3184 17.6529C35.3695 17.4488 35.5736 17.2447 35.8288 17.2447H36.1861C36.5944 17.2447 36.9006 17.2958 37.1047 17.4488C37.3089 17.6019 37.4109 17.806 37.4109 18.0611C37.3599 18.4692 37.2068 18.8264 36.9006 19.0815ZM39.1972 16.9386C39.0441 16.6835 38.84 16.4794 38.6358 16.3264C38.3806 16.1733 38.0744 16.0713 37.7172 15.9692C37.3599 15.9182 36.9516 15.8672 36.4412 15.8672H34.1956C33.9405 15.8672 33.7363 16.0713 33.6853 16.2754L32.2052 22.806C32.1542 23.01 32.3073 23.2141 32.5114 23.2141H33.5832C33.7873 23.2141 34.0425 23.01 34.0936 22.806L34.4508 21.2243C34.5019 21.0202 34.757 20.8162 34.9612 20.8162H35.2674C36.5944 20.8162 37.5641 20.5611 38.3296 19.9998C39.0441 19.4386 39.4014 18.7754 39.4014 17.908C39.4014 17.4998 39.3503 17.1937 39.1972 16.9386Z" fill="#336699"/>
<path d="M25.0083 17.8571C24.6 17.6531 23.9876 17.5 23.12 17.5C22.7117 17.5 22.2523 17.551 21.844 17.602C21.5378 17.6531 21.4868 17.6531 21.2826 17.7041C20.8743 17.8061 20.8233 18.2143 20.8233 18.2143L20.6702 18.7245C20.6192 19.0816 20.7723 19.0306 20.8743 19.0306C21.0275 18.9796 21.1295 18.9286 21.4868 18.8265C21.844 18.7245 22.2013 18.6735 22.5075 18.6735C22.9158 18.6735 23.2731 18.7245 23.4772 18.8265C23.6814 18.9286 23.7834 19.0816 23.7834 19.2857C23.7834 19.3367 23.7834 19.3878 23.7834 19.4388C23.7834 19.4898 23.7324 19.5408 23.6303 19.5408C23.0179 19.5918 22.6096 19.6429 22.0482 19.6939C21.5378 19.7449 21.0785 19.898 20.6702 20.051C20.2619 20.2551 19.9557 20.4592 19.7515 20.7653C19.5474 21.0714 19.4453 21.4286 19.4453 21.8878C19.4453 22.2959 19.5984 22.6531 19.9046 22.9082C20.2109 23.1633 20.5681 23.3163 21.0275 23.3163C21.3337 23.3163 21.5378 23.3163 21.6909 23.2653C21.844 23.2143 21.9971 23.1633 22.2013 23.1122C22.3544 23.0612 22.5075 22.9592 22.6606 22.8571C22.8137 22.7551 22.9158 22.7041 23.0689 22.602L23.0179 22.7551C22.9668 22.9592 23.12 23.1122 23.3241 23.1633C23.4772 23.1633 23.9365 23.1633 24.1407 23.1633H24.2938C24.4979 23.1122 24.7021 22.9592 24.7531 22.7551L25.5187 19.3878C25.5187 19.2857 25.5697 19.2347 25.5697 19.1327C25.5697 19.0306 25.5697 18.9286 25.5697 18.8776C25.5697 18.4184 25.3656 18.0612 25.0083 17.8571ZM23.12 21.8367C22.9668 21.9388 22.8648 21.9898 22.7117 22.0408C22.5075 22.1429 22.3034 22.1429 22.1503 22.1429C21.8951 22.1429 21.6909 22.0918 21.5378 22.0408C21.3847 21.9898 21.3337 21.8367 21.3337 21.6327C21.3337 21.4286 21.3847 21.2245 21.4868 21.1225C21.5889 20.9694 21.742 20.8673 21.9461 20.8163C22.1503 20.7653 22.3544 20.7143 22.6606 20.6633C22.9158 20.6122 23.3751 20.5612 23.4262 20.5612C23.4772 20.5612 23.5282 20.5102 23.4772 20.7143C23.4772 20.7653 23.3241 21.3776 23.2731 21.6327C23.2731 21.6837 23.171 21.7857 23.12 21.8367Z" fill="#003366"/>
<path d="M48.0245 15.918H47.0548C46.8506 15.918 46.6465 16.071 46.5444 16.2751C46.5444 16.2751 46.5444 16.2751 46.5444 16.3261C46.5444 16.3261 46.5444 16.4282 46.4934 16.5812L45.1664 22.5506C45.1154 22.7037 45.1154 22.8057 45.1154 22.8057C45.0643 23.0098 45.2174 23.1629 45.4216 23.2139H46.3913C46.5954 23.2139 46.7996 23.0608 46.9016 22.8567C46.9016 22.8567 46.9016 22.8567 46.9016 22.8057L48.3307 16.3261C48.3817 16.071 48.2286 15.918 48.0245 15.918Z" fill="#336699"/>
<path d="M49.4525 17.2452C49.4015 17.2452 49.4015 17.2452 49.3505 17.2452C49.2994 17.2452 49.2994 17.2452 49.2484 17.2452C49.1463 17.2452 49.0442 17.1941 48.9932 17.1431C48.9422 17.0921 48.8911 16.99 48.8911 16.8879V16.3265H48.7891V16.1734H48.8911V15.8672H49.0442V16.1734H49.4015V16.3265H49.0442V16.8369C49.0442 16.8879 49.0442 16.939 49.0442 16.939C49.0442 16.99 49.0442 16.99 49.0953 17.041L49.1463 17.0921C49.1463 17.0921 49.1974 17.0921 49.2484 17.0921C49.2994 17.0921 49.2994 17.0921 49.3505 17.0921C49.4015 17.0921 49.4015 17.0921 49.4015 17.0921V17.2452H49.4525Z" fill="#336699"/>
<path d="M51.1871 17.2459H51.034V16.6334C51.034 16.5824 51.034 16.5313 51.034 16.4803C51.034 16.4293 51.034 16.4293 50.9829 16.3782C50.9829 16.3272 50.9319 16.3272 50.9319 16.3272C50.8809 16.3272 50.8809 16.3272 50.8298 16.3272C50.7788 16.3272 50.7278 16.3272 50.6767 16.3782C50.6257 16.3782 50.5747 16.4293 50.5236 16.4803V16.5313V16.5824V17.2459H50.3705V16.6334C50.3705 16.5824 50.3705 16.5313 50.3705 16.4803C50.3705 16.4293 50.3705 16.4293 50.3195 16.3782C50.3195 16.3272 50.2684 16.3272 50.2684 16.3272C50.2174 16.3272 50.2174 16.3272 50.1664 16.3272C50.1153 16.3272 50.0643 16.3272 50.0133 16.3782C49.9622 16.3782 49.9112 16.4293 49.8601 16.4803V17.2459H49.707V16.2251H49.8601V16.3272C49.9112 16.2762 49.9622 16.2251 50.0133 16.2251C50.0643 16.2251 50.1153 16.1741 50.1664 16.1741C50.2174 16.1741 50.3195 16.1741 50.3705 16.2251C50.4215 16.2762 50.4726 16.2762 50.4726 16.3272C50.5236 16.2762 50.6257 16.2251 50.6767 16.1741C50.7278 16.123 50.7788 16.123 50.8809 16.123C50.9829 16.123 51.085 16.1741 51.1361 16.2251C51.1871 16.2762 51.2381 16.3782 51.2381 16.5313V17.2459H51.1871Z" fill="#336699"/>
</svg>
