<svg width="16" height="16" viewBox="0 0 16 16" fill="none" xmlns="http://www.w3.org/2000/svg">
<path d="M11.8042 8.19615C11.5436 7.93549 11.1222 7.93549 10.8616 8.19615L9.79891 9.25882C9.30624 9.11215 8.38691 8.77882 7.80424 8.19615C7.22157 7.61349 6.88824 6.69415 6.74157 6.20148L7.80424 5.13882C8.06491 4.87815 8.06491 4.45682 7.80424 4.19615L5.13757 1.52948C4.8769 1.26882 4.45557 1.26882 4.19491 1.52948L2.3869 3.33748C2.13357 3.59082 1.9909 3.93882 1.99624 4.29415C2.01157 5.24348 2.26291 8.54082 4.86157 11.1395C7.46024 13.7382 10.7576 13.9888 11.7076 14.0048C11.7109 14.0048 11.7229 14.0048 11.7262 14.0048C12.0782 14.0048 12.4109 13.8662 12.6629 13.6142L14.4709 11.8062C14.7316 11.5455 14.7316 11.1242 14.4709 10.8635L11.8042 8.19615ZM11.7196 12.6708C10.8876 12.6568 8.04091 12.4335 5.80424 10.1962C3.56024 7.95215 3.3429 5.09548 3.32957 4.28015L4.66624 2.94348L6.39024 4.66748L5.52824 5.52948C5.36891 5.68815 5.30091 5.91748 5.34691 6.13749C5.36291 6.21415 5.75424 8.03215 6.86091 9.13882C7.96757 10.2455 9.78557 10.6368 9.86224 10.6528C10.0842 10.7002 10.3116 10.6315 10.4702 10.4722L11.3329 9.61015L13.0569 11.3342L11.7196 12.6708Z" fill="#1E2843"/>
</svg>
