<svg width="20" height="20" viewBox="0 0 20 20" fill="none" xmlns="http://www.w3.org/2000/svg">
<path fill-rule="evenodd" clip-rule="evenodd" d="M5.73409 3.65804C4.69914 4.65717 4.09026 6.01415 4.03364 7.44776C4.01129 7.66119 4.00006 7.87563 4 8.09022C4.0015 8.2868 4.01913 8.48294 4.05272 8.67667C4.28579 11.0096 7.13347 15.8154 9.02215 18.3185C9.63214 19.1276 10.2116 19.3258 10.9857 18.3071C12.883 15.8102 15.713 11.0063 15.9461 8.67762C15.9803 8.48363 15.9984 8.28716 16 8.09022C15.9999 7.87453 15.9887 7.65898 15.9664 7.44444C15.9077 6.01025 15.2949 4.65393 14.2557 3.65827C11.9559 1.45251 8.03093 1.44206 5.73409 3.65804ZM10.0005 4.13982C10.6622 4.1405 11.309 4.33585 11.8595 4.7013C12.4099 5.06675 12.8395 5.58597 13.0941 6.19366C13.3487 6.80135 13.417 7.47036 13.2903 8.11656C13.1637 8.76276 12.8479 9.35729 12.3825 9.82536C12.0744 10.1432 11.704 10.3949 11.2944 10.5648C10.8847 10.7348 10.4443 10.8194 10.0005 10.8134C9.55995 10.8204 9.12278 10.7362 8.71673 10.5661C8.31067 10.396 7.94463 10.1438 7.64184 9.82536C7.32764 9.517 7.07816 9.14962 6.90788 8.74454C6.73759 8.33946 6.6499 7.90476 6.6499 7.46568C6.6499 7.0266 6.73759 6.5919 6.90788 6.18682C7.07816 5.78174 7.32764 5.41435 7.64184 5.106C7.9477 4.7931 8.31482 4.54593 8.72051 4.37979C9.1262 4.21364 9.56183 4.13205 10.0005 4.14006V4.13982Z" fill="#00A1FF"/>
</svg>
