<svg width="20" height="20" viewBox="0 0 20 20" fill="none" xmlns="http://www.w3.org/2000/svg">
<path d="M17 18V16.3333C17 15.4493 16.6067 14.6014 15.9065 13.9763C15.2064 13.3512 14.2568 13 13.2667 13H6.73333C5.74319 13 4.7936 13.3512 4.09347 13.9763C3.39333 14.6014 3 15.4493 3 16.3333V18" stroke="url(#paint0_linear)" stroke-width="1.5" stroke-linecap="round" stroke-linejoin="round"/>
<path d="M10 10C12.2091 10 14 8.20914 14 6C14 3.79086 12.2091 2 10 2C7.79086 2 6 3.79086 6 6C6 8.20914 7.79086 10 10 10Z" stroke="url(#paint1_linear)" stroke-width="1.5" stroke-linecap="round" stroke-linejoin="round"/>
<defs>
<linearGradient id="paint0_linear" x1="10" y1="13" x2="10" y2="21.3929" gradientUnits="userSpaceOnUse">
<stop stop-color="#FF7C66"/>
<stop offset="1" stop-color="#FF5134"/>
</linearGradient>
<linearGradient id="paint1_linear" x1="10" y1="2" x2="10" y2="15.4286" gradientUnits="userSpaceOnUse">
<stop stop-color="#FF7C66"/>
<stop offset="1" stop-color="#FF5134"/>
</linearGradient>
</defs>
</svg>
