<svg width="26" height="31" viewBox="0 0 26 31" fill="none" xmlns="http://www.w3.org/2000/svg">
<path fill-rule="evenodd" clip-rule="evenodd" d="M9.19467 0.000338822C11.396 -0.0150719 13.5688 0.495424 15.5298 1.48876C17.4907 2.4821 19.1823 3.92914 20.4618 5.70782C22.6263 8.76599 25.2809 7.01293 25.2809 10.7571V15.0095C25.2547 16.0075 24.8321 16.9547 24.1053 17.6445C23.3786 18.3344 22.4066 18.711 21.4013 18.6922H20.8572C20.522 18.6985 20.1979 18.5729 19.9557 18.3428C19.7135 18.1127 19.5727 17.7969 19.5642 17.4641V10.3549C19.5642 9.25372 18.9796 8.01645 18.3152 7.07723C17.2799 5.63683 15.9106 4.46493 14.3231 3.6605C12.7357 2.85606 10.9765 2.44271 9.19432 2.45533C6.68227 2.47153 4.24317 3.29563 2.24255 4.80411C0.646907 5.99164 0.12564 3.38319 0.737779 2.81056C3.16925 0.976755 6.14132 -0.0108633 9.19467 0.000338822Z" fill="#FF5134"/>
<path fill-rule="evenodd" clip-rule="evenodd" d="M2.81485 7.19262C1.26273 8.68809 0.349593 10.7192 0.264678 12.8649C0.231158 13.1844 0.214321 13.5054 0.214233 13.8265C0.216485 14.1208 0.242929 14.4143 0.2933 14.7043C0.642839 18.1962 4.91351 25.3893 7.74595 29.1359C8.66076 30.3469 9.52978 30.6435 10.6907 29.1188C13.5361 25.3815 17.7802 18.1913 18.1298 14.7057C18.1812 14.4154 18.2082 14.1213 18.2106 13.8265C18.2106 13.5037 18.1937 13.1811 18.1602 12.86C18.0723 10.7133 17.1532 8.68324 15.5946 7.19298C12.1458 3.89147 6.25943 3.87584 2.81485 7.19262ZM9.21315 7.91374C10.2056 7.91476 11.1756 8.20716 12.0011 8.75414C12.8266 9.30113 13.4708 10.0783 13.8526 10.9878C14.2344 11.8974 14.3368 12.8988 14.147 13.866C13.9571 14.8332 13.4834 15.723 12.7855 16.4236C12.3234 16.8994 11.768 17.2761 11.1536 17.5304C10.5392 17.7848 9.87877 17.9114 9.21315 17.9024C8.5525 17.913 7.89687 17.787 7.28791 17.5324C6.67896 17.2778 6.12999 16.9002 5.67591 16.4236C5.2047 15.9621 4.83055 15.4122 4.57518 14.8059C4.3198 14.1996 4.18829 13.5489 4.18829 12.8918C4.18829 12.2346 4.3198 11.5839 4.57518 10.9776C4.83055 10.3713 5.2047 9.82141 5.67591 9.35988C6.1346 8.89153 6.68518 8.52159 7.29359 8.27291C7.902 8.02423 8.55532 7.90211 9.21315 7.91409V7.91374Z" fill="#FF5134"/>
</svg>
