<svg width="84" height="84" viewBox="0 0 84 84" fill="none" xmlns="http://www.w3.org/2000/svg">
<path d="M42 84C18.804 84 -2.84981e-06 65.196 -1.83588e-06 42C-8.21951e-07 18.804 18.804 -2.84981e-06 42 -1.83588e-06C65.196 -8.21951e-07 84 18.804 84 42C84 65.196 65.196 84 42 84ZM42 4.2C21.1236 4.2 4.2 21.1236 4.2 42C4.19999 62.8764 21.1236 79.8 42 79.8C62.8764 79.8 79.8 62.8764 79.8 42C79.8 21.1236 62.8764 4.2 42 4.2Z" fill="#4CD964"/>
<path d="M29.5 41L38 49.5L55 32.5" stroke="#4CD964" stroke-width="4"/>
</svg>
