<svg width="48" height="24" viewBox="0 0 48 24" fill="none" xmlns="http://www.w3.org/2000/svg">
<g clip-path="url(#clip0)">
<path d="M14.6621 1.29904L15.916 3.98526L13.018 4.69122" stroke="#B7BCCA" stroke-width="1.5" stroke-linecap="round" stroke-linejoin="round"/>
<path d="M14.4371 21.0496C12.4576 21.6992 10.3123 21.6951 8.3245 21.0379C6.33671 20.3808 4.61412 19.1061 3.41631 17.4061C2.21851 15.7062 1.61039 13.6729 1.68358 11.6127C1.75678 9.5526 2.50732 7.57719 3.82212 5.98419C5.13692 4.3912 6.94474 3.26692 8.97316 2.78078C11.0016 2.29463 13.1407 2.47297 15.0682 3.2889" stroke="#B7BCCA" stroke-width="1.5" stroke-linecap="round" stroke-linejoin="round"/>
<path d="M7.372 16V14.92L10.3 11.932C11.012 11.22 11.368 10.604 11.368 10.084C11.368 9.676 11.244 9.36 10.996 9.136C10.756 8.904 10.448 8.788 10.072 8.788C9.368 8.788 8.848 9.136 8.512 9.832L7.348 9.148C7.612 8.588 7.984 8.164 8.464 7.876C8.944 7.588 9.476 7.444 10.06 7.444C10.796 7.444 11.428 7.676 11.956 8.14C12.484 8.604 12.748 9.236 12.748 10.036C12.748 10.892 12.272 11.804 11.32 12.772L9.424 14.668H12.904V16H7.372ZM19.4384 14.968C18.8624 15.76 18.0544 16.156 17.0144 16.156C15.9744 16.156 15.1624 15.76 14.5784 14.968C14.0024 14.176 13.7144 13.12 13.7144 11.8C13.7144 10.48 14.0024 9.424 14.5784 8.632C15.1624 7.84 15.9744 7.444 17.0144 7.444C18.0544 7.444 18.8624 7.84 19.4384 8.632C20.0224 9.424 20.3144 10.48 20.3144 11.8C20.3144 13.12 20.0224 14.176 19.4384 14.968ZM17.0144 14.812C17.6384 14.812 18.1144 14.552 18.4424 14.032C18.7704 13.512 18.9344 12.768 18.9344 11.8C18.9344 10.832 18.7704 10.088 18.4424 9.568C18.1144 9.048 17.6384 8.788 17.0144 8.788C16.3984 8.788 15.9224 9.048 15.5864 9.568C15.2584 10.088 15.0944 10.832 15.0944 11.8C15.0944 12.768 15.2584 13.512 15.5864 14.032C15.9224 14.552 16.3984 14.812 17.0144 14.812ZM31.101 9.844C31.781 9.844 32.329 10.064 32.745 10.504C33.161 10.944 33.369 11.536 33.369 12.28V16H32.073V12.364C32.073 11.948 31.969 11.628 31.761 11.404C31.553 11.172 31.269 11.056 30.909 11.056C30.509 11.056 30.189 11.188 29.949 11.452C29.717 11.716 29.601 12.112 29.601 12.64V16H28.305V12.364C28.305 11.948 28.205 11.628 28.005 11.404C27.813 11.172 27.537 11.056 27.177 11.056C26.785 11.056 26.465 11.192 26.217 11.464C25.969 11.728 25.845 12.12 25.845 12.64V16H24.549V10H25.845V10.72C26.229 10.136 26.801 9.844 27.561 9.844C28.329 9.844 28.897 10.16 29.265 10.792C29.665 10.16 30.277 9.844 31.101 9.844ZM35.98 8.86C35.82 9.02 35.628 9.1 35.404 9.1C35.18 9.1 34.984 9.02 34.816 8.86C34.656 8.692 34.576 8.496 34.576 8.272C34.576 8.048 34.656 7.856 34.816 7.696C34.976 7.528 35.172 7.444 35.404 7.444C35.636 7.444 35.832 7.528 35.992 7.696C36.152 7.856 36.232 8.048 36.232 8.272C36.232 8.496 36.148 8.692 35.98 8.86ZM34.756 16V10H36.052V16H34.756ZM40.7128 9.844C41.4008 9.844 41.9568 10.064 42.3808 10.504C42.8048 10.944 43.0168 11.548 43.0168 12.316V16H41.7208V12.448C41.7208 12 41.6008 11.656 41.3608 11.416C41.1208 11.176 40.7928 11.056 40.3768 11.056C39.9208 11.056 39.5528 11.2 39.2728 11.488C38.9928 11.768 38.8528 12.2 38.8528 12.784V16H37.5568V10H38.8528V10.768C39.2448 10.152 39.8648 9.844 40.7128 9.844Z" fill="#B7BCCA"/>
</g>
<defs>
<clipPath id="clip0">
<rect width="48" height="24" fill="white"/>
</clipPath>
</defs>
</svg>
