<svg width="16" height="16" viewBox="0 0 16 16" fill="none" xmlns="http://www.w3.org/2000/svg">
<path d="M3 12C2.33333 12 1 11.6 1 10C1 8.4 1 5.33333 1 4C1 3.33333 1.4 2 3 2C4.35244 2 7.22913 2 10.3014 2C11.3552 2 12.3317 2.5529 12.8739 3.45651L14.5725 6.28746C14.8522 6.75371 15 7.28722 15 7.83095V11C15 11.3333 14.8 12 14 12H13" stroke="#FF5134" stroke-width="1.5"/>
<circle cx="4.5" cy="12.5" r="1.75" stroke="#FF5134" stroke-width="1.5"/>
<circle cx="11.5" cy="12.5" r="1.75" stroke="#FF5134" stroke-width="1.5"/>
<path d="M6 12L9.5 12" stroke="#FF5134" stroke-width="1.5"/>
<rect x="3.75" y="4.75" width="2.5" height="3.5" rx="1.25" stroke="#FF5134" stroke-width="1.5"/>
<rect x="8.55078" y="4.75" width="2.5" height="3.5" rx="1.25" stroke="#FF5134" stroke-width="1.5"/>
</svg>
