<svg width="32" height="31" viewBox="0 0 32 31" fill="none" xmlns="http://www.w3.org/2000/svg">
<path d="M28.2566 16.0047H3.75044C2.78536 16.0047 2 15.2193 2 14.2542V9.58638C2 8.6213 2.78536 7.83594 3.75044 7.83594H28.2566C29.2217 7.83594 30.0071 8.6213 30.0071 9.58638V14.2542C30.0071 15.2193 29.2217 16.0047 28.2566 16.0047ZM3.75044 9.0029C3.42953 9.0029 3.16696 9.2643 3.16696 9.58638V14.2542C3.16696 14.5763 3.42953 14.8377 3.75044 14.8377H28.2566C28.5775 14.8377 28.8401 14.5763 28.8401 14.2542V9.58638C28.8401 9.2643 28.5775 9.0029 28.2566 9.0029H3.75044Z" fill="#FF5134" stroke="#FF5134" stroke-width="0.7" stroke-linecap="round" stroke-linejoin="round"/>
<path d="M24.7558 30.0064H7.25139C5.64215 30.0064 4.33398 28.6971 4.33398 27.089V15.4194C4.33398 15.0973 4.59538 14.8359 4.91746 14.8359C5.23955 14.8359 5.50094 15.0973 5.50094 15.4194V27.089C5.50094 28.0541 6.28631 28.8395 7.25139 28.8395H24.7558C25.7209 28.8395 26.5062 28.0541 26.5062 27.089V15.4194C26.5062 15.0973 26.7676 14.8359 27.0897 14.8359C27.4118 14.8359 27.6732 15.0973 27.6732 15.4194V27.089C27.6732 28.6971 26.365 30.0064 24.7558 30.0064Z" fill="#FF5134" stroke="#FF5134" stroke-width="0.7" stroke-linecap="round" stroke-linejoin="round"/>
<path d="M16.0034 30.0064C15.6813 30.0064 15.4199 29.745 15.4199 29.4229V15.4194C15.4199 15.0973 15.6813 14.8359 16.0034 14.8359C16.3255 14.8359 16.5869 15.0973 16.5869 15.4194V29.4229C16.5869 29.745 16.3255 30.0064 16.0034 30.0064Z" fill="#FF5134" stroke="#FF5134" stroke-width="0.7" stroke-linecap="round" stroke-linejoin="round"/>
<path d="M16.0042 9.00089C15.9622 9.00089 15.9202 8.99622 15.8782 8.98688C15.143 8.82351 11.4239 7.96113 10.4413 6.97855C9.88935 6.42891 9.58594 5.69606 9.58594 4.91653C9.58594 4.137 9.88935 3.40415 10.4402 2.85334C11.5779 1.71555 13.4287 1.71555 14.5654 2.85334C15.5479 3.83475 16.4103 7.55502 16.5737 8.29138C16.6169 8.48626 16.5574 8.68931 16.4162 8.82934C16.3065 8.94021 16.1571 9.00089 16.0042 9.00089ZM12.5033 3.16725C12.0552 3.16725 11.6059 3.33763 11.2652 3.67838C10.9349 4.0098 10.7529 4.44857 10.7529 4.91653C10.7529 5.38448 10.9349 5.82325 11.2652 6.15467C11.7191 6.60862 13.6166 7.22127 15.2154 7.62971C14.8058 6.03097 14.1943 4.1335 13.7403 3.67955C13.4007 3.33763 12.9515 3.16725 12.5033 3.16725Z" fill="#FF5134" stroke="#FF5134" stroke-width="0.7" stroke-linecap="round" stroke-linejoin="round"/>
<path d="M16.0044 8.99972C15.8515 8.99972 15.7021 8.93904 15.5913 8.82935C15.4501 8.68814 15.3906 8.48509 15.4337 8.29138C15.5971 7.55502 16.4595 3.83592 17.4421 2.85334C18.5799 1.71439 20.4307 1.71672 21.5673 2.85334C22.1193 3.40298 22.4227 4.13583 22.4227 4.91536C22.4227 5.69489 22.1193 6.42774 21.5685 6.97855C20.5859 7.96113 16.8668 8.82351 16.1316 8.98688C16.0884 8.99505 16.0464 8.99972 16.0044 8.99972ZM19.5053 3.16609C19.0572 3.16609 18.6079 3.33646 18.2671 3.67721C17.8132 4.13116 17.2017 6.02864 16.7921 7.62738C18.3908 7.21894 20.2883 6.60629 20.7422 6.15234C21.0737 5.82209 21.2557 5.38331 21.2557 4.91536C21.2557 4.44741 21.0737 4.00863 20.7434 3.67721C20.4027 3.33646 19.9534 3.16609 19.5053 3.16609ZM17.8552 3.26528H17.8669H17.8552Z" fill="#FF5134" stroke="#FF5134" stroke-width="0.7" stroke-linecap="round" stroke-linejoin="round"/>
</svg>
