<svg width="64" height="40" viewBox="0 0 64 40" fill="none" xmlns="http://www.w3.org/2000/svg">
<path d="M64 37.8571C64 39.0306 63.0303 40 61.8565 40H2.14354C0.969697 40 0 39.0306 0 37.8571V2.14286C0 0.969388 0.969697 0 2.14354 0H61.9075C63.0813 0 64.051 0.969388 64.051 2.14286V37.8571H64Z" fill="white"/>
<path d="M29.4453 26.0213H26.332L28.2714 13.9805H31.4357L29.4453 26.0213Z" fill="#0066B2"/>
<path d="M23.6794 13.9805L20.7193 22.2458L20.362 20.4601L19.2903 15.0519C19.2903 15.0519 19.1882 13.9805 17.8102 13.9805H12.8596L12.8086 14.1846C12.8086 14.1846 14.3397 14.4907 16.0749 15.5621L18.8309 26.0213H22.0973L27.0478 13.9805H23.6794Z" fill="#0066B2"/>
<path d="M48.2794 26.021H51.1375L48.6367 14.0312H46.1359C44.962 14.0312 44.7068 14.9496 44.7068 14.9496L40.0625 26.021H43.3288L43.9923 24.2353H47.9732L48.2794 26.021ZM44.8599 21.7353L46.4931 17.2455L47.4118 21.7353H44.8599Z" fill="#0066B2"/>
<path d="M40.2671 16.8876L40.7264 14.2856C40.7264 14.2856 39.3484 13.7754 37.9194 13.7754C36.3883 13.7754 32.6626 14.4387 32.6626 17.755C32.6626 20.8672 37.0008 20.9182 37.0008 22.4999C37.0008 24.1325 33.122 23.8264 31.846 22.806L31.3867 25.5101C31.3867 25.5101 32.7647 26.1734 34.9082 26.1734C37.0518 26.1734 40.2671 25.0509 40.2671 22.0407C40.2671 18.9285 35.8779 18.6223 35.8779 17.2958C35.929 15.9693 38.9401 16.1733 40.2671 16.8876Z" fill="#0066B2"/>
<path d="M20.362 20.4601L19.2902 15.0519C19.2902 15.0519 19.1882 13.9805 17.8102 13.9805H12.8596L12.8086 14.1846C12.8086 14.1846 15.1563 14.6948 17.4529 16.5315C19.6475 18.2662 20.362 20.4601 20.362 20.4601Z" fill="#F9A533"/>
</svg>
