<svg width="22" height="24" viewBox="0 0 22 24" fill="none" xmlns="http://www.w3.org/2000/svg">
<path d="M10 2C4.486 2 0 6.486 0 12C0 17.514 4.486 22 10 22C15.514 22 20 17.514 20 12C20 6.486 15.514 2 10 2ZM2 12C2 11.101 2.156 10.238 2.431 9.431L4 11L6 13V15L8 17L9 18V19.931C5.061 19.436 2 16.072 2 12ZM16.33 16.873C15.677 16.347 14.687 16 14 16V15C14 13.896 13.104 13 12 13H8V11V10C9.104 10 10 9.104 10 8V7H11C12.104 7 13 6.104 13 5V4.589C15.928 5.778 18 8.65 18 12C18 13.835 17.373 15.522 16.33 16.873Z" fill="#1E2843"/>
</svg>
